<svg id="Grupo_120395" data-name="Grupo 120395" xmlns="http://www.w3.org/2000/svg" xmlns:xlink="http://www.w3.org/1999/xlink" width="83.675" height="83.276" viewBox="0 0 83.675 83.276">
  <defs>
    <clipPath id="clip-path">
      <rect id="Rectángulo_37898" data-name="Rectángulo 37898" width="83.675" height="83.276" fill="none"/>
    </clipPath>
  </defs>
  <g id="Grupo_120394" data-name="Grupo 120394" clip-path="url(#clip-path)">
    <path id="Trazado_182523" data-name="Trazado 182523" d="M6.326,26.567q0-10.353,0-20.706A5.754,5.754,0,0,1,17.744,4.73,6.4,6.4,0,0,1,17.8,5.98q0,20.841-.016,41.681c0,.776.172,1,.983,1.077a5.671,5.671,0,0,1,5.28,5.835,20.428,20.428,0,0,1-.11,3.844,5.632,5.632,0,0,1-5.413,4.718c-.692.019-.735.28-.733.838.019,4.512.014,9.023.009,13.535A5.675,5.675,0,0,1,12,83.252a5.679,5.679,0,0,1-5.678-5.774q-.006-6.768.005-13.535c0-.49.014-.785-.67-.805A5.609,5.609,0,0,1,.145,58.123a16.683,16.683,0,0,1,0-4.381A5.59,5.59,0,0,1,5.48,48.727c.8-.058.862-.342.86-1.006-.023-7.051-.014-14.1-.014-21.154m2.87.1c0,7.024.009,14.048-.014,21.072,0,.691.165.953.9.92,1.283-.058,2.572-.059,3.854,0,.767.035,1.021-.161,1.02-.981q-.04-20.848-.022-41.7a3.518,3.518,0,0,0-.081-.885,2.941,2.941,0,0,0-3.174-2.186A2.963,2.963,0,0,0,9.2,5.861q-.008,10.4,0,20.8M12,60.294c2.062,0,4.125.013,6.187,0a2.881,2.881,0,0,0,2.989-2.911c.03-.9.016-1.793,0-2.69a2.931,2.931,0,0,0-3.147-3.133c-1.523-.01-3.046.059-4.569.056-2.479-.005-4.959-.067-7.438-.054a2.9,2.9,0,0,0-3.084,3.1c-.012.867-.015,1.734,0,2.6A2.9,2.9,0,0,0,6,60.291c2,.013,4,0,6.007,0M9.2,70.727c0,2.3-.023,4.6.008,6.9a2.863,2.863,0,0,0,5.721,0c.025-4.6,0-9.2.017-13.806,0-.507-.178-.68-.679-.672-1.4.023-2.81.039-4.213-.006-.663-.022-.881.173-.869.854.039,2.241.015,4.482.015,6.723" transform="translate(0 -0.006)"/>
    <path id="Trazado_182524" data-name="Trazado 182524" d="M254.75,63.718c0-4.663-.009-9.326.011-13.989,0-.6-.055-.879-.785-.909a5.523,5.523,0,0,1-5.357-4.755,15.506,15.506,0,0,1,.006-4.909,5.511,5.511,0,0,1,5.308-4.7c.778-.028.827-.343.826-.959q-.021-13.81-.009-27.62a5.754,5.754,0,0,1,11.414-1.161,6.292,6.292,0,0,1,.063,1.25q0,13.81-.008,27.62c0,.562.058.829.737.861a5.521,5.521,0,0,1,5.425,4.888,15.512,15.512,0,0,1-.02,4.733A5.529,5.529,0,0,1,267,48.82c-.729.03-.786.311-.785.908q.024,13.81.011,27.62a5.745,5.745,0,0,1-11.372,1.332,5.548,5.548,0,0,1-.1-1.242q-.01-6.86,0-13.721m8.609-44.056q0-6.9,0-13.808a2.869,2.869,0,1,0-5.734.028c0,9.235.007,18.47-.019,27.705,0,.744.251.908.928.886,1.314-.044,2.631-.054,3.944,0,.729.032.9-.225.9-.917-.027-4.632-.014-9.265-.014-13.9m0,43.942c0-4.633-.013-9.265.014-13.9,0-.7-.176-.947-.9-.914a36.987,36.987,0,0,1-3.764,0c-.848-.048-1.112.19-1.108,1.073.032,9.115.019,18.231.02,27.347a2.882,2.882,0,1,0,5.738.023q0-6.814,0-13.629m-2.917-17.623c2.061,0,4.122.018,6.184-.006A2.85,2.85,0,0,0,269.6,43.07q.045-1.433,0-2.868a2.849,2.849,0,0,0-2.976-2.908q-6.139-.028-12.278,0a2.831,2.831,0,0,0-2.978,2.992c-.018.866-.012,1.733,0,2.6a2.871,2.871,0,0,0,3.067,3.092c2,.018,4,0,6,0" transform="translate(-188.878 0)"/>
    <path id="Trazado_182525" data-name="Trazado 182525" d="M130.536,53.5q0-12.151.011-24.3c0-.587-.042-.883-.776-.92a5.522,5.522,0,0,1-5.395-4.924,15.665,15.665,0,0,1,.045-4.822,5.536,5.536,0,0,1,5.291-4.622c.766-.022.844-.314.836-.945-.029-2.331-.013-4.663-.011-6.995a5.742,5.742,0,1,1,11.479.043c0,2.362.012,4.723-.009,7.084,0,.521.049.775.7.8a5.526,5.526,0,0,1,5.473,4.94,15.68,15.68,0,0,1-.035,4.734,5.538,5.538,0,0,1-5.225,4.7c-.731.038-.92.231-.919.969q.036,24.078.018,48.156a5.752,5.752,0,0,1-11.379,1.38,5.46,5.46,0,0,1-.1-1.334q0-11.972,0-23.944m8.609-.136c0-8.04-.011-16.08.017-24.12,0-.781-.186-1.051-.994-1.007a36.51,36.51,0,0,1-3.764,0c-.77-.037-1.018.165-1.017.982q.038,24.075.022,48.15a3.515,3.515,0,0,0,.082.885,2.865,2.865,0,0,0,5.651-.773q.007-12.06,0-24.12m-2.868-27.923c2.031,0,4.063.02,6.094-.006a2.858,2.858,0,0,0,3.023-3.048q.022-1.3,0-2.6a2.866,2.866,0,0,0-3.029-3.039q-6.094-.021-12.189,0a2.85,2.85,0,0,0-3.02,3.044c-.013.806-.006,1.613,0,2.42a2.907,2.907,0,0,0,3.208,3.226c1.971.012,3.943,0,5.914,0m2.867-15.957c0-1.255.024-2.511-.006-3.765a2.864,2.864,0,0,0-5.723-.007c-.031,2.51,0,5.02-.017,7.53,0,.506.175.681.677.674,1.464-.023,2.929-.03,4.392,0,.588.013.694-.255.684-.758-.023-1.225-.008-2.45-.008-3.675" transform="translate(-94.437 -0.076)"/>
    <path id="Trazado_182526" data-name="Trazado 182526" d="M38.322,35.786q0-10.4,0-20.8a2.865,2.865,0,0,1,5.652-.767,3.528,3.528,0,0,1,.081.885q.005,20.848.022,41.7c0,.82-.253,1.016-1.02.981-1.283-.059-2.572-.058-3.854,0-.732.033-.9-.229-.9-.92.022-7.024.014-14.048.014-21.072" transform="translate(-29.125 -9.128)" fill="#fdd835"/>
    <path id="Trazado_182527" data-name="Trazado 182527" d="M21.318,223.79c-2,0-4,.01-6.007,0a2.9,2.9,0,0,1-3.05-3.034c-.016-.867-.012-1.734,0-2.6a2.9,2.9,0,0,1,3.084-3.1c2.479-.013,4.959.049,7.438.054,1.523,0,3.046-.066,4.569-.056a2.931,2.931,0,0,1,3.147,3.133c.011.9.025,1.794,0,2.69a2.881,2.881,0,0,1-2.989,2.911c-2.062.017-4.125,0-6.187,0" transform="translate(-9.314 -163.502)" fill="#f57c00"/>
    <path id="Trazado_182528" data-name="Trazado 182528" d="M38.317,271c0-2.241.024-4.483-.015-6.723-.012-.681.207-.875.869-.854,1.4.045,2.809.029,4.213.006.5-.008.68.165.679.672-.013,4.6.008,9.2-.017,13.806a2.863,2.863,0,0,1-5.721,0c-.031-2.3-.008-4.6-.008-6.9" transform="translate(-29.12 -200.277)" fill="#fdd835"/>
    <path id="Trazado_182529" data-name="Trazado 182529" d="M292.465,28.842c0,4.633-.013,9.265.014,13.9,0,.693-.168.949-.9.917-1.313-.057-2.63-.047-3.944,0-.677.023-.93-.142-.928-.886.026-9.235.015-18.47.019-27.705a2.869,2.869,0,1,1,5.734-.028q.011,6.9,0,13.808" transform="translate(-217.984 -9.18)" fill="#fdd835"/>
    <path id="Trazado_182530" data-name="Trazado 182530" d="M292.456,218.34q0,6.814,0,13.629a2.882,2.882,0,1,1-5.737-.023c0-9.116.012-18.231-.021-27.347,0-.883.26-1.121,1.108-1.073a37.059,37.059,0,0,0,3.764,0c.724-.033.9.216.9.914-.028,4.633-.015,9.265-.015,13.9" transform="translate(-217.975 -154.735)" fill="#fdd835"/>
    <path id="Trazado_182531" data-name="Trazado 182531" d="M269.747,164.225c-2,0-4,.014-6,0a2.871,2.871,0,0,1-3.067-3.092c-.011-.866-.017-1.733,0-2.6a2.832,2.832,0,0,1,2.979-2.992q6.139-.03,12.278,0a2.849,2.849,0,0,1,2.976,2.908c.029.955.03,1.913,0,2.868a2.85,2.85,0,0,1-2.979,2.907c-2.061.023-4.122.005-6.184.006" transform="translate(-198.183 -118.243)" fill="#f57c00"/>
    <path id="Trazado_182532" data-name="Trazado 182532" d="M168.251,142.613q0,12.06,0,24.12a2.865,2.865,0,0,1-5.651.773,3.516,3.516,0,0,1-.082-.885q-.005-24.075-.022-48.15c0-.817.247-1.019,1.017-.982a36.441,36.441,0,0,0,3.764,0c.808-.045,1,.225.994,1.007-.028,8.04-.018,16.08-.018,24.12" transform="translate(-123.544 -89.321)" fill="#fdd835"/>
    <path id="Trazado_182533" data-name="Trazado 182533" d="M145.6,78.235c-1.972,0-3.943.01-5.914,0a2.907,2.907,0,0,1-3.208-3.226c0-.807-.011-1.614,0-2.42a2.85,2.85,0,0,1,3.02-3.044q6.094-.022,12.189,0a2.867,2.867,0,0,1,3.029,3.039q.022,1.3,0,2.6a2.858,2.858,0,0,1-3.023,3.048c-2.031.026-4.062.006-6.094.006" transform="translate(-103.757 -52.865)" fill="#f57c00"/>
    <path id="Trazado_182534" data-name="Trazado 182534" d="M168.287,18.594c0,1.225-.015,2.451.008,3.675.01.5-.1.771-.684.758-1.463-.033-2.928-.025-4.392,0-.5.008-.681-.168-.677-.674.018-2.51-.015-5.02.017-7.53a2.864,2.864,0,0,1,5.723.007c.03,1.254.006,2.51.006,3.765" transform="translate(-123.579 -9.181)" fill="#fdd835"/>
  </g>
</svg>
