<svg id="Grupo_120397" data-name="Grupo 120397" xmlns="http://www.w3.org/2000/svg" xmlns:xlink="http://www.w3.org/1999/xlink" width="67.372" height="85" viewBox="0 0 67.372 85">
  <defs>
    <clipPath id="clip-path">
      <rect id="Rectángulo_37899" data-name="Rectángulo 37899" width="67.372" height="85" fill="none"/>
    </clipPath>
  </defs>
  <g id="Grupo_120396" data-name="Grupo 120396" clip-path="url(#clip-path)">
    <path id="Trazado_182535" data-name="Trazado 182535" d="M2.482,85c-.23-.295-.614-.322-.9-.521A3.453,3.453,0,0,1,.021,81.867C0,81.593,0,81.315,0,81.038Q0,42.49,0,3.942C0,1.851.947.481,2.68.095A4.971,4.971,0,0,1,3.751.013Q22.544.007,41.336,0a4.143,4.143,0,0,1,3.105,1.291Q55.248,12.136,66.085,22.95a4.084,4.084,0,0,1,1.287,3.11c-.029,1.825-.014,3.651,0,5.477A1.363,1.363,0,0,1,66.218,33.1c-1.03-.163-1.336-.494-1.343-1.521-.011-1.549-.044-3.1.015-4.646.028-.747-.167-.962-.938-.958-6.195.034-12.389.018-18.584.02a4.153,4.153,0,0,1-2.529-.616,3.727,3.727,0,0,1-1.474-3.334c.01-6.251,0-12.5.013-18.754,0-.54-.012-.958-.728-.764-.11-.009-.22-.026-.33-.026q-18.289,0-36.578,0c-1,0-1.249.29-1.249,1.395q0,38.619,0,77.237c0,1.113.258,1.372,1.355,1.373,2.848,0,5.7.013,8.543-.006a1.415,1.415,0,0,1,1.621,1.189A1.555,1.555,0,0,1,13.1,85ZM43.876,4.477c-.014.169-.035.3-.035.43q0,8.631,0,17.263c0,1.071.292,1.329,1.421,1.33q8.464,0,16.927,0c.224,0,.494.113.633-.08L43.876,4.477" transform="translate(0 0)" fill="#030303"/>
    <path id="Trazado_182536" data-name="Trazado 182536" d="M131.682,174.609c.911.179,1.153.805,1.151,1.644-.011,3.757,0,7.514,0,11.271q0,15.994.006,31.989a3.632,3.632,0,0,1-1.872,3.437c-.308.178-.707.045-.949.354H83.38c-.264-.372-.707-.631-.731-1.156.19-1.032.529-1.317,1.581-1.336.324-.006.649-.021.973-.031.165.011.33.031.495.031q21.645,0,43.29,0c.138,0,.277,0,.415,0a.9.9,0,0,0,.921-.881,7.106,7.106,0,0,0,.013-.829q0-21.36,0-42.719c0-1.277.246-1.6,1.345-1.77" transform="translate(-65.464 -138.303)" fill="#030303"/>
    <path id="Trazado_182537" data-name="Trazado 182537" d="M141.41,45.753c-1.1.174-1.345.492-1.345,1.77q0,21.36,0,42.719a7.106,7.106,0,0,1-.013.829.9.9,0,0,1-.921.881c-.138.008-.277,0-.415,0q-21.645,0-43.29,0c-.165,0-.33-.02-.495-.031.012-.236.2-.31.369-.4a74.16,74.16,0,0,0,11.586-7.38,19.112,19.112,0,0,0,3.523-3.063,15.311,15.311,0,0,0,9.713,2.619,14.944,14.944,0,0,0,7.814-26.85,2.157,2.157,0,0,1,.079-.488,68.868,68.868,0,0,0,2.792-8.381,78.642,78.642,0,0,0,2.155-11.061c.08-.679-.108-.753-.7-.75-4.09.022-8.181.016-12.272.01a4.079,4.079,0,0,1-4.148-4.134q0-10.036,0-20.071c.716-.194.729.224.728.764-.013,6.251,0,12.5-.013,18.754a3.726,3.726,0,0,0,1.474,3.334,4.155,4.155,0,0,0,2.53.616c6.195,0,12.389.014,18.584-.02.772,0,.967.211.938.958-.059,1.547-.026,3.1-.015,4.647.007,1.027.313,1.358,1.343,1.521q0,1.6,0,3.2" transform="translate(-75.192 -9.447)" fill="#fff3bf"/>
    <path id="Trazado_182538" data-name="Trazado 182538" d="M50.142,12.057q0,10.035,0,20.071a4.079,4.079,0,0,0,4.148,4.134c4.091.006,8.181.012,12.272-.01.589,0,.777.071.7.75a78.647,78.647,0,0,1-2.156,11.061,68.836,68.836,0,0,1-2.792,8.381,2.145,2.145,0,0,0-.079.488,1.146,1.146,0,0,1-.148-.074,14.783,14.783,0,0,0-18.478.7c-.427.342-.626.208-.955-.064a14.7,14.7,0,0,0-11.9-3.321A14.922,14.922,0,1,0,41.769,81.035c.49-.342.914-1.073,1.438-.983.548.094,1.005.719,1.5,1.112a19.112,19.112,0,0,1-3.522,3.063A74.161,74.161,0,0,1,29.6,91.606c-.17.089-.358.163-.369.4-.324.011-.649.025-.973.031-1.052.019-1.391.3-1.581,1.336a13.492,13.492,0,0,0-3.172-.154,1.415,1.415,0,0,0-1.621-1.188c-2.848.02-5.7.009-8.543.006-1.1,0-1.355-.26-1.355-1.373q0-38.619,0-77.237c0-1.1.254-1.395,1.249-1.4q18.289,0,36.578,0c.11,0,.22.017.33.026M32.554,22.564c3.4,0,6.8,0,10.2,0,1.086,0,1.621-.415,1.639-1.213.019-.831-.54-1.262-1.662-1.282-.083,0-.166,0-.249,0q-9.948,0-19.9,0a4.621,4.621,0,0,0-.986.085,1.1,1.1,0,0,0-.9,1.217,1.089,1.089,0,0,0,.92,1.12,5.334,5.334,0,0,0,.988.07q4.974.007,9.948,0M28.2,26c1.988,0,3.976.005,5.963,0,.986,0,1.538-.447,1.55-1.211.012-.782-.532-1.271-1.508-1.274q-6-.017-12.009,0c-.963,0-1.529.508-1.516,1.273s.566,1.208,1.557,1.212c1.988.008,3.976,0,5.963,0m-.1,3.457c2.015,0,4.031.005,6.046,0,1.025,0,1.595-.482,1.571-1.286-.023-.764-.577-1.2-1.567-1.2q-5.922-.007-11.844,0c-1.041,0-1.623.455-1.624,1.24s.588,1.246,1.621,1.249c1.932.006,3.865,0,5.8,0m-4.112,3.7v0c.717,0,1.435.018,2.152-.005a1.186,1.186,0,0,0,1.254-1.17,1.163,1.163,0,0,0-1.15-1.262c-1.458-.061-2.922-.056-4.381-.008a1.15,1.15,0,0,0-1.168,1.248c-.014.7.5,1.161,1.308,1.2.661.028,1.324.006,1.986.006m-2.06,6.322a1.218,1.218,0,0,0-.021-2.437,1.209,1.209,0,0,0-1.221,1.185,1.226,1.226,0,0,0,1.242,1.252" transform="translate(-9.493 -9.529)" fill="#fff3bf"/>
    <path id="Trazado_182539" data-name="Trazado 182539" d="M210.875,21.534l18.949,18.939c-.139.193-.409.079-.633.08q-8.463.011-16.927,0c-1.129,0-1.42-.259-1.421-1.33q-.013-8.631,0-17.263c0-.13.021-.261.035-.43" transform="translate(-166.999 -17.057)" fill="#fff3bf"/>
    <path id="Trazado_182540" data-name="Trazado 182540" d="M68.237,240.858c-.5-.393-.954-1.018-1.5-1.112-.524-.09-.948.641-1.438.983a14.925,14.925,0,1,1-11.019-26.865,14.7,14.7,0,0,1,11.9,3.321c.33.272.528.405.955.064a14.783,14.783,0,0,1,18.478-.7,1.147,1.147,0,0,0,.148.074,14.944,14.944,0,0,1-7.814,26.85,15.311,15.311,0,0,1-9.713-2.619m-5.16-13.468c-.939-.514-1.08-.823-.859-1.87A13.722,13.722,0,0,1,64.57,220.1c.388-.523.32-.8-.179-1.186a12.043,12.043,0,0,0-10.522-2.418,12.216,12.216,0,0,0-9.561,13.715,11.706,11.706,0,0,0,7.756,9.928,11.993,11.993,0,0,0,12.458-1.961c.4-.316.417-.54.123-.937a14.186,14.186,0,0,1-2.25-4.763c-.273-1-.105-1.365.838-1.864.967-.085,1.392.481,1.611,1.318a10.9,10.9,0,0,0,1.822,3.834,12.362,12.362,0,0,0,.308-13.986c-.239-.332-.356-.33-.568,0a12.71,12.71,0,0,0-1.736,4.18c-.245,1.123-.51,1.331-1.595,1.435M76.94,241.043a16.747,16.747,0,0,0,2.975-.406,12.437,12.437,0,1,0-11-21.665c-.429.354-.481.559-.152,1.028a14.736,14.736,0,0,1-.006,17.207c-.344.487-.255.7.158,1.033a12.687,12.687,0,0,0,8.021,2.8" transform="translate(-33.02 -169.223)" fill="#030303"/>
    <path id="Trazado_182541" data-name="Trazado 182541" d="M65.738,53.177q-4.974,0-9.948,0a5.354,5.354,0,0,1-.989-.07,1.09,1.09,0,0,1-.92-1.12,1.1,1.1,0,0,1,.9-1.217,4.637,4.637,0,0,1,.986-.085q9.948-.007,19.9,0c.083,0,.166,0,.249,0,1.123.021,1.681.451,1.662,1.282-.018.8-.553,1.21-1.639,1.213-3.4.008-6.8,0-10.2,0" transform="translate(-42.677 -40.141)" fill="#030303"/>
    <path id="Trazado_182542" data-name="Trazado 182542" d="M61.334,69.694c-1.988,0-3.976.006-5.963,0-.99,0-1.543-.446-1.557-1.212s.552-1.271,1.516-1.273q6-.017,12.009,0c.976,0,1.519.492,1.508,1.274-.012.765-.563,1.208-1.55,1.211-1.988.008-3.976,0-5.963,0" transform="translate(-42.625 -53.226)" fill="#030303"/>
    <path id="Trazado_182543" data-name="Trazado 182543" d="M61.216,86.332c-1.933,0-3.865,0-5.8,0-1.033,0-1.622-.466-1.621-1.249s.583-1.239,1.624-1.24q5.922-.006,11.844,0c.99,0,1.544.438,1.568,1.2.024.8-.545,1.282-1.571,1.286-2.015.008-4.031,0-6.046,0" transform="translate(-42.611 -66.406)" fill="#030303"/>
    <path id="Trazado_182544" data-name="Trazado 182544" d="M57.151,104.174c-.662,0-1.325.023-1.986-.006-.809-.035-1.322-.5-1.308-1.2a1.15,1.15,0,0,1,1.168-1.248c1.459-.047,2.923-.052,4.381.008a1.163,1.163,0,0,1,1.15,1.262,1.186,1.186,0,0,1-1.254,1.171c-.717.023-1.434,0-2.152,0v0" transform="translate(-42.658 -80.544)" fill="#030303"/>
    <path id="Trazado_182545" data-name="Trazado 182545" d="M55.06,134.769a1.226,1.226,0,0,1-1.242-1.252,1.209,1.209,0,0,1,1.221-1.185,1.218,1.218,0,0,1,.021,2.437" transform="translate(-42.628 -104.817)" fill="#030303"/>
    <path id="Trazado_182546" data-name="Trazado 182546" d="M72.793,240.148c-.944.5-1.111.862-.838,1.864a14.179,14.179,0,0,0,2.25,4.763c.294.4.278.621-.123.938a11.994,11.994,0,0,1-12.458,1.961,11.707,11.707,0,0,1-7.756-9.929,12.216,12.216,0,0,1,9.561-13.715,12.041,12.041,0,0,1,10.522,2.418c.5.387.567.663.179,1.186a13.723,13.723,0,0,0-2.352,5.425c-.221,1.047-.08,1.356.859,1.87a13.121,13.121,0,0,0,.157,3.219" transform="translate(-42.58 -178.762)" fill="#636363"/>
    <path id="Trazado_182547" data-name="Trazado 182547" d="M179.26,250.675a12.687,12.687,0,0,1-8.021-2.8c-.413-.329-.5-.546-.158-1.033a14.736,14.736,0,0,0,.006-17.207c-.329-.469-.277-.674.152-1.028a12.44,12.44,0,1,1,11,21.665,16.752,16.752,0,0,1-2.975.406" transform="translate(-135.341 -178.856)" fill="#afafaf"/>
    <path id="Trazado_182548" data-name="Trazado 182548" d="M144.611,260.635a13.122,13.122,0,0,1-.157-3.219c1.085-.1,1.35-.312,1.595-1.435a12.712,12.712,0,0,1,1.736-4.18c.212-.331.329-.332.568,0a12.362,12.362,0,0,1-.308,13.986,10.894,10.894,0,0,1-1.822-3.834c-.219-.837-.645-1.4-1.611-1.318" transform="translate(-114.398 -199.249)" fill="#e8e8e8"/>
  </g>
</svg>
