<svg xmlns="http://www.w3.org/2000/svg" xmlns:xlink="http://www.w3.org/1999/xlink" width="152.098" height="241.665" viewBox="0 0 152.098 241.665">
  <defs>
    <clipPath id="clip-path">
      <rect id="Rectángulo_37425" data-name="Rectángulo 37425" width="69.65" height="65.041" fill="none"/>
    </clipPath>
  </defs>
  <g id="Grupo_120738" data-name="Grupo 120738" transform="translate(-417.285 -1336.535)">
    <path id="Trazado_166804" data-name="Trazado 166804" d="M266.39,749.862a101.111,101.111,0,0,1-34.8-6.137l34.8,26.128,34.8-26.128a101.111,101.111,0,0,1-34.8,6.137" transform="translate(226.873 808.348)" fill="#f57c00"/>
    <circle id="Elipse_4272" data-name="Elipse 4272" cx="11" cy="11" r="11" transform="translate(482.46 1529.863)" fill="#ffa726"/>
    <circle id="Elipse_4276" data-name="Elipse 4276" cx="7" cy="7" r="7" transform="translate(486.46 1533.863)" fill="#ffd1a2"/>
    <g id="Grupo_120735" data-name="Grupo 120735">
      <path id="Trazado_166803" data-name="Trazado 166803" d="M245.4,166.541a76.049,76.049,0,1,1-76.049-76.049A76.049,76.049,0,0,1,245.4,166.541" transform="translate(323.985 1246.043)" fill="#fff3bf"/>
      <path id="Trazado_182824" data-name="Trazado 182824" d="M9.559,9.93A7.053,7.053,0,0,1,6.75,8.566a2.6,2.6,0,0,1-.879-2A2.751,2.751,0,0,1,6.945,4.348a4.269,4.269,0,0,1,2.793-.879,4.66,4.66,0,0,1,2.09.453,3.436,3.436,0,0,1,1.422,1.25,3.2,3.2,0,0,1,.5,1.742H12.246a2.08,2.08,0,0,0-.656-1.627A2.669,2.669,0,0,0,9.738,4.7a2.732,2.732,0,0,0-1.73.489,1.632,1.632,0,0,0-.621,1.358,1.468,1.468,0,0,0,.59,1.178,5.785,5.785,0,0,0,2.008.88,9.316,9.316,0,0,1,2.219.88A3.367,3.367,0,0,1,13.391,10.6a2.861,2.861,0,0,1,.387,1.508A2.658,2.658,0,0,1,12.7,14.324a4.6,4.6,0,0,1-2.883.832,5.347,5.347,0,0,1-2.187-.449,3.681,3.681,0,0,1-1.566-1.23A3,3,0,0,1,5.512,11.7H7.02a1.959,1.959,0,0,0,.762,1.629,3.207,3.207,0,0,0,2.035.6,2.948,2.948,0,0,0,1.82-.484,1.573,1.573,0,0,0,.633-1.32,1.545,1.545,0,0,0-.586-1.293A6.755,6.755,0,0,0,9.559,9.93Zm5.531.766a4.993,4.993,0,0,1,.488-2.234A3.643,3.643,0,0,1,16.938,6.93a3.7,3.7,0,0,1,1.988-.539,3.565,3.565,0,0,1,2.793,1.2,4.6,4.6,0,0,1,1.066,3.18v.1a5.036,5.036,0,0,1-.473,2.215,3.589,3.589,0,0,1-1.352,1.527,3.743,3.743,0,0,1-2.02.547,3.556,3.556,0,0,1-2.785-1.2A4.575,4.575,0,0,1,15.09,10.8Zm1.453.172a3.616,3.616,0,0,0,.652,2.258,2.211,2.211,0,0,0,3.5-.012A3.955,3.955,0,0,0,21.34,10.7a3.61,3.61,0,0,0-.66-2.254,2.1,2.1,0,0,0-1.754-.863A2.075,2.075,0,0,0,17.2,8.43,3.925,3.925,0,0,0,16.543,10.867Zm15.2,0a5.062,5.062,0,0,1-.883,3.109,2.829,2.829,0,0,1-2.391,1.18,3.1,3.1,0,0,1-2.422-.977v4.07H24.6V6.547h1.32l.07.938a2.977,2.977,0,0,1,2.453-1.094,2.882,2.882,0,0,1,2.41,1.148,5.117,5.117,0,0,1,.887,3.2ZM30.293,10.7a3.735,3.735,0,0,0-.609-2.258,1.963,1.963,0,0,0-1.672-.828,2.125,2.125,0,0,0-1.969,1.164V12.82a2.129,2.129,0,0,0,1.984,1.156,1.954,1.954,0,0,0,1.652-.824A4.077,4.077,0,0,0,30.293,10.7Zm2.9-.008a4.993,4.993,0,0,1,.488-2.234A3.643,3.643,0,0,1,35.039,6.93a3.7,3.7,0,0,1,1.988-.539,3.565,3.565,0,0,1,2.793,1.2,4.6,4.6,0,0,1,1.066,3.18v.1a5.036,5.036,0,0,1-.473,2.215,3.589,3.589,0,0,1-1.352,1.527,3.743,3.743,0,0,1-2.02.547,3.556,3.556,0,0,1-2.785-1.2A4.575,4.575,0,0,1,33.191,10.8Zm1.453.172a3.616,3.616,0,0,0,.652,2.258,2.211,2.211,0,0,0,3.5-.012,3.955,3.955,0,0,0,.648-2.418,3.61,3.61,0,0,0-.66-2.254,2.1,2.1,0,0,0-1.754-.863A2.075,2.075,0,0,0,35.3,8.43,3.925,3.925,0,0,0,34.645,10.867ZM46.785,7.844a4.331,4.331,0,0,0-.711-.055A1.9,1.9,0,0,0,44.145,9v6H42.7V6.547h1.406l.023.977a2.251,2.251,0,0,1,2.016-1.133,1.477,1.477,0,0,1,.641.109ZM50.465,4.5V6.547h1.578V7.664H50.465v5.249a1.173,1.173,0,0,0,.211.763.888.888,0,0,0,.719.254,3.5,3.5,0,0,0,.688-.094V15a4.215,4.215,0,0,1-1.109.155,1.8,1.8,0,0,1-1.461-.586,2.517,2.517,0,0,1-.492-1.664V7.664H47.48V6.547H49.02V4.5Zm6.773,10.656a3.693,3.693,0,0,1-2.8-1.129,4.19,4.19,0,0,1-1.078-3.02v-.266a5.073,5.073,0,0,1,.48-2.246,3.748,3.748,0,0,1,1.344-1.547,3.378,3.378,0,0,1,1.871-.559,3.166,3.166,0,0,1,2.563,1.086,4.7,4.7,0,0,1,.914,3.109v.6H54.809a3,3,0,0,0,.73,2.02,2.3,2.3,0,0,0,1.777.77,2.517,2.517,0,0,0,1.3-.312,3.259,3.259,0,0,0,.93-.828l.883.688A3.55,3.55,0,0,1,57.238,15.156Zm-.18-7.578a1.928,1.928,0,0,0-1.469.637A3.1,3.1,0,0,0,54.855,10H59.09V9.891A2.753,2.753,0,0,0,58.5,8.184,1.815,1.815,0,0,0,57.059,7.578Z" transform="translate(460.285 1450)" fill="#12263f"/>
      <g id="Grupo_120411" data-name="Grupo 120411" transform="translate(458.46 1367.127)">
        <g id="Grupo_120411-2" data-name="Grupo 120411" clip-path="url(#clip-path)">
          <path id="Trazado_181549" data-name="Trazado 181549" d="M0,46.664V13.88c.237-.126.2-.384.266-.584a5.277,5.277,0,0,1,4.559-3.63c.516-.03.69-.182.612-.673a2.751,2.751,0,0,1,0-.475,5.086,5.086,0,0,1,4.394-5,30.977,30.977,0,0,1,3.938-.077c.373-.006.58-.055.731-.477A4.37,4.37,0,0,1,18.71.007c1.7-.011,3.4-.006,5.1,0,.829,0,1.108.246,1.276,1.082a1.119,1.119,0,0,1-1.263.963c-1.609-.017-3.218-.007-4.827,0A2.444,2.444,0,0,0,16.26,4.763c0,4.1.011,8.2,0,12.3,0,.452.084.616.584.615q17.981-.023,35.963,0c.5,0,.588-.156.587-.612-.013-4.079,0-8.158,0-12.237a2.469,2.469,0,0,0-2.8-2.788q-11.047,0-22.094.01a1.252,1.252,0,0,1-1.421-.963C27.325.17,27.538,0,28.5,0q11.152,0,22.3,0a4.407,4.407,0,0,1,4.379,3.019c.119.32.247.416.566.411,1.065-.016,2.131-.014,3.2,0a5.2,5.2,0,0,1,5.271,5.636c-.014.3-.053.538.41.587a5.285,5.285,0,0,1,5.021,5.592q.005,14.995,0,29.989a5.353,5.353,0,0,1-5.614,5.649c-2.652.007-5.3.019-7.956-.013-.555-.007-.658.169-.653.678.023,2.833.017,5.667.009,8.5a4.627,4.627,0,0,1-5,4.988q-15.607,0-31.213,0a4.628,4.628,0,0,1-5-4.993c-.007-2.833-.015-5.667.01-8.5,0-.519-.114-.679-.659-.673q-4.114.045-8.228.008a5.331,5.331,0,0,1-5.08-3.7C.2,47,.235,46.758,0,46.664m34.814-17.42H61.472a5.5,5.5,0,0,1,.679.01.943.943,0,0,1,.846.678c.238.719-.27,1.347-1.134,1.352-1.927.01-3.854.017-5.78-.006-.477-.006-.616.144-.615.617q.021,8.16,0,16.321c0,.53.18.639.667.635,2.629-.021,5.259-.008,7.888-.011a3.338,3.338,0,0,0,3.586-3.616q0-8.16,0-16.321,0-6.9,0-13.8a3.282,3.282,0,0,0-3.366-3.408c-2.7-.008-5.4.013-8.092-.015-.551-.006-.688.172-.681.7.027,1.949.013,3.9.01,5.848,0,1.134-.371,1.5-1.5,1.5H15.69c-1.164,0-1.516-.36-1.517-1.554,0-1.927-.022-3.854.013-5.78.01-.579-.18-.719-.733-.714-2.674.026-5.35.007-8.024.014A3.283,3.283,0,0,0,2.044,15.08q-.007,15.165,0,30.33a3.307,3.307,0,0,0,3.43,3.429c2.675.008,5.35-.012,8.024.014.539.005.687-.151.686-.686q-.028-8.092,0-16.185c0-.586-.19-.715-.736-.706-1.881.03-3.763.016-5.644.009a1.116,1.116,0,0,1-1.233-1c-.021-.621.463-1.025,1.245-1.036.2,0,.408,0,.612,0H34.814M16.4,50.539c.616-.637,1.165-1.24,1.751-1.807a9.2,9.2,0,0,1,12.824,0c.732.709,1.466,1.42,2.159,2.167.319.345.5.36.833.012,1.341-1.383,2.709-2.739,4.08-4.093a10.432,10.432,0,0,1,14.689-.067c.171.165.35.32.525.479.173-.173.119-.339.119-.487,0-4.963-.015-9.926,0-14.889,0-.524-.2-.57-.634-.57q-17.915.015-35.831-.006c-.561,0-.656.184-.655.688.011,5.938,0,11.875,0,17.813a1.111,1.111,0,0,0,.139.762m8.468,12.336a.6.6,0,0,0,.515.118Q38,63,50.612,62.995a2.544,2.544,0,0,0,2.767-2.741c.016-2.357.007-4.714,0-7.071a8.539,8.539,0,0,0-.094-2.828c-.332-.891-1.3-1.467-2.013-2.165a8.3,8.3,0,0,0-11.735.045q-4.068,4.057-8.135,8.115a1.062,1.062,0,0,1-1.615.1c-.425-.445-.375-1,.162-1.554.6-.616,1.213-1.222,1.827-1.827.193-.19.328-.331.051-.592-.922-.871-1.769-1.828-2.736-2.644a7.046,7.046,0,0,0-9.268.187c-1.139,1.036-2.2,2.159-3.3,3.237a.78.78,0,0,0-.242.6c.007,2.221-.018,4.442.017,6.663a2.463,2.463,0,0,0,2.48,2.456c.838.021,1.678-.014,2.515.015a1.163,1.163,0,0,0,.95-.389c1.429-1.455,2.879-2.89,4.322-4.332a4.639,4.639,0,0,1,.442-.422.975.975,0,0,1,1.358.025.989.989,0,0,1,.082,1.407,6.932,6.932,0,0,1-.563.589c-1,1-2.005,2-3.016,3.005M12.118,5.463c-.407,0-.814,0-1.221,0A3.239,3.239,0,0,0,7.459,9.27c.029.307.145.372.418.371,1.967-.007,3.934-.011,5.9,0,.372,0,.461-.149.457-.483-.013-1.063-.022-2.126,0-3.188.011-.436-.166-.539-.561-.518-.519.028-1.04.007-1.56.007M58.763,9.638c.972,0,1.944,0,2.916,0,.2,0,.463.093.5-.273a3.216,3.216,0,0,0-3.137-3.892c-1.039-.03-2.08.008-3.119-.014-.377-.008-.521.1-.514.5q.03,1.593,0,3.187c-.006.377.111.518.5.508.949-.024,1.9-.008,2.848-.008" transform="translate(0 0)" fill="#030303"/>
          <path id="Trazado_181550" data-name="Trazado 181550" d="M47.742,103.205H21.356c-.2,0-.408,0-.612,0-.782.011-1.266.415-1.245,1.036a1.116,1.116,0,0,0,1.233,1c1.882.007,3.763.021,5.644-.009.547-.009.739.121.736.706q-.033,8.092,0,16.185c0,.536-.147.692-.686.686-2.674-.026-5.35-.007-8.024-.014a3.307,3.307,0,0,1-3.43-3.429q-.006-15.165,0-30.33a3.283,3.283,0,0,1,3.383-3.39c2.675-.007,5.35.012,8.024-.014.553-.005.743.135.733.714-.035,1.926-.014,3.853-.013,5.78,0,1.194.353,1.554,1.517,1.554H66.9c1.128,0,1.5-.37,1.5-1.5,0-1.949.017-3.9-.01-5.848-.007-.525.13-.7.681-.7,2.7.028,5.395.007,8.092.015a3.282,3.282,0,0,1,3.366,3.408q.01,6.9,0,13.8,0,8.16,0,16.321a3.338,3.338,0,0,1-3.586,3.616c-2.629,0-5.259-.01-7.888.01-.487,0-.669-.105-.667-.635q.028-8.16,0-16.321c0-.473.138-.623.615-.617,1.927.023,3.853.016,5.78.006.865,0,1.372-.633,1.135-1.352a.943.943,0,0,0-.846-.678,5.529,5.529,0,0,0-.679-.01H47.742m26.3-9.371a3,3,0,0,0,3.08-2.948,3.117,3.117,0,0,0-2.967-3.028,3.02,3.02,0,0,0-3.009,2.955,2.924,2.924,0,0,0,2.9,3.021m-2.9,4.051a3,3,0,0,0,3.013,3.008,3.081,3.081,0,0,0,2.964-2.955A3.042,3.042,0,0,0,74.1,94.914a2.938,2.938,0,0,0-2.959,2.971" transform="translate(-12.927 -73.961)" fill="#106f77"/>
          <path id="Trazado_181551" data-name="Trazado 181551" d="M128.069,7.98l1.986.005a1.251,1.251,0,0,0,1.421.963q11.047-.025,22.094-.01a2.469,2.469,0,0,1,2.8,2.788c0,4.079-.012,8.158,0,12.237,0,.456-.091.613-.587.612q-17.981-.022-35.963,0c-.5,0-.585-.163-.584-.615.013-4.1,0-8.2,0-12.3a2.444,2.444,0,0,1,2.736-2.717c1.609,0,3.218-.012,4.827,0a1.119,1.119,0,0,0,1.263-.963" transform="translate(-102.983 -6.892)" fill="#e9eaea"/>
          <path id="Trazado_181552" data-name="Trazado 181552" d="M119.375,248.659a1.112,1.112,0,0,1-.138-.762c0-5.938.011-11.875,0-17.813,0-.5.094-.689.655-.688q17.915.027,35.831.006c.432,0,.636.046.634.569-.017,4.963,0,9.926,0,14.889,0,.148.055.314-.119.486-.175-.159-.354-.314-.525-.479a10.432,10.432,0,0,0-14.689.067c-1.371,1.354-2.739,2.71-4.08,4.093-.338.348-.514.333-.833-.012-.693-.747-1.426-1.458-2.159-2.167a9.2,9.2,0,0,0-12.824,0c-.585.566-1.135,1.169-1.751,1.807M135.088,236.8a4.365,4.365,0,1,0-4.395,4.319,4.354,4.354,0,0,0,4.395-4.319" transform="translate(-102.971 -198.12)" fill="#b1f9ff"/>
          <path id="Trazado_181553" data-name="Trazado 181553" d="M128.025,352.876c1.011-1.007,2.015-2.005,3.016-3.005a6.93,6.93,0,0,0,.563-.589.989.989,0,0,0-.083-1.407.975.975,0,0,0-1.357-.025,4.629,4.629,0,0,0-.442.422c-1.443,1.441-2.893,2.876-4.322,4.332a1.163,1.163,0,0,1-.95.389c-.838-.028-1.677.007-2.515-.015a2.463,2.463,0,0,1-2.48-2.456c-.035-2.221-.01-4.442-.017-6.663a.78.78,0,0,1,.242-.6c1.1-1.078,2.16-2.2,3.3-3.237a7.047,7.047,0,0,1,9.269-.187c.967.815,1.814,1.773,2.736,2.644.276.261.141.4-.051.592-.613.6-1.225,1.211-1.827,1.827-.537.55-.587,1.109-.162,1.554a1.063,1.063,0,0,0,1.615-.1q4.074-4.051,8.135-8.115a8.3,8.3,0,0,1,11.735-.045c.708.7,1.68,1.274,2.013,2.165a8.539,8.539,0,0,1,.094,2.828c0,2.357.013,4.714,0,7.071A2.544,2.544,0,0,1,153.765,353q-12.612.007-25.224,0a.6.6,0,0,1-.515-.118" transform="translate(-103.153 -290.001)" fill="#f57c00"/>
          <path id="Trazado_181554" data-name="Trazado 181554" d="M59.228,40.008c.52,0,1.041.021,1.56-.007.395-.021.571.081.561.518-.026,1.062-.017,2.125,0,3.188,0,.334-.085.486-.457.483-1.967-.015-3.934-.01-5.9,0-.273,0-.388-.064-.418-.371a3.239,3.239,0,0,1,3.438-3.807c.407,0,.814,0,1.221,0" transform="translate(-47.109 -34.545)" fill="#45eefc"/>
          <path id="Trazado_181555" data-name="Trazado 181555" d="M409.766,44.194c-.949,0-1.9-.016-2.848.008-.392.01-.509-.131-.5-.508q.027-1.593,0-3.187c-.007-.39.137-.5.514-.5,1.039.022,2.08-.016,3.119.014a3.216,3.216,0,0,1,3.137,3.892c-.039.366-.3.271-.5.273-.972.008-1.944,0-2.916,0" transform="translate(-351.003 -34.556)" fill="#45eefc"/>
          <path id="Trazado_181556" data-name="Trazado 181556" d="M429.874,107.9a2.924,2.924,0,0,1-2.9-3.021,3.02,3.02,0,0,1,3.009-2.955,3.118,3.118,0,0,1,2.968,3.028,3,3,0,0,1-3.08,2.948m.048-2.035a.957.957,0,0,0,.975-.926.984.984,0,0,0-.959-.956.954.954,0,0,0-.923.907.917.917,0,0,0,.907.975" transform="translate(-368.762 -88.03)" fill="#030303"/>
          <path id="Trazado_181557" data-name="Trazado 181557" d="M426.977,156.65a2.939,2.939,0,0,1,2.959-2.971,3.042,3.042,0,0,1,3.017,3.024,3.081,3.081,0,0,1-2.964,2.955,3,3,0,0,1-3.013-3.008m3.9-.008a.956.956,0,0,0-.989-.911.931.931,0,0,0-.866.951.942.942,0,0,0,.907.917.966.966,0,0,0,.948-.958" transform="translate(-368.762 -132.726)" fill="#030303"/>
          <path id="Trazado_181558" data-name="Trazado 181558" d="M180.27,255.749a4.365,4.365,0,1,1-4.3-4.418,4.344,4.344,0,0,1,4.3,4.418m-4.35-2.374a2.329,2.329,0,1,0,2.314,2.326,2.308,2.308,0,0,0-2.314-2.326" transform="translate(-148.153 -217.065)" fill="#030303"/>
          <path id="Trazado_181559" data-name="Trazado 181559" d="M442.822,118.909a.917.917,0,0,1-.907-.975.954.954,0,0,1,.923-.907.984.984,0,0,1,.959.956.957.957,0,0,1-.975.926" transform="translate(-381.662 -101.071)" fill="#fdd835"/>
          <path id="Trazado_181560" data-name="Trazado 181560" d="M443.852,169.632a.966.966,0,0,1-.948.958.942.942,0,0,1-.907-.917.931.931,0,0,1,.866-.951.956.956,0,0,1,.989.911" transform="translate(-381.734 -145.717)" fill="#f57c00"/>
          <path id="Trazado_181561" data-name="Trazado 181561" d="M188.817,266.32a2.329,2.329,0,1,1-2.343,2.3,2.3,2.3,0,0,1,2.343-2.3" transform="translate(-161.05 -230.009)" fill="#fdd835"/>
        </g>
      </g>
    </g>
  </g>
</svg>
