<svg xmlns="http://www.w3.org/2000/svg" xmlns:xlink="http://www.w3.org/1999/xlink" width="152.098" height="241.2" viewBox="0 0 152.098 241.2">
  <defs>
    <clipPath id="clip-path">
      <rect id="Rectángulo_37900" data-name="Rectángulo 37900" width="65.316" height="80" fill="none"/>
    </clipPath>
  </defs>
  <g id="Grupo_120738" data-name="Grupo 120738" transform="translate(-621.286 -135)">
    <path id="Trazado_166805" data-name="Trazado 166805" d="M266.39,749.862a101.111,101.111,0,0,1-34.8-6.137l34.8,26.128,34.8-26.128a101.111,101.111,0,0,1-34.8,6.137" transform="translate(430.986 -393.652)" fill="#f57c00"/>
    <path id="Trazado_166809" data-name="Trazado 166809" d="M937.908,169.393a76.049,76.049,0,1,1-76.049-76.049,76.049,76.049,0,0,1,76.049,76.049" transform="translate(-164.524 41.656)" fill="#fff3bf"/>
    <circle id="Elipse_4273" data-name="Elipse 4273" cx="11" cy="11" r="11" transform="translate(686.574 327.863)" fill="#f57c00"/>
    <circle id="Elipse_4277" data-name="Elipse 4277" cx="7" cy="7" r="7" transform="translate(690.574 331.863)" fill="#ffd1a2"/>
    <path id="Trazado_182826" data-name="Trazado 182826" d="M16.246,15V3.625h3.719a4.317,4.317,0,0,1,2.785.766,2.759,2.759,0,0,1,.934,2.266,2.31,2.31,0,0,1-.453,1.41A2.937,2.937,0,0,1,22,9.016a2.638,2.638,0,0,1,1.457.98,2.814,2.814,0,0,1,.535,1.723A3.042,3.042,0,0,1,23,14.125a4.1,4.1,0,0,1-2.8.875Zm1.5-5.32v4.094h2.477a2.385,2.385,0,0,0,1.652-.543,1.907,1.907,0,0,0,.605-1.5q0-2.055-2.234-2.055Zm0-1.2h2.266a2.375,2.375,0,0,0,1.574-.493,1.654,1.654,0,0,0,.59-1.339,1.626,1.626,0,0,0-.547-1.366,2.686,2.686,0,0,0-1.664-.427H17.746Zm12.32-.633a4.331,4.331,0,0,0-.711-.055A1.9,1.9,0,0,0,27.426,9v6H25.98V6.547h1.406l.023.977a2.251,2.251,0,0,1,2.016-1.133,1.477,1.477,0,0,1,.641.109ZM32.965,15H31.52V6.547h1.445ZM31.4,4.3a.863.863,0,0,1,.215-.594.807.807,0,0,1,.637-.242.819.819,0,0,1,.641.242.854.854,0,0,1,.219.594.826.826,0,0,1-.219.586.834.834,0,0,1-.641.234.821.821,0,0,1-.637-.234A.834.834,0,0,1,31.4,4.3ZM36.848,15H35.4V3h1.445Zm3.883,0H39.285V3H40.73Zm1.93-4.3a4.993,4.993,0,0,1,.488-2.234A3.643,3.643,0,0,1,44.508,6.93,3.7,3.7,0,0,1,46.5,6.391a3.565,3.565,0,0,1,2.793,1.2,4.6,4.6,0,0,1,1.066,3.18v.1a5.036,5.036,0,0,1-.473,2.215,3.589,3.589,0,0,1-1.352,1.527,3.743,3.743,0,0,1-2.02.547,3.556,3.556,0,0,1-2.785-1.2A4.575,4.575,0,0,1,42.66,10.8Zm1.453.172a3.616,3.616,0,0,0,.652,2.258,2.211,2.211,0,0,0,3.5-.012A3.955,3.955,0,0,0,48.91,10.7a3.61,3.61,0,0,0-.66-2.254A2.1,2.1,0,0,0,46.5,7.578a2.075,2.075,0,0,0-1.727.852A3.925,3.925,0,0,0,44.113,10.867Z" transform="translate(664.285 247)" fill="#12263f"/>
    <g id="Grupo_120399" data-name="Grupo 120399" transform="translate(654.916 155)">
      <g id="Grupo_120398" data-name="Grupo 120398" clip-path="url(#clip-path)">
        <path id="Trazado_182549" data-name="Trazado 182549" d="M186.016,0a2.1,2.1,0,0,1,1.108,2.114c-.05,2.34-.007,4.681-.022,7.022a1.563,1.563,0,0,1-3.085.437,3.525,3.525,0,0,1-.035-.7c0-2.263.036-4.527-.019-6.788A2.055,2.055,0,0,1,185.078,0Z" transform="translate(-145.546)" fill="#020202"/>
        <path id="Trazado_182550" data-name="Trazado 182550" d="M221.148,109.4a29.642,29.642,0,0,1-.664,3.925c-1.262-.027-1.588.28-2.124,1.7q-4.849,12.886-18.489,14.84c-.763.11-.935-.078-.933-.849q.038-20.967.019-41.933c0-1.475,0-1.5,1.448-1.26q13.468,2.266,18.084,15.129c.414,1.16.745,1.432,1.975,1.482a19.421,19.421,0,0,1,.683,3.8c-1.045.232-1.579.79-1.557,1.628.021.823.552,1.345,1.56,1.535" transform="translate(-157.394 -67.808)" fill="#1fa4af"/>
        <path id="Trazado_182551" data-name="Trazado 182551" d="M118.821,90.134c-1.23-.049-1.561-.322-1.975-1.482q-4.6-12.875-18.084-15.129c-1.443-.243-1.448-.214-1.448,1.26q0,20.967-.019,41.933c0,.771.171.959.933.849q13.631-1.969,18.489-14.84c.535-1.423.862-1.73,2.124-1.7,1.13.631,1.393,1.221.944,2.431-3.626,9.777-10.544,15.692-20.891,17.152a25.307,25.307,0,1,1,20.939-32.871,1.665,1.665,0,0,1-1.013,2.4M94.188,95.58q0-9.956-.006-19.912c0-.746.337-1.806-.137-2.157-.513-.38-1.5.024-2.26.17a22.2,22.2,0,0,0-17.431,27.7c2.327,8.7,10.333,15.484,19.075,16.2.718.059.775-.157.774-.764q-.03-10.619-.013-21.239" transform="translate(-55.753 -55.511)" fill="#020202"/>
        <path id="Trazado_182552" data-name="Trazado 182552" d="M55.268,53.9a1.766,1.766,0,0,1,1.36.558c1.747,1.745,3.5,3.482,5.233,5.242a1.565,1.565,0,1,1-2.187,2.228c-1.78-1.749-3.537-3.52-5.294-5.292a1.5,1.5,0,0,1-.391-1.777,1.556,1.556,0,0,1,1.279-.959" transform="translate(-42.602 -42.645)" fill="#070707"/>
        <path id="Trazado_182553" data-name="Trazado 182553" d="M62.428,289.707a1.861,1.861,0,0,1-.59,1.258c-1.729,1.726-3.449,3.461-5.186,5.179a1.569,1.569,0,1,1-2.237-2.182c1.734-1.758,3.485-3.5,5.235-5.241a1.537,1.537,0,0,1,1.843-.41,1.583,1.583,0,0,1,.936,1.4" transform="translate(-42.605 -227.981)" fill="#070707"/>
        <path id="Trazado_182554" data-name="Trazado 182554" d="M187.169,336.836c0,1.195.007,2.39,0,3.584a1.6,1.6,0,0,1-1.537,1.786c-.947.017-1.582-.7-1.585-1.81q-.009-3.585,0-7.169c0-1.139.6-1.818,1.571-1.812s1.546.684,1.552,1.837c.006,1.195,0,2.39,0,3.585" transform="translate(-145.608 -262.206)" fill="#020202"/>
        <path id="Trazado_182555" data-name="Trazado 182555" d="M5.389,187.178c-1.221,0-2.442.01-3.662,0a1.567,1.567,0,1,1-.019-3.119q3.7-.016,7.4,0a1.562,1.562,0,1,1,.019,3.117c-1.246.017-2.494,0-3.74,0" transform="translate(0 -145.613)" fill="#010101"/>
        <path id="Trazado_182556" data-name="Trazado 182556" d="M299.384,187.16c-1.008-.19-1.539-.712-1.56-1.535-.022-.838.512-1.4,1.557-1.628,1.068.235,1.584.771,1.563,1.624-.02.834-.538,1.344-1.561,1.539" transform="translate(-235.63 -145.573)" fill="#070707"/>
        <path id="Trazado_182557" data-name="Trazado 182557" d="M105.949,107.663q0,10.62.013,21.239c0,.607-.056.823-.773.764-8.742-.719-16.748-7.5-19.075-16.2a22.2,22.2,0,0,1,17.431-27.7c.764-.145,1.747-.55,2.26-.17.474.351.136,1.411.137,2.157q.017,9.956.006,19.912" transform="translate(-67.514 -67.594)" fill="#fdd835"/>
      </g>
    </g>
  </g>
</svg>
