<svg xmlns="http://www.w3.org/2000/svg" xmlns:xlink="http://www.w3.org/1999/xlink" width="136" height="132" viewBox="0 0 136 132">
  <defs>
    <clipPath id="clip-path">
      <rect id="Rect치ngulo_38058" data-name="Rect치ngulo 38058" width="91.436" height="91.598" fill="none"/>
    </clipPath>
  </defs>
  <g id="Grupo_120736" data-name="Grupo 120736" transform="translate(-991.285 -1847)">
    <rect id="Rect치ngulo_37402" data-name="Rect치ngulo 37402" width="136" height="132" rx="66" transform="translate(991.285 1847)" fill="#fff"/>
    <g id="Grupo_120534" data-name="Grupo 120534" transform="translate(1013.285 1867.201)">
      <g id="Grupo_120533" data-name="Grupo 120533" transform="translate(0 0)" clip-path="url(#clip-path)">
        <path id="Trazado_182726" data-name="Trazado 182726" d="M41.955,0h7.32c.043.2.205.166.346.177A44.771,44.771,0,0,1,62.156,3.035a45.76,45.76,0,0,1,28.67,50,43.971,43.971,0,0,1-15.958,27.8c-13.121,10.639-28.053,13.542-43.937,8.02C13.752,82.886,3.653,70.367.485,52.375A12.634,12.634,0,0,0,0,49.454V41.777c.247-.063.17-.274.192-.434.167-1.175.3-2.356.5-3.526A45.7,45.7,0,0,1,38.956.491a11.635,11.635,0,0,0,3-.491m19.47,28.669q0,4.638,0,9.277c0,4.133.006,8.266-.007,12.4,0,.657-.022,1.058.807.527,1.274-.816,2.619-1.521,3.931-2.277q9.956-5.739,19.911-11.48c1.355-.781,1.327-.778.9-2.336a43.1,43.1,0,0,0-24.65-28.4c-.786-.339-.908-.188-.905.613.025,7.225.015,14.45.015,21.675M29.991,62.763V41.257q0-.312,0-.625c0-.383-.128-.477-.483-.258-.783.482-1.581.94-2.378,1.4Q16.6,47.842,6.079,53.91c-2,1.156-2.04,1.178-1.431,3.377A42.272,42.272,0,0,0,10.715,70.1a43.737,43.737,0,0,0,7.357,8.063A42.241,42.241,0,0,0,29.066,84.99c.906.4.925.36.925-.632q0-10.8,0-21.6M3.02,45.668a33.61,33.61,0,0,0,.347,5.242c.136.966.127.977,1,.476q5.715-3.294,11.424-6.6Q28.8,37.286,41.808,29.78c.239-.138.64-.221.612-.562-.022-.269-.389-.33-.616-.461Q35.092,24.874,28.376,21c-3.628-2.094-7.262-4.179-10.884-6.284a.861.861,0,0,0-1.236.146c-1.207,1.232-2.453,2.427-3.537,3.772a42.681,42.681,0,0,0-9.7,27.039M33.1,56.612a2.066,2.066,0,0,0-.079.316Q33.017,71.38,33,85.832c0,.541.262.7.709.837a41.3,41.3,0,0,0,9.878,1.679A42.636,42.636,0,0,0,71.7,79.515c.381-.3.4-.4-.027-.652q-5.836-3.346-11.654-6.721L38.648,59.8c-1.821-1.051-3.643-2.1-5.546-3.193M88.384,45.773a40.224,40.224,0,0,0-.342-5.41c-.067-.639-.187-.824-.762-.456-.175.111-.374.184-.554.288-4.389,2.547-8.771,5.106-13.167,7.641C66,52.195,58.428,56.53,50.88,60.907c-.645.374-1.8.582-1.769,1.255.025.576,1.163.857,1.826,1.24q6.2,3.588,12.413,7.168,5.28,3.051,10.553,6.116a.928.928,0,0,0,1.309-.206A42.994,42.994,0,0,0,82.7,66.908a42.493,42.493,0,0,0,5.684-21.134M58.34,34.8c.023-.271.042-.388.042-.5,0-9.518-.009-19.036.021-28.554,0-.79-.421-.932-.994-1.088A43.186,43.186,0,0,0,42.291,3.18a42.312,42.312,0,0,0-22.31,8.468c-.781.578-.511.73.1,1.075,2.579,1.467,5.144,2.956,7.713,4.44q5.973,3.45,11.944,6.9,6.05,3.493,12.1,6.979l6.5,3.752m.075,10.958c0-2.23-.018-4.46.013-6.689a1.1,1.1,0,0,0-.658-1.108Q52.044,34.7,46.354,31.369a1.093,1.093,0,0,0-1.282,0Q39.344,34.717,33.58,38a.971.971,0,0,0-.6.96q.029,6.734,0,13.468a.974.974,0,0,0,.583.969c3.841,2.194,7.678,4.4,11.492,6.635A1.155,1.155,0,0,0,46.42,60q5.653-3.3,11.341-6.543a1.157,1.157,0,0,0,.668-1.193c-.032-2.17-.013-4.341-.013-6.511" fill="#010202"/>
        <path id="Trazado_182727" data-name="Trazado 182727" d="M257.393,48.487c0-7.225.01-14.45-.015-21.675,0-.8.119-.952.9-.613a43.1,43.1,0,0,1,24.65,28.4c.429,1.558.456,1.554-.9,2.336q-9.954,5.742-19.91,11.48c-1.312.756-2.657,1.461-3.931,2.277-.829.531-.81.13-.808-.527.014-4.133.007-8.266.007-12.4q0-4.638,0-9.277" transform="translate(-195.968 -19.818)" fill="#45eefc"/>
        <path id="Trazado_182728" data-name="Trazado 182728" d="M43.72,191.233q0,10.8,0,21.6c0,.991-.018,1.027-.925.631A42.252,42.252,0,0,1,31.8,206.633a43.752,43.752,0,0,1-7.357-8.063,42.269,42.269,0,0,1-6.067-12.811c-.609-2.2-.57-2.222,1.431-3.377q10.521-6.074,21.049-12.137c.8-.459,1.595-.917,2.378-1.4.355-.219.481-.125.483.258q0,.312,0,.624v21.506" transform="translate(-13.73 -128.471)" fill="#45eefc"/>
        <path id="Trazado_182729" data-name="Trazado 182729" d="M12.644,91.993a42.681,42.681,0,0,1,9.7-27.039c1.083-1.345,2.33-2.54,3.537-3.772a.861.861,0,0,1,1.236-.146c3.622,2.105,7.256,4.19,10.884,6.284q6.716,3.877,13.429,7.761c.227.131.594.192.616.461.027.341-.373.424-.612.562Q38.427,83.618,25.412,91.114q-5.714,3.3-11.424,6.6c-.869.5-.86.49-1-.476a33.6,33.6,0,0,1-.347-5.242" transform="translate(-9.625 -46.324)" fill="#1fa4af"/>
        <path id="Trazado_182730" data-name="Trazado 182730" d="M138.423,237.267c1.9,1.1,3.725,2.143,5.546,3.193L165.342,252.8q5.826,3.363,11.654,6.721c.43.247.408.353.027.651A42.634,42.634,0,0,1,148.912,269a41.317,41.317,0,0,1-9.878-1.679c-.447-.132-.71-.3-.709-.837q.024-14.452.018-28.9a2.108,2.108,0,0,1,.08-.316" transform="translate(-105.322 -180.655)" fill="#106f77"/>
        <path id="Trazado_182731" data-name="Trazado 182731" d="M245.1,172.524a42.494,42.494,0,0,1-5.684,21.134,43,43,0,0,1-7.487,9.573.928.928,0,0,1-1.309.206q-5.265-3.078-10.553-6.116-6.206-3.585-12.413-7.168c-.663-.383-1.8-.664-1.826-1.24-.029-.673,1.124-.881,1.769-1.256,7.548-4.377,15.12-8.712,22.678-13.071,4.4-2.535,8.778-5.094,13.167-7.641.18-.1.379-.177.554-.288.575-.367.7-.183.762.456a40.266,40.266,0,0,1,.342,5.41" transform="translate(-156.718 -126.75)" fill="#1fa4af"/>
        <path id="Trazado_182732" data-name="Trazado 182732" d="M120.568,44.474l-6.5-3.752q-6.052-3.49-12.1-6.98-5.973-3.448-11.943-6.9c-2.569-1.484-5.135-2.973-7.713-4.44-.606-.345-.877-.5-.1-1.075a42.9,42.9,0,0,1,37.428-7c.573.155,1,.3.994,1.088-.03,9.518-.02,19.036-.021,28.554,0,.117-.019.234-.042.505" transform="translate(-62.228 -9.676)" fill="#106f77"/>
        <path id="Trazado_182733" data-name="Trazado 182733" d="M163.668,145.194c0,2.171-.019,4.341.013,6.511a1.157,1.157,0,0,1-.668,1.193q-5.692,3.234-11.341,6.543a1.155,1.155,0,0,1-1.362.033c-3.814-2.24-7.651-4.441-11.492-6.635a.974.974,0,0,1-.583-.969q.028-6.734,0-13.468a.971.971,0,0,1,.6-.96q5.76-3.293,11.492-6.637a1.094,1.094,0,0,1,1.282,0q5.69,3.327,11.416,6.591a1.1,1.1,0,0,1,.658,1.108c-.031,2.229-.013,4.459-.013,6.689" transform="translate(-105.252 -99.438)" fill="#b1f9ff"/>
      </g>
    </g>
  </g>
</svg>
