<svg xmlns="http://www.w3.org/2000/svg" xmlns:xlink="http://www.w3.org/1999/xlink" width="136" height="132" viewBox="0 0 136 132">
  <defs>
    <clipPath id="clip-path">
      <rect id="Rect치ngulo_38060" data-name="Rect치ngulo 38060" width="85.38" height="85.402" fill="none"/>
    </clipPath>
  </defs>
  <g id="Grupo_120735" data-name="Grupo 120735" transform="translate(-475.285 -1847)">
    <rect id="Rect치ngulo_38059" data-name="Rect치ngulo 38059" width="136" height="132" rx="66" transform="translate(475.285 1847)" fill="#fff"/>
    <g id="Grupo_120535" data-name="Grupo 120535" transform="translate(500.313 1870.299)">
      <g id="Grupo_120536" data-name="Grupo 120536" clip-path="url(#clip-path)">
        <path id="Trazado_182734" data-name="Trazado 182734" d="M296.378,288.057a6.043,6.043,0,0,0-.605,1.76,9.777,9.777,0,0,1-9.075,6.4c-4.138.026-8.276.013-12.415,0a2.667,2.667,0,1,1,.011-5.329c3.972-.01,7.943,0,11.915,0a4.476,4.476,0,0,0,4.832-4.818q.005-5.707,0-11.415,0-2.744,1.983-3.247c1.413-.357,2.525.3,3.353,1.972Z" transform="translate(-210.997 -210.858)" fill="#010101"/>
        <path id="Trazado_182735" data-name="Trazado 182735" d="M22.883,0a2.845,2.845,0,0,1,2.033,2.528,2.629,2.629,0,0,1-2.732,2.8c-3.915.015-7.831,0-11.746,0-3.317,0-5.062,1.753-5.062,5.086q0,5.748,0,11.5a2.681,2.681,0,1,1-5.333.008q-.005-5.956,0-11.913A9.751,9.751,0,0,1,8.128.162C8.24.139,8.345.133,8.376,0Z" transform="translate(-0.029)" fill="#010101"/>
        <path id="Trazado_182736" data-name="Trazado 182736" d="M296.339,23.01c-.174.031-.171.2-.234.311a2.692,2.692,0,0,1-3.115,1.495,2.728,2.728,0,0,1-1.985-2.745Q291,16.2,291,10.325c0-3.207-1.783-4.988-4.992-4.989H274.6c-1.645,0-2.781-.718-3.072-1.992A2.664,2.664,0,0,1,273.244.129c.039-.014.058-.085.086-.129h14.506c.055.05.1.136.166.146a9.488,9.488,0,0,1,7.568,5.884,23.346,23.346,0,0,1,.769,2.307Z" transform="translate(-210.959)" fill="#010101"/>
        <path id="Trazado_182737" data-name="Trazado 182737" d="M79.938,223.525h20.915c2.831,0,5.663-.014,8.494.013a2.612,2.612,0,0,1,2.522,2.035,2.692,2.692,0,0,1-1.276,2.919,3.115,3.115,0,0,1-1.6.371c-1.194,0-2.389.019-3.583-.011-.476-.012-.615.139-.608.612.025,1.777.02,3.555.008,5.333a6.163,6.163,0,0,1-6.483,6.482q-18.416.017-36.831,0a6.153,6.153,0,0,1-6.453-6.427c-.014-1.75-.024-3.5.01-5.249.011-.562-.115-.778-.723-.755-1.248.047-2.5.045-3.749,0a2.666,2.666,0,0,1-.869-5.189,4.038,4.038,0,0,1,1.4-.134q14.413,0,28.827,0m-.016,5.34c-6.251,0-12.5.008-18.753-.012-.592,0-.827.106-.807.765.05,1.693.012,3.389.019,5.084,0,1.036.2,1.24,1.21,1.241q18.336.005,36.672,0c1.006,0,1.2-.209,1.206-1.247.007-1.611-.041-3.224.021-4.833.03-.78-.149-1.023-.982-1.018-6.2.04-12.391.022-18.586.022" transform="translate(-37.23 -173.712)" fill="#020202"/>
        <path id="Trazado_182738" data-name="Trazado 182738" d="M137.941,119.774c-.33.027-.66.078-.99.078q-20.581.006-41.162,0c-.33,0-.66-.051-.989-.079a2.925,2.925,0,0,0,2.033-3.08c-.026-3.832-.01-7.664-.008-11.5,0-1.194.163-1.359,1.342-1.359q18.2,0,36.405,0c1.177,0,1.342.168,1.343,1.359,0,3.832.02,7.664-.009,11.5a2.937,2.937,0,0,0,2.034,3.081" transform="translate(-73.675 -80.697)" fill="#b1f9ff"/>
        <path id="Trazado_182739" data-name="Trazado 182739" d="M126.343,101.129a2.937,2.937,0,0,1-2.034-3.081c.029-3.832.011-7.664.009-11.5,0-1.191-.166-1.359-1.343-1.359q-18.2,0-36.405,0c-1.179,0-1.341.166-1.342,1.359,0,3.832-.018,7.664.008,11.5a2.925,2.925,0,0,1-2.033,3.08,2.685,2.685,0,0,1-3.312-2.845c-.011-4.029-.025-8.059,0-12.088a6.119,6.119,0,0,1,6.372-6.337q18.506-.026,37.013,0a6.119,6.119,0,0,1,6.373,6.338c.03,4.029.016,8.058,0,12.088a2.685,2.685,0,0,1-3.312,2.846" transform="translate(-62.076 -62.052)" fill="#020202"/>
        <path id="Trazado_182740" data-name="Trazado 182740" d="M15.3,296.329c-2.058-.107-4.6.224-7.107-.155A9.718,9.718,0,0,1,.02,286.737c-.035-4.167-.015-8.335-.006-12.5a2.631,2.631,0,0,1,2.668-2.786,2.644,2.644,0,0,1,2.661,2.8c.01,3.973,0,7.946,0,11.919a4.475,4.475,0,0,0,4.824,4.827q5.876,0,11.752,0a2.681,2.681,0,1,1,.012,5.333c-2.056,0-4.112,0-6.633,0" transform="translate(0 -210.96)" fill="#010101"/>
        <path id="Trazado_182741" data-name="Trazado 182741" d="M123.365,247.423l4.54,0c4.481,0,9.264.007,14.046-.024.833-.005,1.012.238.982,1.018-.062,1.609-.014,3.222-.021,4.833,0,1.038-.2,1.246-1.206,1.247q-18.336.005-36.672,0c-1.013,0-1.206-.2-1.21-1.241-.007-1.695.031-3.391-.019-5.084-.019-.658.215-.767.807-.765,6.251.02,12.5.012,18.753.012" transform="translate(-80.673 -192.271)" fill="#b1f9ff"/>
      </g>
    </g>
  </g>
</svg>
