<svg xmlns="http://www.w3.org/2000/svg" xmlns:xlink="http://www.w3.org/1999/xlink" width="152.098" height="240.825" viewBox="0 0 152.098 240.825">
  <defs>
    <clipPath id="clip-path">
      <rect id="Rectángulo_37901" data-name="Rectángulo 37901" width="77.084" height="48.303" fill="none"/>
    </clipPath>
  </defs>
  <g id="Grupo_120741" data-name="Grupo 120741" transform="translate(-824.364 -854.375)">
    <path id="Trazado_182597" data-name="Trazado 182597" d="M266.39,749.862a101.111,101.111,0,0,1-34.8-6.137l34.8,26.128,34.8-26.128a101.111,101.111,0,0,1-34.8,6.137" transform="translate(637.101 325.348)" fill="#26ccda"/>
    <path id="Trazado_182594" data-name="Trazado 182594" d="M1626.761,169.393a76.049,76.049,0,1,1-76.049-76.049,76.049,76.049,0,0,1,76.049,76.049" transform="translate(-650.299 761.031)" fill="#b1f9ff"/>
    <circle id="Elipse_5063" data-name="Elipse 5063" cx="11" cy="11" r="11" transform="translate(892.688 1046.863)" fill="#26ccda"/>
    <circle id="Elipse_5064" data-name="Elipse 5064" cx="7" cy="7" r="7" transform="translate(896.688 1050.863)" fill="#b1f9ff"/>
    <path id="Trazado_182831" data-name="Trazado 182831" d="M23.829,6.339h-3.92V17H17.272V6.339H13.405V4.2H23.829ZM27.846,17H25.3V7.49h2.549Zm-2.7-11.971a1.251,1.251,0,0,1,.382-.94,1.648,1.648,0,0,1,2.079,0,1.244,1.244,0,0,1,.387.94,1.247,1.247,0,0,1-.391.949,1.629,1.629,0,0,1-2.065,0A1.247,1.247,0,0,1,25.147,5.029ZM32.275,7.49l.079,1.1a3.32,3.32,0,0,1,2.733-1.274,2.759,2.759,0,0,1,2.25.888,4.142,4.142,0,0,1,.756,2.654V17h-2.54V10.9A1.654,1.654,0,0,0,35.2,9.728a1.572,1.572,0,0,0-1.169-.366,1.747,1.747,0,0,0-1.608.916V17h-2.54V7.49ZM43.06,5.152V7.49h1.626V9.354H43.06V14.1a1.133,1.133,0,0,0,.2.756,1.015,1.015,0,0,0,.773.229,4.051,4.051,0,0,0,.747-.062v1.925a5.229,5.229,0,0,1-1.538.229,2.425,2.425,0,0,1-2.725-2.7V9.354H39.131V7.49H40.52V5.152ZM51.611,17a2.821,2.821,0,0,1-.255-.853,3.073,3.073,0,0,1-2.4,1.028,3.376,3.376,0,0,1-2.316-.809,2.6,2.6,0,0,1-.918-2.039,2.687,2.687,0,0,1,1.121-2.32,5.529,5.529,0,0,1,3.239-.817h1.169v-.545a1.567,1.567,0,0,0-.338-1.055,1.331,1.331,0,0,0-1.068-.4,1.513,1.513,0,0,0-1.006.308,1.045,1.045,0,0,0-.365.844h-2.54a2.551,2.551,0,0,1,.51-1.529,3.37,3.37,0,0,1,1.441-1.1,5.253,5.253,0,0,1,2.092-.4,4.15,4.15,0,0,1,2.791.883A3.09,3.09,0,0,1,53.8,10.681V14.8a4.546,4.546,0,0,0,.378,2.048V17Zm-2.1-1.767a2.188,2.188,0,0,0,1.037-.25,1.645,1.645,0,0,0,.7-.672V12.676H50.3q-1.907,0-2.03,1.318l-.009.149a1.017,1.017,0,0,0,.334.782A1.3,1.3,0,0,0,49.511,15.233ZM60.9,14.372a.818.818,0,0,0-.461-.734,5.241,5.241,0,0,0-1.481-.479q-3.393-.712-3.393-2.883a2.613,2.613,0,0,1,1.05-2.114,4.237,4.237,0,0,1,2.747-.848,4.56,4.56,0,0,1,2.9.853,2.687,2.687,0,0,1,1.085,2.215H60.8a1.229,1.229,0,0,0-.352-.9,1.488,1.488,0,0,0-1.1-.356,1.52,1.52,0,0,0-.993.29.916.916,0,0,0-.352.738.783.783,0,0,0,.4.681,4.114,4.114,0,0,0,1.349.448,11.019,11.019,0,0,1,1.6.426,2.628,2.628,0,0,1,2.013,2.558,2.481,2.481,0,0,1-1.116,2.1,4.815,4.815,0,0,1-2.883.8,5.029,5.029,0,0,1-2.123-.426,3.561,3.561,0,0,1-1.455-1.169,2.716,2.716,0,0,1-.527-1.6h2.408a1.326,1.326,0,0,0,.5,1.037,1.987,1.987,0,0,0,1.248.36,1.839,1.839,0,0,0,1.1-.277A.861.861,0,0,0,60.9,14.372Z" transform="translate(864.704 967)" fill="#12263f"/>
    <g id="Grupo_120416" data-name="Grupo 120416" transform="translate(865.508 893.051)">
      <g id="Grupo_120400" data-name="Grupo 120400" clip-path="url(#clip-path)">
        <path id="Trazado_182558" data-name="Trazado 182558" d="M0,12.262c.709-1.575,2.163-2.346,3.507-3.228.36-.236.492-.394.174-.787A2.087,2.087,0,0,1,3.32,6.892c0-1.48-.009-2.96,0-4.44A2.233,2.233,0,0,1,5.694.02q5.079-.042,10.159,0a2.233,2.233,0,0,1,2.355,2.445c.012,1.48,0,2.96,0,4.44a2.241,2.241,0,0,1-.407,1.417c-.217.283-.2.411.1.634,2.064,1.512,2.05,1.51,4.158.05.348-.241.412-.39.145-.736a2.137,2.137,0,0,1-.376-1.351c0-1.48-.008-2.96,0-4.44A2.249,2.249,0,0,1,24.257.017Q29.3-.018,34.341.02a2.233,2.233,0,0,1,2.381,2.419c.014,1.48,0,2.96,0,4.44A2.292,2.292,0,0,1,36.3,8.364c-.218.276-.171.428.112.573a1.764,1.764,0,0,1,.188.124c2.079,1.429,2.074,1.424,4.091-.124.263-.2.289-.322.088-.583a2.327,2.327,0,0,1-.424-1.488c.006-1.455-.005-2.91,0-4.364A2.259,2.259,0,0,1,42.825.016q4.967-.03,9.933,0a2.266,2.266,0,0,1,2.481,2.478c.012,1.455,0,2.91,0,4.364a1.979,1.979,0,0,1-.313,1.291c-.377.464-.238.687.217.95.647.374,1.24,1.089,1.894,1.136s1.235-.757,1.887-1.119c.482-.268.62-.524.229-1a1.867,1.867,0,0,1-.293-1.22c0-1.48-.009-2.96,0-4.44A2.231,2.231,0,0,1,61.237.02q5.079-.041,10.159,0a2.231,2.231,0,0,1,2.356,2.444c.012,1.48,0,2.96,0,4.44a2.124,2.124,0,0,1-.408,1.416c-.3.363-.106.489.175.672.63.41,1.239.851,1.867,1.263a3.589,3.589,0,0,1,1.694,3.234c-.014,5.443-.006,10.886-.006,16.329q0,6.847,0,13.7a4.516,4.516,0,0,1-3.416,4.635,5.82,5.82,0,0,1-1.565.147c-3.863.005-7.726,0-11.589.006a4.762,4.762,0,0,1-3.17-.942.388.388,0,0,0-.581.01,4.779,4.779,0,0,1-3.173.931q-5.757-.013-11.514,0a4.835,4.835,0,0,1-3.244-.942.388.388,0,0,0-.581.01,4.682,4.682,0,0,1-3.1.931q-5.87-.008-11.74,0a4.612,4.612,0,0,1-3.032-.9.473.473,0,0,0-.705.01,4.009,4.009,0,0,1-2.51.863c-4.239.008-8.478.047-12.717-.01A4.294,4.294,0,0,1,.224,45.13C.178,45,.193,44.818,0,44.776ZM37.03,29.2c0-3.033-.012-6.067.011-9.1,0-.508-.1-.679-.65-.677q-7.108.033-14.216,0c-.54,0-.655.163-.654.675q.026,9.025,0,18.05c0,.51.111.679.653.676q7.108-.033,14.216,0c.543,0,.655-.166.651-.675-.023-2.983-.012-5.967-.012-8.95m3.017-.112c0,3.033.01,6.066-.01,9.1,0,.474.1.639.613.637q7.145-.03,14.29,0c.512,0,.614-.167.613-.639q-.021-9.062,0-18.124c0-.478-.11-.638-.617-.636q-7.145.029-14.29,0c-.514,0-.613.171-.61.64.019,3.008.01,6.016.01,9.024M18.514,29.2c0-3.059-.009-6.118.01-9.177,0-.443-.086-.6-.57-.6q-7.184.028-14.369,0c-.462,0-.585.121-.583.584q.024,9.1,0,18.2c0,.51.158.614.633.611q4.024-.032,8.05,0c.541.005.733-.1.72-.691-.04-1.955-.015-3.911-.015-5.867a1.749,1.749,0,0,1,.811-1.737,1.49,1.49,0,0,1,2.194,1.46q.045,3.084,0,6.168c-.008.538.165.7.682.664a12.126,12.126,0,0,1,1.8,0c.548.045.654-.163.651-.672-.024-2.984-.012-5.968-.012-8.952m40.05-.092c0,3.01.012,6.019-.011,9.029,0,.516.125.685.663.679q4.1-.039,8.2,0c.485,0,.646-.122.639-.625-.027-2.006-.016-4.013-.009-6.019,0-1.142.613-1.857,1.539-1.833.9.023,1.465.715,1.471,1.826.008,1.455-.016,2.91.009,4.364.013.743-.334,1.759.156,2.152.463.372,1.44.081,2.187.134.53.038.671-.144.67-.669q-.026-9.029,0-18.057c0-.546-.181-.656-.685-.654q-7.073.026-14.146,0c-.586,0-.7.184-.695.725.025,2.984.012,5.969.012,8.953M10.792,16.417c2.383,0,4.767-.013,7.15.011.466,0,.606-.121.583-.587a8.433,8.433,0,0,0-.112-2.748c-.343-.792-1.438-1.1-2.181-1.645-.1-.075-.21-.137-.309-.213-.662-.51-1.528-.8-1.8-1.729-.064-.223-.29-.158-.453-.158q-2.9-.007-5.8,0c-.165,0-.4-.067-.466.139a3.555,3.555,0,0,1-2.177,1.955,3.661,3.661,0,0,0-2.259,4.313c.091.565.21.681.738.674,2.358-.027,4.717-.012,7.075-.012m18.515,0c2.383,0,4.766-.013,7.149.011.465,0,.607-.12.584-.586a8.484,8.484,0,0,0-.112-2.748c-.342-.794-1.437-1.1-2.178-1.646-.121-.089-.253-.164-.372-.255-.642-.494-1.481-.783-1.733-1.685-.062-.223-.289-.16-.452-.16q-2.9-.007-5.794,0c-.166,0-.4-.067-.467.137-.34,1.083-1.394,1.38-2.162,1.987-.705.557-1.79.836-2.12,1.6a8.836,8.836,0,0,0-.129,2.743c-.033.526.17.615.638.611,2.383-.02,4.766-.009,7.149-.009m18.374,0c2.383,0,4.766-.023,7.149.016.615.01.765-.184.726-.755a17.823,17.823,0,0,1,0-2.106.924.924,0,0,0-.493-.915c-.987-.64-1.952-1.315-2.927-1.975a1.828,1.828,0,0,1-.86-.909c-.11-.375-.321-.434-.657-.432-1.881.011-3.763,0-5.644.009-.186,0-.454-.1-.533.148-.348,1.079-1.4,1.38-2.17,1.978-.691.534-1.65.872-2.08,1.555-.453.719-.073,1.756-.151,2.648-.049.568.1.766.72.755,2.307-.04,4.615-.016,6.923-.016m18.6,0c2.358,0,4.717-.024,7.074.016.619.011.76-.19.721-.756a15.484,15.484,0,0,1,0-2.03,1.047,1.047,0,0,0-.564-1.04c-.967-.626-1.913-1.285-2.867-1.93a1.807,1.807,0,0,1-.86-.909c-.109-.384-.326-.429-.658-.428-1.881.009-3.763,0-5.645.008-.185,0-.451-.095-.53.153-.337,1.052-1.351,1.356-2.109,1.936-.714.546-1.7.9-2.139,1.6-.458.738-.074,1.805-.149,2.724-.042.521.116.677.652.67,2.358-.03,4.716-.013,7.074-.013M10.763,41.825h-6.4c-1.357,0-1.357,0-1.356,1.372,0,1.622.471,2.087,2.114,2.088q5.3,0,10.609,0c2.591,0,2.776-.2,2.794-2.764,0-.551-.112-.72-.693-.711-2.357.037-4.715.015-7.073.015m18.51,0H22.954c-1.421,0-1.421,0-1.42,1.386,0,1.595.466,2.072,2.041,2.073q5.341,0,10.683,0c2.589,0,2.8-.227,2.786-2.847,0-.5-.131-.629-.624-.624-2.382.025-4.765.011-7.147.011m18.559,0h-6.47c-1.314,0-1.314,0-1.315,1.339,0,1.675.449,2.121,2.144,2.121H52.8c2.55,0,2.755-.223,2.758-2.8,0-.512-.113-.681-.654-.674-2.357.031-4.715.013-7.072.013m18.506,0H60.017c-1.456,0-1.456,0-1.455,1.423,0,1.539.483,2.035,2,2.036q5.343,0,10.685,0c2.615,0,2.826-.228,2.829-2.817,0-.536-.152-.661-.669-.655-2.357.028-4.715.012-7.073.012M10.741,6.334c1.3,0,2.607-.014,3.91.008.416.007.576-.107.557-.546-.033-.75-.027-1.5,0-2.255.012-.381-.092-.525-.5-.523q-3.948.023-7.9,0c-.427,0-.493.182-.483.543.021.7.037,1.405,0,2.1-.03.514.114.7.657.681,1.252-.039,2.506-.012,3.76-.012M29.28,3.025c-1.254,0-2.507.022-3.76-.011-.5-.013-.724.094-.684.649a16.44,16.44,0,0,1,0,2.029c-.024.466.083.658.606.652,2.557-.027,5.114-.021,7.671,0,.437,0,.636-.082.608-.574a18.592,18.592,0,0,1,0-2.18c.029-.494-.174-.579-.608-.571-1.278.024-2.557.008-3.835.008M47.771,6.334c1.3,0,2.607-.014,3.911.008.416.007.576-.109.557-.547-.033-.75-.027-1.5,0-2.255.013-.385-.1-.523-.5-.521q-3.948.022-7.9,0c-.433,0-.488.188-.479.545.02.7.037,1.405,0,2.1-.031.515.115.7.657.68,1.252-.039,2.506-.012,3.76-.012m18.534,0c1.278,0,2.557-.014,3.835.008.428.007.645-.067.614-.569-.044-.724-.029-1.454,0-2.18.014-.4-.071-.58-.527-.576-2.607.019-5.214.015-7.821,0-.363,0-.549.064-.532.489.031.776.029,1.554,0,2.33-.015.41.145.507.524.5,1.3-.018,2.607-.007,3.91-.007" transform="translate(0 0)" fill="#030202"/>
        <path id="Trazado_182559" data-name="Trazado 182559" d="M129.619,112.744c0,2.983-.012,5.967.012,8.95,0,.509-.108.678-.651.675q-7.108-.033-14.216,0c-.542,0-.654-.167-.653-.677q.026-9.025,0-18.05c0-.512.114-.677.654-.675q7.108.032,14.216,0c.545,0,.654.169.65.677-.023,3.033-.011,6.067-.011,9.1" transform="translate(-92.588 -83.546)" fill="#ff19a5"/>
        <path id="Trazado_182560" data-name="Trazado 182560" d="M212.285,112.638c0-3.008.009-6.016-.01-9.024,0-.469.1-.642.61-.64q7.145.03,14.29,0c.507,0,.618.158.617.636q-.022,9.062,0,18.124c0,.473-.1.641-.614.639q-7.145-.03-14.29,0c-.509,0-.616-.162-.613-.636.02-3.033.01-6.066.01-9.1" transform="translate(-172.237 -83.552)" fill="#fdd835"/>
        <path id="Trazado_182561" data-name="Trazado 182561" d="M31.417,112.747c0,2.984-.012,5.968.012,8.952,0,.509-.1.718-.651.672a12.149,12.149,0,0,0-1.8,0c-.517.035-.69-.126-.682-.664q.044-3.084,0-6.168a1.49,1.49,0,0,0-2.194-1.46,1.748,1.748,0,0,0-.811,1.737c0,1.956-.025,3.912.015,5.867.012.588-.18.7-.72.691q-4.024-.04-8.05,0c-.475,0-.635-.1-.633-.611q.028-9.1,0-18.2c0-.463.121-.586.583-.584q7.185.025,14.369,0c.484,0,.573.157.57.6-.018,3.059-.01,6.118-.01,9.177m-3.132-3.224a1.526,1.526,0,0,0-1.48-1.479,1.556,1.556,0,0,0-1.488,1.558,1.509,1.509,0,0,0,1.53,1.425,1.477,1.477,0,0,0,1.437-1.5" transform="translate(-12.903 -83.549)" fill="#00ebff"/>
        <path id="Trazado_182562" data-name="Trazado 182562" d="M310.447,112.682c0-2.985.013-5.969-.012-8.953,0-.541.109-.728.695-.725q7.073.038,14.146,0c.5,0,.687.108.685.654q-.029,9.029,0,18.057c0,.525-.14.707-.67.669-.747-.053-1.724.238-2.187-.134-.49-.393-.143-1.41-.156-2.152-.025-1.454,0-2.909-.009-4.364-.006-1.111-.571-1.8-1.471-1.826-.925-.024-1.535.69-1.538,1.833-.007,2.006-.018,4.013.009,6.019.007.5-.154.628-.639.625q-4.1-.032-8.2,0c-.537.005-.666-.164-.663-.68.023-3.009.011-6.019.011-9.029m12.485-3.081a1.5,1.5,0,0,0-2.992-.094,1.5,1.5,0,1,0,2.992.094" transform="translate(-251.883 -83.575)" fill="#333"/>
        <path id="Trazado_182563" data-name="Trazado 182563" d="M23.273,56.589c-2.358,0-4.717-.015-7.075.012-.528.006-.647-.109-.738-.674a3.661,3.661,0,0,1,2.259-4.314A3.555,3.555,0,0,0,19.9,49.659c.064-.206.3-.138.466-.139q2.9-.006,5.8,0c.164,0,.389-.064.453.158.267.926,1.134,1.219,1.8,1.729.1.076.208.139.309.213.742.55,1.837.853,2.181,1.645a8.428,8.428,0,0,1,.112,2.748c.022.465-.117.591-.583.587-2.383-.024-4.767-.011-7.15-.011" transform="translate(-12.481 -40.172)" fill="#fdfdfd"/>
        <path id="Trazado_182564" data-name="Trazado 182564" d="M121.693,56.589c-2.383,0-4.766-.011-7.149.009-.468,0-.671-.086-.638-.611a8.842,8.842,0,0,1,.129-2.743c.329-.766,1.415-1.044,2.12-1.6.768-.607,1.822-.9,2.162-1.987.064-.2.3-.136.467-.137q2.9-.006,5.794,0c.164,0,.39-.063.452.16.253.9,1.091,1.191,1.734,1.685.119.091.251.166.371.255.742.55,1.837.852,2.179,1.646a8.484,8.484,0,0,1,.112,2.748c.022.466-.119.591-.584.586-2.383-.024-4.766-.011-7.149-.011" transform="translate(-92.385 -40.171)" fill="#fdfdfd"/>
        <path id="Trazado_182565" data-name="Trazado 182565" d="M219.6,56.56c-2.308,0-4.616-.024-6.923.016-.617.011-.769-.187-.72-.755.078-.893-.3-1.93.151-2.648.43-.683,1.389-1.021,2.08-1.555.774-.6,1.822-.9,2.17-1.978.079-.244.347-.147.533-.148,1.881-.007,3.763,0,5.644-.009.336,0,.547.057.657.432a1.828,1.828,0,0,0,.86.909c.975.66,1.94,1.335,2.927,1.975a.925.925,0,0,1,.493.915,17.787,17.787,0,0,0,0,2.106c.039.571-.111.766-.725.756-2.382-.039-4.766-.016-7.149-.016" transform="translate(-171.921 -40.143)" fill="#fdfdfd"/>
        <path id="Trazado_182566" data-name="Trazado 182566" d="M317.84,56.563c-2.358,0-4.717-.017-7.074.013-.536.007-.694-.149-.652-.67.075-.919-.309-1.986.149-2.724.436-.7,1.425-1.053,2.14-1.6.758-.58,1.773-.884,2.109-1.936.079-.248.345-.152.53-.153,1.881-.006,3.763,0,5.645-.008.331,0,.549.044.658.428a1.807,1.807,0,0,0,.86.909c.955.645,1.9,1.3,2.867,1.93a1.046,1.046,0,0,1,.564,1.04,15.522,15.522,0,0,0,0,2.03c.039.566-.1.767-.721.756-2.357-.041-4.716-.016-7.074-.016" transform="translate(-251.558 -40.146)" fill="#fdfdfd"/>
        <path id="Trazado_182567" data-name="Trazado 182567" d="M23.717,221.692c2.358,0,4.715.021,7.073-.015.58-.009.7.16.693.711-.018,2.562-.2,2.764-2.794,2.764q-5.3,0-10.609,0c-1.643,0-2.112-.466-2.114-2.088,0-1.372,0-1.372,1.356-1.372h6.4" transform="translate(-12.954 -179.866)" fill="#fdfdfd"/>
        <path id="Trazado_182568" data-name="Trazado 182568" d="M121.907,221.711c2.382,0,4.765.014,7.147-.011.492-.005.622.128.624.624.009,2.62-.2,2.847-2.786,2.847q-5.342,0-10.683,0c-1.575,0-2.041-.478-2.041-2.073,0-1.386,0-1.386,1.42-1.386h6.32" transform="translate(-92.634 -179.884)" fill="#fdfdfd"/>
        <path id="Trazado_182569" data-name="Trazado 182569" d="M220.112,221.7c2.357,0,4.715.017,7.072-.013.541-.007.654.162.654.674,0,2.576-.207,2.8-2.758,2.8H214.471c-1.7,0-2.145-.446-2.144-2.121,0-1.338,0-1.338,1.314-1.338h6.47" transform="translate(-172.28 -179.875)" fill="#fdfdfd"/>
        <path id="Trazado_182570" data-name="Trazado 182570" d="M318.265,221.7c2.358,0,4.716.016,7.073-.012.518-.006.67.12.669.655,0,2.589-.213,2.817-2.829,2.817q-5.343,0-10.685,0c-1.522,0-2-.5-2-2.036,0-1.423,0-1.423,1.455-1.423Z" transform="translate(-251.927 -179.878)" fill="#fdfdfd"/>
        <path id="Trazado_182571" data-name="Trazado 182571" d="M37.93,19.318c-1.253,0-2.508-.027-3.76.012-.542.017-.687-.167-.657-.681.041-.7.025-1.4,0-2.1-.011-.361.055-.545.483-.543q3.948.025,7.9,0c.406,0,.511.142.5.523-.025.751-.031,1.5,0,2.255.019.439-.141.553-.557.546-1.3-.022-2.607-.008-3.91-.008" transform="translate(-27.189 -12.984)" fill="#ffa726"/>
        <path id="Trazado_182572" data-name="Trazado 182572" d="M136.1,15.993c1.278,0,2.557.015,3.835-.008.434-.008.638.077.608.571a18.588,18.588,0,0,0,0,2.179c.029.492-.171.577-.608.575-2.557-.017-5.114-.023-7.671,0-.523.005-.63-.186-.606-.652a16.443,16.443,0,0,0,0-2.029c-.04-.555.182-.663.684-.65,1.253.032,2.506.011,3.76.011" transform="translate(-106.825 -12.967)" fill="#ffa726"/>
        <path id="Trazado_182573" data-name="Trazado 182573" d="M234.263,19.316c-1.254,0-2.508-.027-3.76.013-.542.017-.687-.165-.657-.68.042-.7.024-1.4,0-2.1-.01-.356.045-.547.479-.545q3.948.026,7.9,0c.4,0,.516.136.5.521-.025.751-.031,1.5,0,2.255.019.438-.141.554-.557.547-1.3-.022-2.607-.008-3.91-.008" transform="translate(-186.492 -12.982)" fill="#ffa726"/>
        <path id="Trazado_182574" data-name="Trazado 182574" d="M332.461,19.312c-1.3,0-2.607-.011-3.91.007-.379.005-.539-.091-.524-.5.029-.776.031-1.555,0-2.33-.017-.424.169-.49.532-.489,2.607.011,5.214.016,7.821,0,.456,0,.541.178.527.577-.025.726-.04,1.455,0,2.18.03.5-.187.576-.615.569-1.278-.021-2.557-.008-3.835-.008" transform="translate(-266.156 -12.978)" fill="#ffa726"/>
        <path id="Trazado_182575" data-name="Trazado 182575" d="M68.782,131.354a1.477,1.477,0,0,1-1.437,1.5,1.509,1.509,0,0,1-1.53-1.425,1.556,1.556,0,0,1,1.488-1.558,1.526,1.526,0,0,1,1.48,1.479" transform="translate(-53.4 -105.379)" fill="#030202"/>
        <path id="Trazado_182576" data-name="Trazado 182576" d="M363.817,131.4a1.5,1.5,0,1,1-2.992-.094,1.5,1.5,0,0,1,2.992.094" transform="translate(-292.769 -105.377)" fill="#030202"/>
      </g>
    </g>
  </g>
</svg>
