<svg xmlns="http://www.w3.org/2000/svg" xmlns:xlink="http://www.w3.org/1999/xlink" width="1240" height="600" viewBox="0 0 1240 600">
  <defs>
    <clipPath id="clip-path">
      <path id="Trazado_182616" data-name="Trazado 182616" d="M2937.012,790.985c-17.335,8.244-54.058,9.6-57.615,27.961s-7.721,106.982-7.721,106.982l80.2.195s36.217-28.013,31.382-38.473-14.222-22.732-14.222-22.732,23.806-45.7,11.08-59.417c-9.367-10.1-18.905-17.663-30.2-17.663a29.823,29.823,0,0,0-12.9,3.148" transform="translate(-2871.677 -787.837)" fill="#fdd835"/>
    </clipPath>
    <clipPath id="clip-path-2">
      <rect id="Rect치ngulo_37939" data-name="Rect치ngulo 37939" width="860" height="439.166" fill="none"/>
    </clipPath>
    <clipPath id="clip-path-3">
      <path id="Trazado_182621" data-name="Trazado 182621" d="M338.032,742.185c-1.038,5.165-11.1,21.436-4.87,32.7,3.922,7.094,31.455,50.012,51.3,80.815A69.865,69.865,0,0,0,443.2,887.724h37.5S487.4,833.64,457.222,797.2s-56.522-50.018-70.891-52.33c-10.063-1.618-29.209-4.82-40.139-4.82-4.678,0-7.849.586-8.16,2.134" transform="translate(-331.142 -740.051)" fill="#fdd835"/>
    </clipPath>
  </defs>
  <g id="Grupo_120736" data-name="Grupo 120736" transform="translate(-180.285 -6957.999)">
    <path id="Trazado_182824" data-name="Trazado 182824" d="M0,0H1240V600H0Z" transform="translate(180.285 6957.999)" fill="#fff3bf" opacity="0.502"/>
    <g id="Grupo_120452" data-name="Grupo 120452" transform="translate(370.285 7079.002)">
      <g id="Grupo_120445" data-name="Grupo 120445" transform="translate(760.911 199.973)">
        <g id="Grupo_120444" data-name="Grupo 120444" transform="translate(-45)" clip-path="url(#clip-path)">
          <path id="Trazado_182614" data-name="Trazado 182614" d="M2944.542,880.78s17.605-42.292,38.4-38.988,10.659,50.468-9.707,69.212c0,0,15.323-2.906,20.376,12.6s-54.734,55.539-61.7,75.938-41.518,2.949-27.746-39.705-6.682-80.182,9.056-94.036c12.76-11.232,31.323,14.977,31.323,14.977" transform="translate(-2893.521 -827.959)" fill="#fdd835"/>
          <path id="Trazado_182615" data-name="Trazado 182615" d="M2946.594,988.611c3.8-9.408,8.452-20.393,14.044-32.682l55.575-29.771c-.146-.368-.3-.717-.457-1.062l-54.328,29.1.554-1.21c8.48-18.458,18.864-41.021,28.088-61.053l23.146-4.412q.228-.645.443-1.291l-22.98,4.38c8.5-18.458,15.943-34.615,19.895-43.19-.292-.186-.592-.362-.9-.521l-9.521,20.665-8.967-17.052q-.42.324-.835.663l9.249,17.59c-8.761,19.019-20.554,44.63-31.022,67.393l-30.335-67.792c-.3.172-.59.365-.882.572L2968,937.415c-2.39,5.2-4.708,10.24-6.9,15.005q-4.414,9.607-8.1,18.167l-20.954-32.522q-.057.879-.128,1.764l20.575,31.935c-2.714,6.312-5.131,12.153-7.268,17.475a.712.712,0,0,0-.03.074c-3.309,8.245-5.94,15.233-7.946,20.781.306.168.614.323.923.469,1.983-5.485,4.579-12.382,7.841-20.517l26.222-8.886q.928-.933,1.882-1.876Z" transform="translate(-2916.63 -831.91)" fill="#af9627"/>
        </g>
      </g>
      <g id="Grupo_120447" data-name="Grupo 120447" transform="translate(0 -0.003)">
        <g id="Grupo_120446" data-name="Grupo 120446" transform="translate(32)" clip-path="url(#clip-path-2)">
          <path id="Trazado_182617" data-name="Trazado 182617" d="M2380.315,549.636s76.051-101.955,66.192-131.594-4.35-43.154,2.117-60.468c16.717-44.753,25.449-79.714-18.082-73.6s-76.335,71.5-85.829,81.5c-16.778,17.661-49.39,15.64-68.015,53.715s-12.912,129.4-12.912,129.4Z" transform="translate(-1688.559 -211.375)" fill="#d9ba2e"/>
          <path id="Trazado_182618" data-name="Trazado 182618" d="M2337.329,532.425a2.227,2.227,0,0,1,2.119-.129l40.438,25.521a423.439,423.439,0,0,1,18.811-46.081l-18.918-47.506c-.186-.467.321-1.022,1.133-1.24s1.621-.016,1.807.451l17.767,44.613q1.538-3.127,3.163-6.3c8.627-16.783,19.831-37.219,30.991-57.1l-4.9-23.351c-.1-.487.486-1.018,1.312-1.187s1.579.088,1.681.575l4.181,19.92c21.869-38.84,42.88-74.442,43.2-74.991a2.154,2.154,0,0,1,1.95-.774c.777.081,1.163.559.863,1.068-.329.557-21.987,37.256-44.207,76.773l40.884-14.37a1.761,1.761,0,0,1,1.935.291c.287.436-.115,1.012-.9,1.287l-43.281,15.212c-11.114,19.8-22.263,40.142-30.853,56.853q-2.067,4.02-3.984,7.974l61.256-18.323c.8-.24,1.635-.065,1.859.391s-.243,1.02-1.045,1.26l-63.138,18.886a422.014,422.014,0,0,0-18.748,46.029l74.84-23.6c.8-.252,1.64-.09,1.884.36s-.2,1.018-1,1.269l-76.444,24.1a318.147,318.147,0,0,0-10.147,36.493c-.1.513-.847.968-1.674,1.016-.057,0-.112,0-.166,0-.739-.008-1.246-.367-1.155-.845a319.549,319.549,0,0,1,10.221-36.751l-41.983-26.5c-.518-.327-.41-.915.242-1.313" transform="translate(-1743.625 -272.232)" fill="#af9627"/>
        </g>
      </g>
      <g id="Grupo_120449" data-name="Grupo 120449" transform="translate(84.053 187.843)">
        <g id="Grupo_120448" data-name="Grupo 120448" clip-path="url(#clip-path-3)">
          <path id="Trazado_182619" data-name="Trazado 182619" d="M476.056,941.293c6.305-1.507,10.768-4.955,12.282-9.525,6.544-19.757,16.76-73.9-19.579-108.851-45.634-43.9-75.929-54.855-102.31-48.811-22.6,5.177,8.418,19.416,12.824,25.668,8.962,12.719-1.518,28.765,12.4,52.414,10.265,17.439,26.455,56.438,51.536,58.713,8.308.754,20.711,33.292,29.446,31.2Z" transform="translate(-351.396 -764.32)" fill="#fdd835"/>
          <path id="Trazado_182620" data-name="Trazado 182620" d="M491.968,923.978a1.755,1.755,0,0,1,1.761.257l19.676,15.774c-4.143-9.334-8.908-20.232-13.336-30.74l-29.184-20.283c-.538-.374-.626-.913-.2-1.2a1.689,1.689,0,0,1,1.75.15L498.8,906.257c-2.046-4.894-4-9.66-5.754-14.1-3.209-8.105-7.134-16.849-11.6-25.536L452.126,847c-.548-.367-.655-.907-.239-1.207a1.669,1.669,0,0,1,1.745.12l26.142,17.494c-12.222-23.04-28.11-45.066-44.359-52.982-.618-.3-.876-.842-.575-1.208a1.464,1.464,0,0,1,1.665-.117c11.168,5.441,22.737,17.229,34.387,35.038,4.334,6.625,8.181,13.321,11.518,19.646l11.563-20.851a1.309,1.309,0,0,1,1.581-.266c.651.253,1,.783.777,1.184l-12.532,22.6c5.4,10.5,9.321,19.761,11.65,25.643,1.851,4.674,3.918,9.715,6.084,14.885l19.489-18.431a1.568,1.568,0,0,1,1.71-.006c.588.334.776.876.42,1.213L502.5,909.282c4.63,10.986,9.627,22.392,13.891,31.983l11.4-11.982a1.524,1.524,0,0,1,1.692-.054c.6.32.82.863.488,1.212l-12.535,13.173c5.436,12.194,9.449,20.93,9.538,21.123.188.409-.051.775-.542.892a1.449,1.449,0,0,1-.247.036,1.694,1.694,0,0,1-1.575-.782c-.09-.194-4.136-9.006-9.611-21.287l-22.994-18.433c-.5-.4-.515-.929-.039-1.186" transform="translate(-408.424 -791.427)" fill="#d9ba2e"/>
        </g>
      </g>
      <g id="Grupo_120451" data-name="Grupo 120451" transform="translate(0 -0.003)">
        <g id="Grupo_120450" data-name="Grupo 120450" clip-path="url(#clip-path-2)">
          <path id="Trazado_182622" data-name="Trazado 182622" d="M832.28,485.194c-8.079-4.486-14.624-5.966-19.9-5.716-13.032.617-26.309-8.268-31.719-21.52-9.8-24.006-25.613-51.629-48.255-57.2-40.349-9.925-30.946,49.9-39.707,69.694-5.014,11.327,5.37,25.533,18.2,40.872,9.862,11.789,5.469,29.157-8.084,31.14-7.706,1.128-15.1,4.473-20.384,11.814-8.809,12.23,12.083,44.534,36.155,80.2H845.262c-4.3-76.144,9.527-136.788-12.982-149.288" transform="translate(-507.681 -298.213)" fill="#d9ba2e"/>
          <path id="Trazado_182623" data-name="Trazado 182623" d="M760.511,1044.983c-8.7-7.272-16.58-13.225-23.49-18.057l-2.751-14.618a1.39,1.39,0,0,0-1.373-1.175,1.065,1.065,0,0,0-.9,1.344l2.359,12.605c-18.235-12.448-29.217-16.8-29.446-16.889a1.01,1.01,0,0,0-1.387.748,1.449,1.449,0,0,0,.865,1.616c.314.122,21.18,8.424,53.589,35.322l-16.088,8.844a1.274,1.274,0,0,0-.353,1.741,1.454,1.454,0,0,0,.879.728,1.013,1.013,0,0,0,.761-.081l17.026-9.372a481.081,481.081,0,0,1,42.436,40.759H805.8a486.575,486.575,0,0,0-44.68-43.008,1.469,1.469,0,0,0-.606-.507" transform="translate(-524.926 -752.228)" fill="#af9627"/>
          <path id="Trazado_182624" data-name="Trazado 182624" d="M906.732,635.914l13.822-45.405,20.72,3.626a.957.957,0,0,0,1.141-1.042,1.558,1.558,0,0,0-1.212-1.453l-19.933-3.484L937.8,533.844a1.439,1.439,0,0,0-.773-1.612.957.957,0,0,0-1.421.512l-9.965,32.609-13.322-24.875a1.286,1.286,0,0,0-1.575-.682,1.091,1.091,0,0,0-.375,1.56l14.381,26.912-18.991,62.147c-4.024-22.588-8.3-43.687-12.66-60.608a412.353,412.353,0,0,0-23.824-66.637l7.664-17.019a1.3,1.3,0,0,0-.587-1.575.985.985,0,0,0-1.456.355l-6.936,15.362c-4.972-10.772-9.844-20.252-14.116-28.085a1.353,1.353,0,0,0-.275-.5c-8.16-14.919-14.125-23.834-14.268-24.047a1.161,1.161,0,0,0-1.519-.436,1.038,1.038,0,0,0-.219,1.493c.135.2,5.435,8.139,12.85,21.535a65.024,65.024,0,0,0-15.645-3.4.936.936,0,0,0-1.021,1.035,1.319,1.319,0,0,0,1.167,1.2,61.58,61.58,0,0,1,17.112,4.1c11.4,20.957,27.2,53.971,37.532,91.923a154.108,154.108,0,0,0-33.869-30.739l-5.1-12.944a1.288,1.288,0,0,0-1.482-.835,1.044,1.044,0,0,0-.584,1.446l4.053,10.313c-13.1-8.268-22.785-11.54-22.968-11.6a.973.973,0,0,0-1.3.759,1.375,1.375,0,0,0,.91,1.489c.341.112,34.528,11.7,61.736,47.371,6.752,26.391,13.309,63,19.007,99.5h2.385c-1.794-11.413-3.671-22.839-5.612-33.956" transform="translate(-618.046 -333.601)" fill="#af9627"/>
          <path id="Trazado_182709" data-name="Trazado 182709" d="M0,0H788.883V5.469H0Z" transform="translate(71.117 336.193)" fill="#af9627"/>
          <path id="Trazado_182625" data-name="Trazado 182625" d="M1443.817,1187.07v81.942a204.441,204.441,0,0,1-145.016-60.067L1356.743,1151a122.335,122.335,0,0,0,87.074,36.067" transform="translate(-969.13 -858.846)" fill="#f57c00"/>
          <path id="Trazado_182626" data-name="Trazado 182626" d="M1180.164,895.032l-57.942,57.941a204.441,204.441,0,0,1-60.067-145.015H1144.1a122.335,122.335,0,0,0,36.067,87.074" transform="translate(-792.551 -602.875)" fill="#26ccda"/>
          <path id="Trazado_182627" data-name="Trazado 182627" d="M1870.116,81.939V0a204.44,204.44,0,0,1,145.015,60.068l-57.942,57.941a122.335,122.335,0,0,0-87.074-36.067" transform="translate(-1395.429 0.003)" fill="#f57c00"/>
          <path id="Trazado_182628" data-name="Trazado 182628" d="M1356.743,118.006,1298.8,60.064A204.441,204.441,0,0,1,1443.817,0V81.939a122.335,122.335,0,0,0-87.074,36.067" transform="translate(-969.13 0.003)" fill="#fdd835"/>
          <path id="Trazado_182629" data-name="Trazado 182629" d="M1062.815,840.392l82.211,2.232a123.26,123.26,0,0,0,2.92,18.289l-82.645,4.2a206.113,206.113,0,0,1-2.485-24.718" transform="translate(-793.043 -627.077)" fill="#1fa4af"/>
          <path id="Trazado_182630" data-name="Trazado 182630" d="M2249.226,807.958h81.942A204.439,204.439,0,0,1,2271.1,952.973l-57.941-57.941a122.334,122.334,0,0,0,36.067-87.074" transform="translate(-1651.398 -602.875)" fill="#ffa726"/>
          <path id="Trazado_182631" data-name="Trazado 182631" d="M1142.555,151.418a179.122,179.122,0,0,0-52.809,127.493H969.768a299.34,299.34,0,0,1,87.95-212.33Z" transform="translate(-723.614 -49.68)" fill="#ffa726"/>
          <path id="Trazado_182632" data-name="Trazado 182632" d="M1764.936,1365.75q-7.754-.571-15.461-1.729l3.548-82.621q2.427.542,4.881.984Z" transform="translate(-1305.41 -956.145)" fill="#9b5003"/>
          <path id="Trazado_182633" data-name="Trazado 182633" d="M2351.834,843.268l81.74,6.219q.71-6.957.949-13.944l-82.061.776q-.216,3.494-.627,6.948" transform="translate(-1754.874 -623.458)" fill="#d06a01"/>
          <path id="Trazado_182634" data-name="Trazado 182634" d="M1901.2,1024.707l85.463,85.463a301.549,301.549,0,0,1-213.9,88.6V1077.906a180.444,180.444,0,0,0,128.434-53.2" transform="translate(-1322.788 -764.607)" fill="#fdd835"/>
          <path id="Trazado_182635" data-name="Trazado 182635" d="M2259.3,197.552a253.845,253.845,0,0,0-36.976-46.847l-71.533,71.533A152.868,152.868,0,0,1,2175.01,253.7a151.132,151.132,0,0,1,20.308,76.036h101.163A252.808,252.808,0,0,0,2259.3,197.552" transform="translate(-1604.861 -112.451)" fill="#26ccda"/>
          <path id="Trazado_182636" data-name="Trazado 182636" d="M1078.914,414.455a1.662,1.662,0,0,1-1.59-2.141,301.52,301.52,0,0,1,29.716-67.3,1.661,1.661,0,1,1,2.852,1.7,298.191,298.191,0,0,0-29.389,66.556,1.661,1.661,0,0,1-1.589,1.181" transform="translate(-803.816 -256.837)" fill="#fff"/>
          <path id="Trazado_182637" data-name="Trazado 182637" d="M1261.389,196.858a1.66,1.66,0,0,1-1.324-2.66,178.143,178.143,0,0,1,15.107-17.936,1.66,1.66,0,0,1,2.336,2.36,178.782,178.782,0,0,0-14.791,17.575,1.658,1.658,0,0,1-1.327.661" transform="translate(-939.976 -131.163)" fill="#fff"/>
          <path id="Trazado_182638" data-name="Trazado 182638" d="M1572.367,57.4a1.661,1.661,0,0,1-.772-3.132c.458-.24,11.431-5.93,29.906-10.734a198.635,198.635,0,0,1,74.905-4.788,1.66,1.66,0,1,1-.431,3.293,195.286,195.286,0,0,0-73.533,4.682c-18.138,4.705-29.2,10.432-29.308,10.489a1.653,1.653,0,0,1-.768.189" transform="translate(-1172.016 -27.712)" fill="#fff"/>
          <path id="Trazado_182639" data-name="Trazado 182639" d="M386.04,428.924c15.328,5.448,47.937,28.535,47.937,28.535s21.033-43.069,22.261-42.787,8.479-2.18,10.685,1.315c.793,1.256-1.367,65.805-26.2,71.064-28.475,6.028-55.636-26.425-60.2-37.437s.365-22.521,5.518-20.69" transform="translate(-282.59 -308.982)" fill="#ffac57"/>
          <path id="Trazado_182640" data-name="Trazado 182640" d="M83.867,1696.3h9.362c12.778,0,66.254.748,54.254,2.393-11.129,1.526-60.074,2.393-72.852,2.393H63.294c-38.858,0-73.324-1.077-60.608-2.393s38.893-2.393,81.18-2.393" transform="translate(0 -1265.731)" fill="#af9627"/>
          <path id="Trazado_182641" data-name="Trazado 182641" d="M722.906,367.105l118.978,39.183a16.64,16.64,0,0,1,9.95,8.934,16.637,16.637,0,0,0,7.207,7.748,3.474,3.474,0,0,1,1.64,4.138l-.813,2.469-.813,2.469a3.474,3.474,0,0,1-3.778,2.354,16.639,16.639,0,0,0-10.4,1.949,16.639,16.639,0,0,1-13.312,1.274L712.586,398.441Z" transform="translate(-531.712 -273.923)" fill="#b1f9ff"/>
          <path id="Trazado_182642" data-name="Trazado 182642" d="M539.267,351.5l.65-1.974-45.64-15.03a17.193,17.193,0,0,1-10.92-21.645h0A17.193,17.193,0,0,1,505,301.934l45.64,15.031.65-1.974a6.039,6.039,0,1,1,11.471,3.778L550.739,355.28a6.039,6.039,0,0,1-11.472-3.778" transform="translate(-360.029 -224.654)" fill="#106f77"/>
          <path id="Trazado_182643" data-name="Trazado 182643" d="M90.4,1638.117c-3.129-2.972-.648-11.733-.632-12.039.066-1.32-6.117-3.062-8.042-.108-3.794,5.822-.9-1.159-2.917.75-3.364,3.177-7.209,16.058-5.329,17.5,3.6,2.763,30.685,1.942,31.315-.735.378-1.606-10.387-1.565-14.4-5.372" transform="translate(-54.461 -1212.046)" fill="#12263f"/>
          <path id="Trazado_182644" data-name="Trazado 182644" d="M436,1637.492c-3.764-2.935-4.2-11.131-4.249-11.433-.229-1.3-6.744-3.025-7.993-.111-2.462,5.743-1.146-1.144-2.723.739-2.626,3.133-3.564,15.843-1.379,17.27,4.179,2.729,30.84,1.932,30.867-.708.017-1.585-9.7-2-14.523-5.756" transform="translate(-312.225 -1212.047)" fill="#12263f"/>
          <path id="Trazado_182645" data-name="Trazado 182645" d="M177.671,827.909l-62.587,11.908-33.9,196.506c6.3,4.145,12.536,3.173,18.525,1.586l47.714-158.888s3.4,32.258,7.38,67.358c4.753,41.885,10.34,87.817,11.985,87.817h13.6c9.259-153.855-2.712-206.288-2.712-206.288" transform="translate(-60.575 -617.762)" fill="#54678c"/>
          <path id="Trazado_182646" data-name="Trazado 182646" d="M208.839,874.711l1.5-8.693,15.741-3,43.65,6.457s-10.81,6.474-27.89,7.163c-12.023.485-24.772-1.3-33-1.931" transform="translate(-155.83 -643.963)" fill="#434a59"/>
          <path id="Trazado_182647" data-name="Trazado 182647" d="M198.624,571.327c.139-8.9-.069-26.236.632-34.573,1.24-14.748-1.384-35.729-.632-42.975,1.429-13.769,9.487-24.144,43.683-26.927,16.9-1.376,19.982,14.789,21.294,25.173.773,6.115,6.066,62.865,4.381,76.842-.482,4-7.156,7-30.528,8.276-17.2.935-38.841-5.073-38.83-5.816" transform="translate(-148.105 -348.29)" fill="#ffac57"/>
          <path id="Trazado_182648" data-name="Trazado 182648" d="M342.425,691.646c-4.865,1.839-14.531,4.868-21.6,3.091-9.828-2.469-20.6-4.343-20.6-4.343s8.131,13.556,26.769,14.53c7.608.4,12.782-.478,16.242-1.654-.244-3.865-.519-7.787-.806-11.624" transform="translate(-224.017 -515.152)" fill="#d06a01"/>
          <path id="Trazado_182649" data-name="Trazado 182649" d="M313.881,378.707a3.817,3.817,0,0,0,.006-2.934,7.05,7.05,0,0,0-.753-1.739,2.134,2.134,0,0,0,1.118-1.877c0-1.06-.4-3.19-3.512-3.529s-10.478,5.56-10.518,6.832c-.046,1.478,1.043,1.6,1.043,1.6s-.541,0-.635,1.328,1.713,4.749,1.792,6.878c.067,1.8.612,3.1,1.886,2.99,2.364-.208,8.241-6.658,9.573-9.549" transform="translate(-224.016 -275.049)" fill="#434a59"/>
          <path id="Trazado_182650" data-name="Trazado 182650" d="M311.792,437.991c-2.645,1.971-10.031-.864-9.96-2.492l4.262-13.595,4.229,3.056.745,2.8.873,3.278,1.042,5.08c.649,1.717-.417,1.3-1.192,1.873" transform="translate(-225.219 -314.812)" fill="#ff867a"/>
          <path id="Trazado_182651" data-name="Trazado 182651" d="M326.181,444.365a6.436,6.436,0,0,1-5.266-4.6l4.392,1.323Z" transform="translate(-239.458 -328.139)" fill="#c66c67"/>
          <path id="Trazado_182652" data-name="Trazado 182652" d="M318.341,395.078l-1.3,5.648a4.712,4.712,0,0,0,3.414,5.124,7.931,7.931,0,0,0,4.8.275c1.816-.39,2.6-2.238,2.379-4.645a22.579,22.579,0,0,0-2.133-7.38,4.326,4.326,0,0,0-1.588-1.836,1.18,1.18,0,0,0-.78-.171c-1.793.238-3.82.923-4.8,2.986" transform="translate(-236.536 -292.56)" fill="#ff867a"/>
          <path id="Trazado_182653" data-name="Trazado 182653" d="M337.019,422.914a27.835,27.835,0,0,1,4.432.175s-.285,2.008-1.958,2c-.721,0-1.769-.413-2.474-2.174" transform="translate(-251.474 -315.548)" fill="#fff"/>
          <path id="Trazado_182654" data-name="Trazado 182654" d="M311.662,409.43a5.943,5.943,0,0,1-.228-1.236c-.073-.8-.367-1.963-1.495-1.273-1.64,1-1.311,4.876.687,5.018,1.484.106,1.352-1.5,1.036-2.509" transform="translate(-230.487 -303.476)" fill="#ff867a"/>
          <path id="Trazado_182655" data-name="Trazado 182655" d="M304.426,470.21s2.57-3.476,2.686-5.6c2.393.618,2.988,8.532,2.988,8.532l-5.442-1.93-3.512,3.358s-6.038-3.1-6.242-4.786,2.048-5.67,2.6-4.788c1.778,2.816,6.919,5.213,6.919,5.213" transform="translate(-220.038 -346.679)" fill="#fff"/>
          <path id="Trazado_182656" data-name="Trazado 182656" d="M343.716,414.869a2.916,2.916,0,0,0,1.3-.547c.3-.22.583.281.288.5a3.288,3.288,0,0,1-1.442.6c-.363.058-.516-.5-.15-.556" transform="translate(-256.315 -309.114)" fill="#c66c67"/>
          <path id="Trazado_182657" data-name="Trazado 182657" d="M334.954,405.161a.286.286,0,0,1,.345.163,1.035,1.035,0,0,1,.1.55.313.313,0,0,1-.437.25c-.271-.113-.41-.9-.013-.964" transform="translate(-249.749 -302.312)" fill="#434a59"/>
          <path id="Trazado_182658" data-name="Trazado 182658" d="M349.033,405.741a.286.286,0,0,1,.345.163,1.037,1.037,0,0,1,.1.55.313.313,0,0,1-.437.25c-.271-.112-.41-.9-.013-.964" transform="translate(-260.254 -302.745)" fill="#434a59"/>
          <path id="Trazado_182659" data-name="Trazado 182659" d="M332.8,399.385a1.173,1.173,0,0,0-.923-.034,1.411,1.411,0,0,0-.7.587.16.16,0,0,0-.038.089v0a.113.113,0,0,0,.046.136.18.18,0,0,0,.238.037,3.916,3.916,0,0,1,1.306-.45c.209-.034.231-.323.07-.366" transform="translate(-247.082 -297.926)" fill="#434a59"/>
          <path id="Trazado_182660" data-name="Trazado 182660" d="M348.161,399.354a.146.146,0,0,0-.042-.027c-.118-.047-.26-.133-.407-.2a.2.2,0,0,0-.03-.015l-.012,0c-.217-.092-.438-.13-.6.066a.128.128,0,0,0-.03.081.188.188,0,0,0,.132.265c.3.055.605.112.9.2.217.062.279-.278.086-.365" transform="translate(-258.941 -297.748)" fill="#434a59"/>
          <path id="Trazado_182661" data-name="Trazado 182661" d="M208.19,458.757c15.842,3.7,44.722,24.31,44.722,24.31s16.873-44.318,18.049-44.771c2.257-.87,8.821-1.8,11.4,1.431.928,1.159-.634,65.554-23.118,72.23-10.444,3.1-18.981-.139-27.926-5.9-15.776-10.153-26.61-19.288-30.218-25.815-5.766-10.431,1.76-22.731,7.085-21.488" transform="translate(-148.511 -326.427)" fill="#ffac57"/>
          <path id="Trazado_182662" data-name="Trazado 182662" d="M484.777,406.847s-3.415-7.942-1.88-9.01,4.819-4.058,5.2-3.148-2.311,2.789-2.311,2.789,3.984-2.065,4.488-1.7.108,1.009.108,1.009a1.982,1.982,0,0,1,1.044.767c.3.543-2.45,3.042-2.45,3.042s4.741,7.592.1,8.987-4.3-2.733-4.3-2.733" transform="translate(-360.028 -294.378)" fill="#ff867a"/>
          <path id="Trazado_182663" data-name="Trazado 182663" d="M575.989,588.982a.835.835,0,0,1-.4-1.565c2.727-1.5,4.173-5.189,4.188-5.226a.834.834,0,0,1,1.557.6c-.067.174-1.685,4.291-4.938,6.086a.833.833,0,0,1-.4.1" transform="translate(-429.164 -434.016)" fill="#d06a01"/>
          <path id="Trazado_182664" data-name="Trazado 182664" d="M339.691,955.291a.835.835,0,0,1-.8-1.081c.6-1.952,5.943-19.136,7.8-21.42,1.946-2.4,6.138-3.695,6.315-3.749a.834.834,0,1,1,.487,1.6c-.038.012-3.883,1.207-5.507,3.205-1.252,1.54-5.171,13.319-7.5,20.861a.836.836,0,0,1-.8.588" transform="translate(-252.845 -693.196)" fill="#434a59"/>
          <path id="Trazado_182665" data-name="Trazado 182665" d="M338.654,418.24s2.018.5,2.326,1.021-1.941.255-2.147.241-.626-.083-.626-.083a19.46,19.46,0,0,1-2.934.163c-.413-.124,1.242-1.115,1.7-1.189a7.477,7.477,0,0,1,1.682-.151" transform="translate(-250.123 -312.076)" fill="#434a59"/>
          <path id="Trazado_182666" data-name="Trazado 182666" d="M303.906,533.153a1.12,1.12,0,0,1-.662-.217c-.253-.186-25.4-18.608-32.9-23.418a1.12,1.12,0,0,1,1.209-1.886c6.629,4.249,26.8,18.954,31.86,22.65l12.306-30.15a1.12,1.12,0,0,1,2.074.847l-12.848,31.476a1.12,1.12,0,0,1-1.037.7" transform="translate(-201.338 -372.665)" fill="#d06a01"/>
          <path id="Trazado_182667" data-name="Trazado 182667" d="M385.855,633a1.12,1.12,0,0,1-1.077-1.429A48.824,48.824,0,0,1,389,620.989a1.12,1.12,0,0,1,1.928,1.141,47.655,47.655,0,0,0-3.991,10.058,1.121,1.121,0,0,1-1.076.811" transform="translate(-287.078 -462.954)" fill="#d06a01"/>
          <path id="Trazado_182668" data-name="Trazado 182668" d="M488.128,576.547a1.12,1.12,0,0,1-1-1.629c5.045-9.885,7.491-30.22,7.515-30.424a1.12,1.12,0,0,1,2.225.262c-.1.85-2.516,20.937-7.744,31.18a1.12,1.12,0,0,1-1,.611" transform="translate(-363.392 -405.547)" fill="#d06a01"/>
          <path id="Trazado_182669" data-name="Trazado 182669" d="M1022.113,475.053a1.93,1.93,0,0,1-.583-.09l-41.015-13.046a1.92,1.92,0,1,1,1.164-3.659l41.015,13.046a1.92,1.92,0,0,1-.581,3.75" transform="translate(-730.634 -341.871)" fill="#fff"/>
          <path id="Trazado_182670" data-name="Trazado 182670" d="M1184.938,526.844a1.923,1.923,0,0,1-.583-.091l-7.266-2.311a1.92,1.92,0,0,1,1.164-3.66l7.266,2.311a1.92,1.92,0,0,1-.581,3.75" transform="translate(-877.313 -388.526)" fill="#fff"/>
          <path id="Trazado_182671" data-name="Trazado 182671" d="M2540.382,1712.458c0,1.422,45.845,2.575,102.4,2.575s102.4-1.153,102.4-2.575-45.845-2.574-102.4-2.574-102.4,1.153-102.4,2.574" transform="translate(-1895.563 -1275.868)" fill="#5cbec6"/>
          <path id="Trazado_182672" data-name="Trazado 182672" d="M2587.611,487.232s-57.154,17.333-62.908,27.58c-6.18,11.007,5,18.685,13.387,23.834s39.956-22.068,45.651-30.9,3.87-20.518,3.87-20.518" transform="translate(-1882.531 -363.558)" fill="#12263f"/>
          <path id="Trazado_182673" data-name="Trazado 182673" d="M2806.12,380.781c1.281-.9,2.306-4.1,2.366-5.788s-.286-2.965-.17-3.805.789-2.667.176-3.743-3.937-3.014-4.585-3.133-1.611,1.144-2.338,1.381c-.862.281-4.495,2.119-5.583,2.655-2.737,1.346-3.146,3.007-3.146,4.414a7.952,7.952,0,0,0,3.81,7.2c2.9,1.906,7.524,2.187,9.47.823" transform="translate(-2083.939 -271.832)" fill="#f25c5c"/>
          <path id="Trazado_182674" data-name="Trazado 182674" d="M2789.183,392.789s-1.175-1.255-.788-2.055a4.913,4.913,0,0,1,3.344-2.51,6.138,6.138,0,0,1,4.3,1.821c1.048.938,2.835,2.88,3.553,3.472a19.18,19.18,0,0,1,1.576,3.313s2.964,2.78,4.885,4.7,19.543,12.837,19.089,23.5c-.9,21.039-34.422,7.108-36.822,6.032s.866-38.275.866-38.275" transform="translate(-2079.908 -289.668)" fill="#543732"/>
          <path id="Trazado_182675" data-name="Trazado 182675" d="M2813.3,1011.655l-27.434-1.471s-.226-49.434,8.749-43.99,19.567,35.163,18.685,45.461" transform="translate(-2078.738 -720.634)" fill="#91504a"/>
          <path id="Trazado_182676" data-name="Trazado 182676" d="M2711.16,1655.416c3.005-1.933,5.826-3.825,6.234-5.1,1.033-3.229.9-8.007,2.2-8.976s8.169-1.167,8.524,1.227a76.748,76.748,0,0,0,1.4,7.608,13.273,13.273,0,0,0,.993,2.854c1.356,2.454.969,6.716-1.195,7.491s-21.149,3.81-25.281,2c-2.5-1.093,2.534-4.146,7.133-7.1" transform="translate(-2017.175 -1224.215)" fill="#2f343d"/>
          <path id="Trazado_182677" data-name="Trazado 182677" d="M3045.877,1649.294a13.268,13.268,0,0,0,.72-2.934,76.638,76.638,0,0,0,.677-7.7c.129-2.417,6.995-2.864,8.372-2.02s1.7,5.613,3.027,8.731c.526,1.232,3.511,2.851,6.685,4.494,4.855,2.513,10.153,5.081,7.767,6.4-3.945,2.187-23.131.946-25.358.377s-3.011-4.775-1.891-7.346" transform="translate(-2272.372 -1220.918)" fill="#2f343d"/>
          <path id="Trazado_182678" data-name="Trazado 182678" d="M2681.66,898.055c.351,2.69,2.954,21.447,4.011,28.426,3.124,20.567,7.1,77.115,7.1,77.115s4.911,3.035,13.382,3c14.019-.053,20.644-3,20.644-3s-7.53-90.289-8.056-96.567c-2.642-31.489-5.286-62.92-5.627-67.255L2758.3,1001.9a45.75,45.75,0,0,0,17.913,4.07c9.184.07,13.555-2.37,13.555-2.37s-3.09-13.9-4.118-18.538l-6.141-27.644L2776.4,943.44l-4.067-18.311c-13.8-73.021-29.894-118-36.159-137.818a97.107,97.107,0,0,1-11.407.921c-.6.02-1.219.039-1.847.054-13.439.336-29.952-.529-43.26-3.68-.288,2.941-2.42,17.283-2.8,19.481-1.65,9.677-2.826,28.029-1.508,40.016,1.5,13.583,3.429,32.04,6.3,53.953" transform="translate(-1995.857 -585.451)" fill="#ffd1a2"/>
          <path id="Trazado_182679" data-name="Trazado 182679" d="M2933.247,1107.4c-7.511,2.524-28.675-.083-28.675-.083l25.623-12.293q1.515,5.978,3.052,12.376" transform="translate(-2167.312 -817.076)" fill="#ce9d84"/>
          <path id="Trazado_182680" data-name="Trazado 182680" d="M2687.831,1116.422q-.829-6.967-1.534-13.259l14.9,12.331s-7.75.573-13.364.927" transform="translate(-2004.441 -823.149)" fill="#ce9d84"/>
          <path id="Trazado_182681" data-name="Trazado 182681" d="M2787.877,898.306c2.472,5.316,4.036,10.955,5.76,16.541a58.219,58.219,0,0,0,2.9,8.105c1.133,2.357,2.415,4.675,2.463,7.356a1.1,1.1,0,0,1-2.193,0c-.046-2.606-1.56-4.845-2.585-7.155a69.2,69.2,0,0,1-2.7-7.723c-1.666-5.4-3.15-10.879-5.538-16.017-.591-1.272,1.3-2.387,1.894-1.107" transform="translate(-2078.74 -669.868)" fill="#ce9d84"/>
          <path id="Trazado_182682" data-name="Trazado 182682" d="M2804.985,443.216l.055-2.1s-8.469-.147-13.972,1.618-5.8,3.274-5.945,4.046,13.094,3.494,19.862-3.568" transform="translate(-2078.182 -329.148)" fill="#f2a25c"/>
          <path id="Trazado_182683" data-name="Trazado 182683" d="M2707.423,480.918c-2.564-4.218-9.794-6.4-17.524-6.7-19.75-.759-27.4,31.755-31.226,59.856-.416,3.059-11.962,94.77-12.8,99.456,4.968,1.181,18.96,11.534,25.158,12.653,1.12.2,4.161-89.2,5.3-89,1.611.277,8.88.176,10.5.434,1.89.3,13.692,89.226,15.561,89.5,12.458,1.8,36.909-10.2,41.176-14.9-.406-1.528-33.625-147.152-36.141-151.292" transform="translate(-1974.278 -353.841)" fill="#12263f"/>
          <path id="Trazado_182684" data-name="Trazado 182684" d="M2764.586,915.4c2.35,2.479,5.247,5.743,8.658,6.666a1.1,1.1,0,0,1-.583,2.115c-3.8-1.03-7-4.46-9.625-7.23-.971-1.024.577-2.578,1.551-1.551" transform="translate(-2061.471 -682.791)" fill="#ce9d84"/>
          <path id="Trazado_182685" data-name="Trazado 182685" d="M2821.155,427.508l2.281,13.683c.072,1.9-8.839,2.026-8.068.024l.993-10.888Z" transform="translate(-2100.714 -318.994)" fill="#f6be89"/>
          <path id="Trazado_182686" data-name="Trazado 182686" d="M2847.342,735.24c1.7,7.264,3.427,14.644,5.107,21.866-14.376-5.2-41.116-30.989-41.116-30.989Z" transform="translate(-2097.74 -541.808)" fill="#0b1a2c"/>
          <path id="Trazado_182687" data-name="Trazado 182687" d="M2801.636,394.7l2.9,2.581a6.361,6.361,0,0,1-2.312,8.945c-3.9,2.145-6.251,2.2-7.871-1.588-.95-2.223-.7-7.083-.584-8.973a4.386,4.386,0,0,1,3.1-4.2c1.583-.418.554,2.23,4.767,3.231" transform="translate(-2084.548 -292.071)" fill="#f6be89"/>
          <path id="Trazado_182688" data-name="Trazado 182688" d="M2806.318,443.562a16.616,16.616,0,0,0,3.7-1.958s-1.674,6.721-4.9,7.217l-.073.009.37-4.056c-1.8.622-3.182.481-4.283-.723a9.963,9.963,0,0,0,5.188-.49" transform="translate(-2090.126 -329.512)" fill="#ff867a"/>
          <path id="Trazado_182689" data-name="Trazado 182689" d="M2802.052,424.683a3.133,3.133,0,0,1-1.472-.383c-.352-.189-.578.388-.231.575a3.534,3.534,0,0,0,1.627.423c.4.006.473-.609.075-.615" transform="translate(-2089.414 -316.572)" fill="#c66c67"/>
          <path id="Trazado_182690" data-name="Trazado 182690" d="M2810.587,414.827a.316.316,0,0,0-.35.245,1.122,1.122,0,0,0,.015.625.375.375,0,0,0,.553.192c.278-.175.245-1.068-.218-1.062" transform="translate(-2096.893 -309.532)" fill="#402823"/>
          <path id="Trazado_182691" data-name="Trazado 182691" d="M2794.668,416.815a.315.315,0,0,0-.35.245,1.121,1.121,0,0,0,.014.624.375.375,0,0,0,.553.192c.278-.175.245-1.068-.217-1.062" transform="translate(-2085.015 -311.015)" fill="#402823"/>
          <path id="Trazado_182692" data-name="Trazado 182692" d="M2803.347,430.717a39.519,39.519,0,0,0-4.6.876.251.251,0,0,0-.173.331,3.019,3.019,0,0,0,1.067,1.508c1.088.612,3.242.587,3.979-2.4a.253.253,0,0,0-.276-.311" transform="translate(-2088.209 -321.387)" fill="#fff"/>
          <path id="Trazado_182693" data-name="Trazado 182693" d="M2809.91,409.235a5.072,5.072,0,0,1,1.819-.125.21.21,0,1,1-.067.415,4.537,4.537,0,0,0-1.594.106c-.271.066-.432-.329-.158-.4" transform="translate(-2096.571 -305.24)" fill="#543732"/>
          <path id="Trazado_182694" data-name="Trazado 182694" d="M2763.313,520.245c1.766-19.089,8.76-39.39,9.854-42.151a7.052,7.052,0,0,1,4.019-3.79,43.428,43.428,0,0,1,4.719.455,7.883,7.883,0,0,1,1.159.8c4.414,3.641-2.979,14.455-4.918,24.055s-4.26,58.077-4.26,58.077c-1.62-.258-8.889-.157-10.5-.434a215.835,215.835,0,0,1-.072-37.009" transform="translate(-2061.336 -353.912)" fill="#fff"/>
          <path id="Trazado_182695" data-name="Trazado 182695" d="M2793.547,411.327c.361-.061.727-.089,1.093-.116.28-.02.335.4.054.423-.367.026-.732.055-1.093.115-.275.046-.329-.376-.054-.423" transform="translate(-2084.333 -306.833)" fill="#543732"/>
          <path id="Trazado_182696" data-name="Trazado 182696" d="M2801.165,441.129s-7.866,1.879-11.641,2.943-6.66.779-8.071,2.055-2.125,8.135-.891,9.889,10.857.744,15.323,0,8.347-1.808,9.464-2.765-1.686-11.431-4.184-12.122" transform="translate(-2074.306 -329.158)" fill="#f2a25c"/>
          <path id="Trazado_182697" data-name="Trazado 182697" d="M2819.069,500.639s54.669,51.518,44.748,69.049c-11.108,19.628-67.4-10.152-68.237-15.889s4.976-11.917,8.4-15.154,30.711,8.644,30.711,8.644-18.082-22.878-21.068-32.882,5.451-13.768,5.451-13.768" transform="translate(-2085.924 -373.562)" fill="#12263f"/>
          <rect id="Rect치ngulo_37941" data-name="Rect치ngulo 37941" width="26.703" height="2.563" transform="matrix(0.75, -0.662, 0.662, 0.75, 701.851, 168.934)" fill="#543732"/>
          <path id="Trazado_182698" data-name="Trazado 182698" d="M2788.467,635.144s-3.619-7.416-5.061-7.63-5.142,2.154-5.277,3.033-1.393,3.757-1.071,3.825,2.69.7,2.69.7,3.049,8.086,6.766,7.762,3.766-6.195,1.952-7.685" transform="translate(-2072.125 -468.223)" fill="#f6be89"/>
          <path id="Trazado_182699" data-name="Trazado 182699" d="M2553.978,532.272h50.1l-22.823-76.511h-50.1Z" transform="translate(-1888.678 -340.075)" fill="#106f77"/>
          <path id="Trazado_182700" data-name="Trazado 182700" d="M2568.785,621.563a7.166,7.166,0,0,0-4.219-7.825c-5.388-2.648-27.975-24.112-31.964-24.866-10.123-1.914-15.28,5.333-12.238,15.2S2559.6,629.928,2563.7,628.5s5.087-6.935,5.087-6.935" transform="translate(-1879.979 -439.169)" fill="#12263f"/>
          <path id="Trazado_182701" data-name="Trazado 182701" d="M2697.305,702.675c2.876-.27,6.217-2.285,5.487-.051s-3.723,2.3-4.385,3.811,7.7,6.72,6.4,7.994c-.864.846-4.8-3.022-4.938-2.682s4.123,3.741,3,4.747a5.065,5.065,0,0,1-5.618.523c.4.609.628,1.186.346,1.48-.76.789-14.614-10.712-6.966-14.884,1.654-.9,2.243-.524,6.671-.94" transform="translate(-2005.964 -523.501)" fill="#f6be89"/>
          <path id="Trazado_182702" data-name="Trazado 182702" d="M2881.432,663.83a.585.585,0,0,0,.287-1.095c-.114-.064-11.47-6.416-19.2-9.418-10.718-4.162-21.024-7.943-23.855-7.434a.585.585,0,1,0,.208,1.151c2.9-.522,17.14,5.011,23.224,7.373,7.653,2.972,18.938,9.285,19.051,9.348a.583.583,0,0,0,.286.075" transform="translate(-2117.774 -481.904)" fill="#1b3b62"/>
          <path id="Trazado_182703" data-name="Trazado 182703" d="M2881.751,582.5a.585.585,0,0,0,.414-1c-3.686-3.69-14.938-24.134-15.052-24.34a.585.585,0,0,0-1.025.564c.466.847,11.447,20.8,15.25,24.6a.581.581,0,0,0,.414.172" transform="translate(-2138.542 -415.514)" fill="#1b3b62"/>
          <path id="Trazado_182704" data-name="Trazado 182704" d="M2791.206,411.49a2.751,2.751,0,0,1-.081-2.843,1.147,1.147,0,0,1,2.038-.058,2.752,2.752,0,0,1,.081,2.843,1.243,1.243,0,0,1-1,.65,1.025,1.025,0,0,1-.268-.028,1.35,1.35,0,0,1-.768-.563m.929-3.194a.955.955,0,0,0-.757.51,2.455,2.455,0,0,0,.072,2.511.853.853,0,0,0,1.541-.044,2.457,2.457,0,0,0-.072-2.511,1.061,1.061,0,0,0-.6-.446.726.726,0,0,0-.189-.02" transform="translate(-2082.394 -304.435)" fill="#434a59"/>
          <path id="Trazado_182705" data-name="Trazado 182705" d="M2806.266,407.915h0a2.074,2.074,0,0,1,.531-1.458,1.91,1.91,0,0,1,2.78-.079,2.1,2.1,0,0,1,.083,2.883,1.914,1.914,0,0,1-1.373.64,1.881,1.881,0,0,1-.495-.051,2.034,2.034,0,0,1-1.526-1.935m1.913-1.8a1.617,1.617,0,0,0-1.16.542,1.776,1.776,0,0,0-.454,1.249,1.706,1.706,0,0,0,1.714,1.7,1.616,1.616,0,0,0,1.159-.542,1.8,1.8,0,0,0-.071-2.471,1.611,1.611,0,0,0-1.188-.475m-1.765,1.8h0Z" transform="translate(-2093.957 -302.808)" fill="#434a59"/>
          <path id="Trazado_182706" data-name="Trazado 182706" d="M2800.838,414.213a.149.149,0,0,0,.156-.057c.015-.02.346-.438,1.255-.194h0a.149.149,0,0,0,.073-.29c-1.129-.3-1.557.283-1.575.308a.149.149,0,0,0,.035.208.155.155,0,0,0,.052.023" transform="translate(-2089.823 -308.607)" fill="#434a59"/>
          <path id="Trazado_182707" data-name="Trazado 182707" d="M2819.085,408.576a.145.145,0,0,0,.054.025l4.268.982a.149.149,0,0,0,.067-.291l-4.268-.983a.149.149,0,0,0-.121.266" transform="translate(-2103.478 -304.666)" fill="#434a59"/>
          <path id="Trazado_182708" data-name="Trazado 182708" d="M2834.179,408.757c0-.041,0-.083.008-.125a9.088,9.088,0,0,1,1.568,3.439,1,1,0,0,1-.923.508c-1.388.161-1.071-1.689-.815-2.651a5.583,5.583,0,0,0,.162-1.17" transform="translate(-2114.499 -304.909)" fill="#f6be89"/>
        </g>
      </g>
    </g>
    <path id="Trazado_182825" data-name="Trazado 182825" d="M-87.287-7.242h-6.469v4.078h7.641V0H-97.869V-17.062h11.777v3.176h-7.664v3.6h6.469Zm1.945.809a7.746,7.746,0,0,1,1.3-4.746,4.282,4.282,0,0,1,3.633-1.734,3.641,3.641,0,0,1,2.859,1.336V-18h3.961V0h-3.551l-.2-1.359A3.739,3.739,0,0,1-80.432.234,4.274,4.274,0,0,1-84.018-1.5,7.991,7.991,0,0,1-85.342-6.434Zm3.949.246q0,3.375,1.969,3.375a1.944,1.944,0,0,0,1.875-1.1V-8.742A1.892,1.892,0,0,0-79.4-9.867q-1.828,0-1.98,2.953ZM-67.178,0h-3.961V-12.68h3.961Zm-4.2-15.961a1.778,1.778,0,0,1,.609-1.391,2.29,2.29,0,0,1,1.582-.542,2.29,2.29,0,0,1,1.582.542,1.778,1.778,0,0,1,.609,1.391A1.778,1.778,0,0,1-67.6-14.57a2.29,2.29,0,0,1-1.582.542,2.29,2.29,0,0,1-1.582-.542A1.778,1.778,0,0,1-71.373-15.961ZM-59.385-2.812A1.756,1.756,0,0,0-58.1-3.264a1.654,1.654,0,0,0,.445-1.26h3.7A4.384,4.384,0,0,1-55.441-1.1,5.558,5.558,0,0,1-59.291.234,5.627,5.627,0,0,1-63.65-1.5a6.834,6.834,0,0,1-1.594-4.8v-.164a7.723,7.723,0,0,1,.709-3.393,5.162,5.162,0,0,1,2.045-2.262,6.1,6.1,0,0,1,3.164-.791A5.488,5.488,0,0,1-55.4-11.543a4.863,4.863,0,0,1,1.453,3.715h-3.7a2.168,2.168,0,0,0-.48-1.512,1.658,1.658,0,0,0-1.289-.527q-1.535,0-1.793,1.957A13.809,13.809,0,0,0-61.295-6.2a5.424,5.424,0,0,0,.457,2.648A1.582,1.582,0,0,0-59.385-2.812ZM-48.111,0h-3.961V-12.68h3.961Zm-4.2-15.961a1.778,1.778,0,0,1,.609-1.391,2.29,2.29,0,0,1,1.582-.542,2.29,2.29,0,0,1,1.582.542,1.778,1.778,0,0,1,.609,1.391,1.778,1.778,0,0,1-.609,1.391,2.29,2.29,0,0,1-1.582.542A2.29,2.29,0,0,1-51.7-14.57,1.778,1.778,0,0,1-52.307-15.961Zm6.129,9.5a7.484,7.484,0,0,1,.738-3.381,5.28,5.28,0,0,1,2.121-2.279,6.388,6.388,0,0,1,3.246-.8,5.83,5.83,0,0,1,4.488,1.764,6.768,6.768,0,0,1,1.641,4.8v.141A6.566,6.566,0,0,1-35.59-1.506,5.846,5.846,0,0,1-40.049.234,5.912,5.912,0,0,1-44.4-1.389a6.348,6.348,0,0,1-1.77-4.4Zm3.949.246a4.718,4.718,0,0,0,.551,2.578,1.835,1.835,0,0,0,1.629.82q2.109,0,2.156-3.246v-.4q0-3.41-2.18-3.41-1.98,0-2.145,2.941ZM-39.533-18h4.172l-3.258,3.68-3.223-.006Zm10.957,5.32.129,1.488a4.3,4.3,0,0,1,3.621-1.723,3.618,3.618,0,0,1,2.959,1.184,5.635,5.635,0,0,1,1.014,3.563V0h-3.961V-8A2.14,2.14,0,0,0-25.2-9.416a1.789,1.789,0,0,0-1.406-.451,1.883,1.883,0,0,0-1.723.914V0h-3.949V-12.68Zm15.387,6.246a7.746,7.746,0,0,1,1.3-4.746,4.282,4.282,0,0,1,3.633-1.734A3.641,3.641,0,0,1-5.4-11.578V-18h3.961V0H-4.986l-.2-1.359A3.739,3.739,0,0,1-8.279.234,4.274,4.274,0,0,1-11.865-1.5,7.991,7.991,0,0,1-13.189-6.434Zm3.949.246q0,3.375,1.969,3.375A1.944,1.944,0,0,0-5.4-3.914V-8.742A1.892,1.892,0,0,0-7.248-9.867q-1.828,0-1.98,2.953ZM6.943.234a6.518,6.518,0,0,1-4.723-1.74,6.009,6.009,0,0,1-1.8-4.529v-.328A7.787,7.787,0,0,1,1.137-9.8a5.274,5.274,0,0,1,2.1-2.3,6.35,6.35,0,0,1,3.281-.814,5.489,5.489,0,0,1,4.219,1.658,6.516,6.516,0,0,1,1.547,4.623V-5.1H4.436a2.846,2.846,0,0,0,.926,1.676,2.755,2.755,0,0,0,1.852.609,3.549,3.549,0,0,0,2.93-1.312l1.8,2.133A5.045,5.045,0,0,1,9.855-.369,7.069,7.069,0,0,1,6.943.234ZM6.5-9.867q-1.734,0-2.062,2.3H8.42v-.3a1.956,1.956,0,0,0-.48-1.471A1.912,1.912,0,0,0,6.5-9.867ZM24.018,0H20.057V-12.68h3.961Zm-4.2-15.961a1.778,1.778,0,0,1,.609-1.391,2.29,2.29,0,0,1,1.582-.542,2.29,2.29,0,0,1,1.582.542,1.778,1.778,0,0,1,.609,1.391A1.778,1.778,0,0,1,23.6-14.57a2.29,2.29,0,0,1-1.582.542,2.29,2.29,0,0,1-1.582-.542A1.778,1.778,0,0,1,19.822-15.961ZM30.182-12.68l.129,1.488a4.36,4.36,0,0,1,3.621-1.723A3.21,3.21,0,0,1,37.178-11a4.22,4.22,0,0,1,3.727-1.91q3.855,0,3.961,4.664V0H40.9V-8a2.417,2.417,0,0,0-.328-1.418,1.4,1.4,0,0,0-1.2-.445,1.871,1.871,0,0,0-1.746,1.043l.012.164V0H33.686V-7.98a2.541,2.541,0,0,0-.316-1.441,1.393,1.393,0,0,0-1.207-.445,1.894,1.894,0,0,0-1.734,1.043V0H26.479V-12.68ZM54.264,0a4.459,4.459,0,0,1-.375-1.137A3.672,3.672,0,0,1,50.842.234,4.5,4.5,0,0,1,47.795-.85a3.45,3.45,0,0,1-1.254-2.725,3.546,3.546,0,0,1,1.523-3.117,7.761,7.761,0,0,1,4.43-1.055h1.219v-.671q0-1.755-1.512-1.755a1.236,1.236,0,0,0-1.406,1.39H46.846a3.54,3.54,0,0,1,1.564-2.985,6.575,6.575,0,0,1,3.99-1.147,5.764,5.764,0,0,1,3.832,1.184,4.115,4.115,0,0,1,1.441,3.246v5.613A5.748,5.748,0,0,0,58.213-.2V0ZM51.791-2.578a2.2,2.2,0,0,0,1.225-.316,1.983,1.983,0,0,0,.7-.715V-5.637H52.564q-2.062,0-2.062,1.852a1.131,1.131,0,0,0,.363.873A1.315,1.315,0,0,0,51.791-2.578ZM59.4-6.434a8.561,8.561,0,0,1,.633-3.4,5.094,5.094,0,0,1,1.816-2.279,4.788,4.788,0,0,1,2.754-.8,3.807,3.807,0,0,1,3.094,1.336l.141-1.1H71.42V-.48a5.346,5.346,0,0,1-.779,2.912,5,5,0,0,1-2.256,1.9,8.292,8.292,0,0,1-3.422.662,7.153,7.153,0,0,1-2.7-.527,4.876,4.876,0,0,1-2-1.371L61.916.773a3.621,3.621,0,0,0,2.906,1.3q2.625,0,2.625-2.7v-.4A3.708,3.708,0,0,1,64.576.234a4.583,4.583,0,0,1-3.75-1.775A7.356,7.356,0,0,1,59.4-6.293Zm3.961.246a4.511,4.511,0,0,0,.586,2.467,1.849,1.849,0,0,0,1.641.908,2.1,2.1,0,0,0,1.863-.855V-9a2.045,2.045,0,0,0-1.84-.867,1.861,1.861,0,0,0-1.652.943A5.144,5.144,0,0,0,63.357-6.187ZM79.8.234a6.518,6.518,0,0,1-4.723-1.74,6.009,6.009,0,0,1-1.8-4.529v-.328A7.787,7.787,0,0,1,73.992-9.8a5.274,5.274,0,0,1,2.1-2.3,6.35,6.35,0,0,1,3.281-.814A5.489,5.489,0,0,1,83.6-11.256a6.516,6.516,0,0,1,1.547,4.623V-5.1H77.291a2.846,2.846,0,0,0,.926,1.676,2.755,2.755,0,0,0,1.852.609A3.549,3.549,0,0,0,83-4.125l1.8,2.133A5.045,5.045,0,0,1,82.711-.369,7.069,7.069,0,0,1,79.8.234Zm-.445-10.1q-1.734,0-2.062,2.3h3.984v-.3a1.956,1.956,0,0,0-.48-1.471A1.912,1.912,0,0,0,79.354-9.867Zm11-2.812.129,1.488a4.3,4.3,0,0,1,3.621-1.723,3.618,3.618,0,0,1,2.959,1.184A5.635,5.635,0,0,1,98.08-8.168V0H94.119V-8a2.14,2.14,0,0,0-.387-1.412,1.789,1.789,0,0,0-1.406-.451,1.883,1.883,0,0,0-1.723.914V0H86.654V-12.68Z" transform="translate(795.5 7016.397)" fill="#12263f"/>
  </g>
</svg>
