<svg id="Grupo_120695" data-name="Grupo 120695" xmlns="http://www.w3.org/2000/svg" xmlns:xlink="http://www.w3.org/1999/xlink" width="136.285" height="130.268" viewBox="0 0 136.285 130.268">
  <defs>
    <clipPath id="clip-path">
      <rect id="Rectángulo_38084" data-name="Rectángulo 38084" width="136.285" height="130.267" fill="none"/>
    </clipPath>
  </defs>
  <g id="Grupo_120694" data-name="Grupo 120694" clip-path="url(#clip-path)">
    <path id="Trazado_182743" data-name="Trazado 182743" d="M136.285,88.777c-.655,1.141-.537,2.45-.745,3.677-3.139,18.5-18.615,33.912-37.191,37.07a46.5,46.5,0,0,1-21.534-1.264c-1.595-.481-1.958-1.024-1.9-2.694.964-1.467,1.458-1.628,3.364-1.062a40.555,40.555,0,0,0,20.492.848,42.01,42.01,0,0,0,24.644-66.962,39.332,39.332,0,0,0-9.274-8.75c-.092.854-.154,1.547-.245,2.235s-.193,1.4-.325,2.1A45.714,45.714,0,0,1,93.027,84.781a1.753,1.753,0,0,0-.908,1.59,43.383,43.383,0,0,1-3.284,15.1A46.676,46.676,0,0,1,70.1,123.587a50.354,50.354,0,0,1-14.485,5.68C32.943,134.1,9.664,121.039,2.573,98.92-3.328,80.51,1.016,64.3,14.648,50.6c1.215-1.221,1.809-1.244,3.263-.355.813,1.541.7,2.039-.722,3.445C7.605,63.16,3.183,74.6,4.316,88.053A40,40,0,0,0,16.878,114.3c10.089,9.652,22.185,13.381,36,11.391A37.014,37.014,0,0,0,64.1,122.174c-.567-.427-1.027-.762-1.475-1.111C51.271,112.236,45.05,100.69,44.238,86.3a1.76,1.76,0,0,0-.957-1.56,44.945,44.945,0,0,1-10.429-9.2A45.98,45.98,0,0,1,22.1,47.276a44.909,44.909,0,0,1,4.307-20.6C33.689,11.831,45.468,2.777,61.883.464A45.782,45.782,0,0,1,113,35.38c.443,1.823.175,2.417-1.435,3.175-1.536.032-2.124-.868-2.456-2.248C104.249,16.077,85.245,2.114,64.689,4.181,46.6,6,34.493,15.911,28.243,32.953a31.889,31.889,0,0,0-1.9,9.525c.379-.132.63-.2.869-.3,13.558-5.759,26.949-5.451,40.146,1.144a1.9,1.9,0,0,0,1.951-.165,45.777,45.777,0,0,1,30.99-3.9,53.747,53.747,0,0,1,11.792,4.31,52.647,52.647,0,0,1,10.922,8.317A46.061,46.061,0,0,1,136,78.949c.034.269-.147.646.282.784ZM74.039,50.152c1.718-1.01,2.264-.944,3.727.452A46.188,46.188,0,0,1,90.385,71.181a57.829,57.829,0,0,1,1.768,9.091,1.435,1.435,0,0,0,.339-.106c10.827-7.889,16.608-18.572,17.665-31.879a1.346,1.346,0,0,0-.869-1.531,41.745,41.745,0,0,0-26.707-3.868A35.306,35.306,0,0,0,70.329,47.3c-.3-.067-.5.121-.73.25A42.185,42.185,0,0,0,48.235,81.92a1.46,1.46,0,0,0,.986,1.619,42.834,42.834,0,0,0,14.161,4.2,40.6,40.6,0,0,0,20.9-2.951c4.844-2.1,3.961-.893,3.57-6.107-.006-.089-.017-.177-.031-.264A41.724,41.724,0,0,0,74.912,53.583a2.845,2.845,0,0,1-.874-3.431M48.423,87.759c.059.79.062,1.455.165,2.1,2,12.5,8.128,22.379,18.653,29.494a1.417,1.417,0,0,0,1.861,0,41.742,41.742,0,0,0,14-15.17A40.871,40.871,0,0,0,88,87.708c-13.207,5.88-26.321,5.823-39.581.05m-4.3-7.3a2,2,0,0,0,.181-.427c.095-.744.144-1.5.264-2.235A46.294,46.294,0,0,1,62.89,47.167c.369-.279,1.047-.428.983-.958-.061-.5-.73-.562-1.158-.736-11.25-4.573-22.495-4.622-33.644.27-3.545,1.555-3.11.715-2.707,4.59.055.528.057,1.063.137,1.586a41.924,41.924,0,0,0,9.915,21.652,37.574,37.574,0,0,0,7.71,6.89" transform="translate(0 0)" fill="#030303"/>
    <path id="Trazado_182744" data-name="Trazado 182744" d="M197.167,213.565a46.676,46.676,0,0,0,18.736-22.12,43.367,43.367,0,0,0,3.284-15.1,1.752,1.752,0,0,1,.908-1.59,45.716,45.716,0,0,0,20.541-30.807c.131-.7.232-1.4.325-2.1s.153-1.38.245-2.235a39.333,39.333,0,0,1,9.274,8.75,42.01,42.01,0,0,1-24.644,66.962,40.559,40.559,0,0,1-20.492-.848c-1.906-.566-2.4-.405-3.364,1.062l-4.814-1.979m40.627-32.733c-1.162-1.783-2.194-3.379-3.239-4.966-.924-1.4-2.018-1.764-3.087-1.037s-1.135,1.846-.229,3.267a8.8,8.8,0,0,0,.662.993,15.607,15.607,0,0,1,3.909,12.957,2.223,2.223,0,0,0,0,.4c.048,1.544.8,2.475,2,2.475s1.98-.94,1.991-2.478c.014-2.083.007-4.167-.032-6.249a3.241,3.241,0,0,1,.583-1.981c1.388-2.053,2.728-4.139,4.073-6.22.893-1.382.76-2.552-.338-3.236-1.06-.66-2.11-.308-2.994,1.028-1.069,1.617-2.122,3.244-3.3,5.051" transform="translate(-127.067 -89.978)" fill="#ffed00"/>
    <path id="Trazado_182745" data-name="Trazado 182745" d="M159.841,50.769a53.765,53.765,0,0,0-11.792-4.31,45.777,45.777,0,0,0-30.99,3.9,1.9,1.9,0,0,1-1.951.165c-13.2-6.594-26.589-6.9-40.146-1.144-.239.1-.49.173-.869.3a31.892,31.892,0,0,1,1.9-9.525c6.25-17.041,18.355-26.953,36.447-28.772C133,9.324,152,23.288,156.864,43.516c.332,1.38.92,2.28,2.456,2.248a21.847,21.847,0,0,1,.521,5m-42.406-30.9a10.219,10.219,0,0,0-3.369,19.861,9.171,9.171,0,0,0,9.8-2.11c.983-1.086,1.038-2.208.149-3.059-.843-.808-1.92-.733-2.942.2a5.393,5.393,0,0,1-6.6.8,6.246,6.246,0,1,1,6.338-10.754,1.98,1.98,0,0,0,2.983-.6,2.069,2.069,0,0,0-.956-2.816,9.61,9.61,0,0,0-5.413-1.519" transform="translate(-47.75 -7.21)" fill="#009fe3"/>
    <path id="Trazado_182746" data-name="Trazado 182746" d="M29.606,132.97a45.982,45.982,0,0,0,10.752,28.265,44.943,44.943,0,0,0,10.429,9.2,1.76,1.76,0,0,1,.958,1.56c.812,14.391,7.033,25.938,18.383,34.765.449.349.908.684,1.475,1.111a37,37,0,0,1-11.219,3.521c-13.814,1.99-25.91-1.739-36-11.391a40.006,40.006,0,0,1-12.562-26.252c-1.133-13.453,3.289-24.893,12.874-34.364,1.423-1.406,1.535-1.9.722-3.445l4.188-2.968m5.02,48.944-.281-.035c-.926-3.217-1.841-6.436-2.782-9.648-.433-1.48-1.264-2.136-2.533-2.038a2.388,2.388,0,0,0-2.24,2.243q-1.469,7.619-2.915,15.243c-.285,1.5.324,2.563,1.539,2.763,1.254.206,2.1-.514,2.4-2.051.546-2.811,1.087-5.623,1.7-8.783.9,3.129,1.743,5.915,2.5,8.723.346,1.292.989,2.184,2.377,2.3,1.186.1,2.038-.718,2.507-2.288.818-2.735,1.632-5.472,2.456-8.235.415.282.365.663.426,1,.446,2.481.883,4.963,1.343,7.441a2.02,2.02,0,0,0,2.4,1.89,1.985,1.985,0,0,0,1.544-2.524c-.925-5.225-1.9-10.441-2.841-15.663a2.427,2.427,0,0,0-1.1-1.731,2.333,2.333,0,0,0-3.542,1.513c-1.016,3.283-1.97,6.586-2.95,9.881" transform="translate(-7.508 -85.695)" fill="#e6007e"/>
    <path id="Trazado_182747" data-name="Trazado 182747" d="M161.46,135.868a2.845,2.845,0,0,0,.874,3.431,41.727,41.727,0,0,1,12.911,24.837q.02.131.031.264c.39,5.214,1.274,4-3.571,6.107a40.6,40.6,0,0,1-20.9,2.951,42.832,42.832,0,0,1-14.161-4.2,1.46,1.46,0,0,1-.986-1.619,42.182,42.182,0,0,1,21.365-34.368c.228-.129.434-.318.73-.251a15.1,15.1,0,0,1,3.709,2.85m-8.543,16.111c0-.862,0-1.387,0-1.912,0-.576.028-1.153-.01-1.726a2.014,2.014,0,0,0-2.125-2.061c-1.172.035-1.847.758-1.852,2.119-.017,5.4,0,10.8-.009,16.206a1.95,1.95,0,0,0,2.552,1.988,2.1,2.1,0,0,0,1.429-2.035c.046-1.306.011-2.614.011-3.985a2.758,2.758,0,0,1,1.245.951c1.531,1.474,3.021,2.991,4.571,4.444a2,2,0,0,0,3.522-1.649,2.669,2.669,0,0,0-.987-1.529c-1.979-1.9-3.924-3.839-5.955-5.683-.845-.767-.789-1.229.042-1.945,1.875-1.617,3.682-3.315,5.5-5a2.119,2.119,0,0,0,.385-3.058,2.164,2.164,0,0,0-2.993,0c-.417.327-.791.708-1.182,1.067-1.3,1.19-2.595,2.381-4.146,3.8" transform="translate(-87.422 -85.716)" fill="#1c1c1c"/>
    <path id="Trazado_182748" data-name="Trazado 182748" d="M201.521,126.621a15.109,15.109,0,0,0-3.709-2.851,35.312,35.312,0,0,1,12.252-4.414,41.744,41.744,0,0,1,26.707,3.868,1.347,1.347,0,0,1,.869,1.531c-1.057,13.307-6.838,23.99-17.665,31.879a1.4,1.4,0,0,1-.339.106,57.836,57.836,0,0,0-1.768-9.09,46.194,46.194,0,0,0-12.619-20.577c-1.464-1.4-2.009-1.462-3.728-.452" transform="translate(-127.483 -76.469)" fill="#18ac0b"/>
    <path id="Trazado_182749" data-name="Trazado 182749" d="M136.2,246.744c13.26,5.772,26.375,5.83,39.582-.05a40.869,40.869,0,0,1-4.906,16.479,41.74,41.74,0,0,1-14,15.17,1.418,1.418,0,0,1-1.861,0c-10.525-7.114-16.652-17-18.653-29.493-.1-.648-.106-1.313-.166-2.1" transform="translate(-87.774 -158.986)" fill="red"/>
    <path id="Trazado_182750" data-name="Trazado 182750" d="M91.434,156.7a37.573,37.573,0,0,1-7.71-6.89,41.924,41.924,0,0,1-9.915-21.652c-.079-.524-.081-1.058-.137-1.586-.4-3.875-.838-3.034,2.707-4.59,11.15-4.892,22.394-4.843,33.644-.27.428.174,1.1.233,1.158.736.064.529-.614.679-.983.958a46.294,46.294,0,0,0-18.319,30.632c-.12.74-.17,1.491-.264,2.235a2,2,0,0,1-.181.427" transform="translate(-47.308 -76.237)" fill="#0058ff"/>
    <path id="Trazado_182751" data-name="Trazado 182751" d="M298.422,243.935c1.18-1.806,2.233-3.434,3.3-5.051.884-1.336,1.934-1.688,2.994-1.028,1.1.684,1.231,1.854.338,3.236-1.345,2.082-2.685,4.168-4.073,6.22a3.241,3.241,0,0,0-.583,1.981c.039,2.082.046,4.166.032,6.249-.01,1.538-.791,2.478-1.991,2.478s-1.955-.93-2-2.475a2.222,2.222,0,0,1,0-.4,15.607,15.607,0,0,0-3.909-12.957,8.807,8.807,0,0,1-.662-.993c-.906-1.42-.825-2.55.229-3.267s2.163-.366,3.087,1.037c1.045,1.587,2.076,3.183,3.239,4.966" transform="translate(-187.695 -153.081)" fill="#030303"/>
    <path id="Trazado_182752" data-name="Trazado 182752" d="M177.543,35.6a9.6,9.6,0,0,1,5.413,1.519,2.069,2.069,0,0,1,.956,2.816,1.98,1.98,0,0,1-2.984.6,6.246,6.246,0,1,0-6.338,10.754,5.393,5.393,0,0,0,6.6-.8c1.021-.936,2.1-1.01,2.942-.2.889.852.834,1.974-.149,3.059a9.171,9.171,0,0,1-9.8,2.11A10.219,10.219,0,0,1,177.543,35.6" transform="translate(-107.859 -22.941)" fill="#030303"/>
    <path id="Trazado_182753" data-name="Trazado 182753" d="M56.663,249.293c.979-3.3,1.933-6.6,2.95-9.881a2.333,2.333,0,0,1,3.542-1.513,2.427,2.427,0,0,1,1.1,1.731c.942,5.222,1.916,10.438,2.841,15.663a1.985,1.985,0,0,1-1.544,2.524,2.02,2.02,0,0,1-2.4-1.89c-.46-2.478-.9-4.96-1.343-7.441-.061-.34-.011-.721-.426-1-.824,2.763-1.638,5.5-2.456,8.235-.469,1.57-1.321,2.386-2.507,2.288-1.388-.114-2.031-1.007-2.377-2.3-.754-2.809-1.595-5.594-2.5-8.723-.61,3.16-1.152,5.972-1.7,8.783-.3,1.537-1.146,2.257-2.4,2.051-1.216-.2-1.824-1.259-1.539-2.763q1.444-7.624,2.915-15.243a2.388,2.388,0,0,1,2.24-2.243c1.269-.1,2.1.558,2.533,2.038.941,3.212,1.856,6.432,2.782,9.648l.281.035" transform="translate(-29.544 -153.073)" fill="#030303"/>
    <path id="Trazado_182754" data-name="Trazado 182754" d="M176.972,176.04c1.551-1.424,2.848-2.615,4.146-3.8.391-.359.765-.74,1.182-1.067a2.164,2.164,0,0,1,2.993,0,2.119,2.119,0,0,1-.385,3.058c-1.82,1.681-3.626,3.379-5.5,5-.831.716-.887,1.178-.042,1.945,2.031,1.844,3.976,3.782,5.955,5.683a2.669,2.669,0,0,1,.987,1.529,2,2,0,0,1-3.522,1.649c-1.55-1.453-3.041-2.97-4.571-4.444a2.758,2.758,0,0,0-1.245-.951c0,1.371.035,2.679-.011,3.985a2.1,2.1,0,0,1-1.429,2.035,1.95,1.95,0,0,1-2.552-1.988c0-5.4-.009-10.8.009-16.206,0-1.361.679-2.084,1.852-2.119a2.014,2.014,0,0,1,2.125,2.061c.038.573.009,1.151.01,1.726,0,.525,0,1.051,0,1.912" transform="translate(-111.476 -109.778)" fill="#030303"/>
  </g>
</svg>
