<svg id="Grupo_120391" data-name="Grupo 120391" xmlns="http://www.w3.org/2000/svg" xmlns:xlink="http://www.w3.org/1999/xlink" width="82.257" height="85" viewBox="0 0 82.257 85">
  <defs>
    <clipPath id="clip-path">
      <rect id="Rectángulo_37896" data-name="Rectángulo 37896" width="82.257" height="85.001" fill="none"/>
    </clipPath>
  </defs>
  <g id="Grupo_120390" data-name="Grupo 120390" clip-path="url(#clip-path)">
    <path id="Trazado_182457" data-name="Trazado 182457" d="M28.053,0h6.474a2.015,2.015,0,0,1,1,2c-.046,2.43,0,4.861-.027,7.291,0,.5.107.676.636.653,1.02-.044,2.044.008,3.065-.022.44-.013.565.13.552.56-.029.993-.009,1.988-.009,2.983,0,2.178,0,2.16,2.212,2.141.512,0,.66-.141.649-.65-.032-1.491,0-2.983-.021-4.474-.007-.43.112-.573.553-.56,1.021.03,2.045-.022,3.065.022.529.023.641-.158.636-.653-.024-2.458.016-4.917-.025-7.374a1.952,1.952,0,0,1,1-1.917H54.28a1.753,1.753,0,0,1,1.048,1.867c-.038,2.458,0,4.917-.024,7.376-.006.533.126.728.687.7.965-.046,1.936.029,2.9-.028.612-.036.736.184.707.743-.047.909-.029,1.823-.007,2.734.017.71-.313,1.662.128,2.066.474.434,1.42.073,2.156.139.446.04.557-.129.551-.554-.023-1.491.011-2.984-.02-4.475-.01-.489.084-.68.624-.652.964.05,1.936-.031,2.9.029.654.041.771-.2.764-.8-.032-2.431.008-4.862-.025-7.293A1.731,1.731,0,0,1,67.726,0h6.308a1.7,1.7,0,0,1,1.148,1.86c-.026,2.462.006,4.924-.021,7.385-.006.532.117.727.68.7.938-.048,1.884.038,2.82-.03.665-.048.777.2.75.79-.047.994-.013,1.991-.013,2.987,0,1.9,0,1.942,1.864,1.881.777-.026,1,.142,1,.966q-.04,33.734,0,67.467c0,.768-.134,1-.96,1q-40.127-.039-80.255,0c-.827,0-.961-.228-.96-1Q.113,50.892.1,17.781c0-.708-.3-1.621.132-2.07.4-.415,1.316-.139,2-.1.613.031.731-.2.716-.756-.038-1.382.016-2.767-.026-4.149-.018-.587.085-.838.75-.789.936.068,1.882-.018,2.82.03.564.029.686-.166.68-.7-.027-2.462,0-4.924-.021-7.385A1.694,1.694,0,0,1,8.3,0h6.308a1.736,1.736,0,0,1,1.059,1.858c-.033,2.431.008,4.862-.025,7.293-.008.6.112.837.765.8.963-.06,1.935.021,2.9-.03.542-.028.641.165.622.653-.037.965-.027,1.934-.006,2.9.015.683-.3,1.593.121,1.99.456.428,1.367.065,2.073.139.513.054.658-.116.645-.633-.037-1.436.014-2.873-.026-4.309-.016-.559.1-.777.709-.742.964.056,1.935-.018,2.9.028.562.027.691-.171.686-.7-.026-2.458.013-4.918-.024-7.376A1.748,1.748,0,0,1,28.053,0M22.747,35.352c0,5.419.011,10.838-.015,16.257,0,.651.165.829.822.826,5-.028,10.01-.012,15.014-.018,1.295,0,1.166.169,1.166-1.129q0-15.386,0-30.772c0-2.152,0-2.128-2.173-2.115-.585,0-.68.22-.671.725.026,1.437,0,2.875.016,4.313.005.425-.057.647-.574.644q-5.1-.032-10.2,0c-.434,0-.575-.129-.564-.565.028-1.05.009-2.1.009-3.152,0-1.953,0-1.92-1.983-1.963-.691-.015-.867.17-.863.862.031,5.363.017,10.727.017,16.091m36.839.089c0-4.951.006-9.9-.007-14.852,0-.707.323-1.675-.149-2.051-.445-.355-1.374-.08-2.086-.129-.475-.032-.605.134-.6.6.028,1.493,0,2.987.017,4.48,0,.39-.042.6-.523.594q-5.145-.03-10.29,0c-.472,0-.538-.19-.53-.587.02-1.023.007-2.046.007-3.07,0-2.014,0-1.978-2.006-2.028-.712-.018-.849.2-.848.87q.034,16.139,0,32.277c0,.659.127.9.848.891q7.676-.05,15.352,0c.64,0,.83-.145.827-.812-.029-5.393-.016-10.787-.016-16.18M19.919,35.4V20.552c0-2.19,0-2.17-2.2-2.15-.528,0-.646.164-.636.66.031,1.465,0,2.931.02,4.4.007.447-.088.627-.585.624q-5.061-.031-10.123,0c-.537,0-.647-.183-.632-.668.032-.994.01-1.991.01-2.986,0-2.022,0-2-2.009-2.027-.62-.009-.842.116-.841.8q.036,16.179,0,32.358c0,.684.178.877.87.873q7.634-.044,15.267,0c.676,0,.88-.15.876-.852-.03-5.393-.017-10.786-.017-16.179M51.061,82.133c2.6,0,5.2-.02,7.8.015.6.008.722-.176.719-.742q-.034-7.052,0-14.1c0-.575-.134-.738-.725-.735q-7.758.037-15.516,0c-.589,0-.731.169-.728.74q.033,7.052,0,14.1c0,.579.152.742.734.735,2.572-.032,5.144-.014,7.716-.014M70.877,66.561c-2.544,0-5.088.018-7.631-.013-.627-.008-.853.13-.848.814q.047,7.008,0,14.017c0,.619.164.793.787.79q7.714-.037,15.428,0c.652,0,.773-.225.77-.815q-.031-7.008,0-14.017c0-.626-.182-.8-.8-.789-2.571.032-5.142.013-7.714.013M11.464,82.126c2.6,0,5.2-.014,7.8.012.517.005.647-.144.645-.651q-.028-7.131,0-14.263c0-.512-.139-.648-.649-.646q-7.8.028-15.591,0c-.539,0-.7.143-.7.691q.031,7.09,0,14.18c0,.553.168.693.7.688,2.6-.025,5.2-.011,7.8-.011M31.206,66.583c-2.6,0-5.2.014-7.8-.012-.514,0-.651.143-.649.652q.028,7.135,0,14.27c0,.514.144.65.652.648q7.8-.027,15.6,0c.537,0,.7-.142.7-.693q-.031-7.093,0-14.187c0-.555-.173-.695-.705-.69-2.6.024-5.2.011-7.8.011m0-2.837c2.628,0,5.256-.016,7.884.013.552.006.706-.157.7-.7-.028-1.881,0-3.762-.019-5.642-.009-.709.32-1.65-.163-2.059-.411-.348-1.321-.139-2.008-.118s-1.58-.315-1.975.151c-.333.394-.118,1.263-.12,1.922-.007,2.234,0,2.22-2.21,2.162-.461-.012-.628-.134-.613-.609.031-.995-.016-1.992.02-2.987.018-.507-.142-.652-.651-.661-2.2-.038-2.2-.055-2.2,2.157,0,2.165,0,2.145-2.195,2.1-.536-.01-.65-.2-.635-.68.03-.967-.013-1.937.018-2.9.016-.489-.112-.694-.642-.674-.994.038-1.993.043-2.987,0-.563-.026-.686.179-.68.7q.038,3.568,0,7.136c-.006.533.129.7.683.7,2.6-.029,5.2-.013,7.8-.013m19.819-.016c2.655,0,5.31,0,7.965,0,.365,0,.609.007.6-.5-.027-2.488-.019-4.977,0-7.466,0-.384-.087-.534-.5-.523-1.078.027-2.157.024-3.235,0-.4-.009-.525.129-.516.524.023,1.023-.024,2.048.02,3.069.024.563-.18.721-.708.681a11.549,11.549,0,0,0-1.575,0c-.461.028-.634-.117-.617-.6.035-.994-.019-1.992.022-2.986.022-.529-.113-.747-.673-.685-.681.076-1.569-.281-2,.133s-.125,1.31-.131,1.992c-.019,2.186-.007,2.162-2.207,2.156-.581,0-.682-.207-.665-.715.034-.967-.027-1.937.024-2.9.03-.569-.174-.688-.695-.667-.966.039-1.937.041-2.9,0-.515-.022-.653.13-.647.644q.041,3.608,0,7.217c-.006.514.133.646.644.64,2.6-.027,5.2-.013,7.8-.013m-39.569.012c2.6,0,5.2-.015,7.795.012.539.006.7-.137.689-.684-.033-1.907,0-3.814-.02-5.721-.008-.681.308-1.572-.135-1.989s-1.317-.12-2-.112-1.562-.309-1.99.138-.123,1.319-.129,2c-.017,2.226-.006,2.214-2.285,2.094-.43-.023-.577-.154-.567-.582.024-1.022-.015-2.046.017-3.067.015-.473-.14-.6-.607-.608-2.237-.053-2.237-.068-2.237,2.133,0,2.171,0,2.148-2.157,2.13-.571,0-.7-.2-.679-.72.034-.994-.011-1.99.019-2.985.013-.446-.144-.566-.57-.555-.994.026-1.991.034-2.985,0-.525-.019-.714.121-.707.682.03,2.377.034,4.754,0,7.131-.009.609.2.72.754.714,2.6-.028,5.2-.012,7.8-.012m59.4.008c2.543,0,5.086-.025,7.629.016.708.012.963-.143.938-.9-.059-1.822-.019-3.648-.019-5.472,0-2.156,0-2.156-2.144-2.156-2.094,0-2.094,0-2.094,2.115,0,2.209,0,2.193-2.2,2.1-.481-.02-.614-.189-.6-.639.023-.994-.006-1.99.012-2.985.007-.412-.118-.574-.561-.6-2.3-.146-2.3-.159-2.3,2.086v.083c0,2.141,0,2.123-2.166,2.059-.529-.016-.654-.213-.641-.692.026-.939-.017-1.88.017-2.819.019-.533-.146-.74-.7-.718-.966.039-1.936.045-2.9,0-.607-.03-.734.206-.728.764.027,2.349.031,4.7,0,7.047-.009.6.2.734.759.728,2.57-.026,5.141-.012,7.712-.012M11.417,12.791H7.857c-2.08,0-2.057,0-2.063,2.047,0,.581.162.742.741.736,2.815-.029,5.631-.013,8.446-.013,2.161,0,2.145,0,2.1-2.173-.01-.469-.14-.612-.609-.605-1.683.025-3.367.01-5.051.01m19.789-.006H27.642c-2.072,0-2.049,0-2.058,2.056,0,.581.156.744.739.738,2.818-.03,5.636-.013,8.454-.013,2.182,0,2.167,0,2.1-2.183-.014-.47-.151-.614-.617-.607-1.685.023-3.371.009-5.056.009m19.918,0H47.477c-2.05,0-2.026,0-2.034,2.069,0,.584.166.737.741.731,2.818-.029,5.636-.013,8.454-.013,2.15,0,2.13,0,2.113-2.157,0-.521-.154-.65-.654-.641-1.657.029-3.315.011-4.973.011m19.81-.015H67.288c-2.081,0-2.052,0-2.065,2.073,0,.655.229.77.816.764,2.817-.027,5.635-.012,8.453-.012,2.093,0,2.064,0,2.072-2.072,0-.657-.239-.777-.823-.764-1.6.034-3.2.012-4.806.012M70.91,31.947a19.512,19.512,0,0,0-2.528,3.871,2.588,2.588,0,0,0,.8,3.237,2.783,2.783,0,0,0,3.447.007,2.559,2.559,0,0,0,.814-3.234,19.511,19.511,0,0,0-2.533-3.881M49.653,6.336V7.829c0,2.143,0,2.118,2.171,2.114.581,0,.681-.207.671-.719-.029-1.409-.01-2.82-.01-4.23,0-2.326,0-2.313-2.333-2.18-.406.023-.513.153-.505.535.021.995.007,1.99.007,2.986M32.681,6.39V4.983c0-2.211,0-2.193-2.186-2.17-.5.006-.668.13-.656.646.033,1.433.011,2.868.011,4.3,0,2.288,0,2.275,2.268,2.177.427-.018.581-.136.57-.571-.025-.992-.008-1.985-.008-2.979m-19.86.036V4.936c0-2.191,0-2.177-2.229-2.121-.462.011-.621.131-.613.606.027,1.461.01,2.923.01,4.385,0,2.211,0,2.211,2.23,2.121a.515.515,0,0,1,.083,0c.4.049.531-.134.524-.524-.018-.993-.006-1.986-.005-2.979m38.021,12c-.7.073-1.75-.315-2.449.159-.357.243-.1,1.388-.123,2.126a.713.713,0,0,1,0,.083c-.057.373.119.465.469.458.993-.02,1.987-.007,2.981-.007,2.3,0,2.287,0,2.217-2.284-.014-.451-.155-.558-.572-.543-.772.028-1.546.008-2.522.008M31.207,18.4c-.745,0-1.49.015-2.233-.006-.4-.011-.618.066-.591.535a17.465,17.465,0,0,1,0,1.819c-.019.41.149.517.531.51.992-.019,1.985-.006,2.978-.006,2.312,0,2.312,0,2.193-2.306a.5.5,0,0,1,0-.083c.043-.365-.13-.476-.48-.469-.8.018-1.6.006-2.4.005m-19.752,0h-.661c-2.3,0-2.291,0-2.213,2.288.015.42.113.579.555.565.991-.03,1.983-.009,2.974-.009,2.3,0,2.291,0,2.172-2.328-.02-.384-.114-.536-.515-.523-.77.025-1.542.007-2.313.007M70.88,21.261h.744c2.173,0,2.156,0,2.131-2.158-.006-.528-.142-.734-.7-.712-.963.038-1.929.01-2.893.01C68,18.4,68,18.4,68.05,20.56a.56.56,0,0,1,0,.083c-.057.454.118.646.6.625.743-.031,1.488-.008,2.232-.008" transform="translate(0 0.001)" fill="#020101"/>
    <path id="Trazado_182458" data-name="Trazado 182458" d="M128.079,120.617c0-5.364.014-10.727-.017-16.091,0-.692.172-.877.863-.862,1.982.043,1.983.01,1.983,1.963,0,1.051.019,2.1-.009,3.152-.011.436.13.567.564.565q5.1-.022,10.2,0c.517,0,.579-.219.574-.644-.018-1.438.01-2.876-.016-4.313-.009-.5.086-.722.671-.725,2.173-.012,2.173-.037,2.173,2.115q0,15.386,0,30.772c0,1.3.129,1.128-1.166,1.129-5,.005-10.01-.01-15.014.018-.657,0-.826-.175-.822-.826.026-5.419.015-10.838.015-16.257m8.511,7.136a5.525,5.525,0,0,0,5.1-7.8,26.1,26.1,0,0,0-4.794-6.722c-.195-.217-.341-.326-.588-.049a28.756,28.756,0,0,0-4.89,6.858,5.555,5.555,0,0,0,5.174,7.714" transform="translate(-105.332 -85.264)" fill="#e50185"/>
    <path id="Trazado_182459" data-name="Trazado 182459" d="M256.873,120.492c0,5.393-.013,10.787.016,16.18,0,.667-.187.815-.827.812q-7.676-.039-15.352,0c-.722,0-.849-.231-.848-.891q.029-16.139,0-32.277c0-.674.136-.888.848-.87,2.005.05,2.006.013,2.006,2.028,0,1.023.014,2.047-.007,3.07-.008.4.058.59.53.587q5.145-.029,10.29,0c.481,0,.527-.2.523-.594-.016-1.493.011-2.987-.017-4.48-.009-.466.122-.632.6-.6.713.049,1.641-.226,2.086.129.472.376.147,1.344.149,2.051.014,4.951.007,9.9.007,14.853m-8.505,7.047a5.555,5.555,0,0,0,5.141-7.779,29.164,29.164,0,0,0-4.843-6.774c-.22-.247-.362-.249-.584,0a26.182,26.182,0,0,0-4.828,6.779,5.522,5.522,0,0,0,5.116,7.775" transform="translate(-197.287 -85.05)" fill="#fbee00"/>
    <path id="Trazado_182460" data-name="Trazado 182460" d="M33.45,120.668c0,5.393-.013,10.786.017,16.179,0,.7-.2.856-.876.852q-7.634-.044-15.267,0c-.693,0-.872-.189-.87-.873q.031-16.179,0-32.358c0-.685.221-.81.841-.8,2.009.028,2.009,0,2.009,2.027,0,1,.023,1.992-.009,2.987-.016.485.095.672.632.668q5.061-.038,10.123,0c.5,0,.592-.177.585-.624-.024-1.465.011-2.932-.02-4.4-.01-.5.108-.655.636-.66,2.2-.02,2.2-.04,2.2,2.15v14.851m-14.166,1.614a9.639,9.639,0,0,0,.155,1.062,5.447,5.447,0,0,0,4.2,4.232,5.325,5.325,0,0,0,5.705-1.955,5.149,5.149,0,0,0,.625-5.895,29.6,29.6,0,0,0-4.695-6.5c-.246-.278-.4-.269-.648.005a28.417,28.417,0,0,0-4.658,6.422,5.6,5.6,0,0,0-.688,2.626" transform="translate(-13.531 -85.264)" fill="#03a6e2"/>
    <path id="Trazado_182461" data-name="Trazado 182461" d="M248.52,390.612c-2.572,0-5.145-.018-7.716.014-.582.007-.737-.156-.734-.735q.035-7.052,0-14.1c0-.571.14-.743.728-.74q7.758.035,15.516,0c.59,0,.728.161.725.735q-.036,7.052,0,14.1c0,.566-.12.75-.719.742-2.6-.035-5.2-.015-7.8-.015m-1.426-5.942q0,.788,0,1.576a1.559,1.559,0,0,0,.006.166,1.482,1.482,0,0,0,1.469,1.4,1.434,1.434,0,0,0,1.386-1.464,2.962,2.962,0,0,0,0-.662,4.737,4.737,0,0,1,2.093-5.043,1.776,1.776,0,0,0,.294-.291,1.441,1.441,0,0,0,.047-2.017,1.383,1.383,0,0,0-2.065,0c-.468.429-.925.875-1.348,1.348-.305.341-.52.385-.847.019a15.58,15.58,0,0,0-1.474-1.455,1.418,1.418,0,0,0-1.988,2.016,7.858,7.858,0,0,0,1.051,1.058,3.041,3.041,0,0,1,1.377,3.353" transform="translate(-197.459 -308.478)" fill="#fbee00"/>
    <path id="Trazado_182462" data-name="Trazado 182462" d="M360.03,374.946c2.571,0,5.143.018,7.714-.013.615-.007.8.163.8.789q-.038,7.008,0,14.017c0,.59-.118.819-.77.815q-7.714-.04-15.428,0c-.623,0-.79-.171-.787-.79q.038-7.008,0-14.017c0-.684.221-.821.848-.814,2.543.031,5.087.013,7.631.013m-1.252,6.456c-.133-.1-.174-.11-.174-.127-.018-.689-.024-1.379-.049-2.068a1.306,1.306,0,0,0-1.332-1.381,1.361,1.361,0,0,0-1.331,1.324q-.031,3.606,0,7.211a1.36,1.36,0,0,0,1.358,1.3,1.237,1.237,0,0,0,1.283-1.326,1.985,1.985,0,0,1,.778-1.628c.389-.38.631-.441.941.081.422.711.9,1.392,1.371,2.07a1.4,1.4,0,0,0,2.055.538,1.45,1.45,0,0,0,.228-2.059c-.582-.9-1.162-1.812-1.786-2.688a.523.523,0,0,1,.078-.829c.566-.526,1.111-1.078,1.64-1.642a1.35,1.35,0,1,0-1.887-1.93c-.448.41-.867.852-1.3,1.281-.632.631-1.264,1.263-1.875,1.874" transform="translate(-289.153 -308.385)" fill="#5a5858"/>
    <path id="Trazado_182463" data-name="Trazado 182463" d="M25.211,390.654c-2.6,0-5.2-.014-7.8.011-.534.005-.7-.134-.7-.688q.031-7.09,0-14.18c0-.548.16-.693.7-.691q7.8.028,15.591,0c.51,0,.651.134.649.646q-.029,7.131,0,14.263c0,.507-.129.656-.645.651-2.6-.026-5.2-.012-7.8-.012m-4.328-7.784c0,1.133-.022,2.266.007,3.4a1.478,1.478,0,0,0,1.612,1.6c1.768.024,3.536.022,5.3,0a1.423,1.423,0,0,0,1.6-1.5c-.028-.868-.6-1.356-1.623-1.365-1.105-.009-2.212-.037-3.314.012-.6.027-.749-.186-.724-.751.043-.965.034-1.934,0-2.9-.015-.469.133-.625.607-.612,1.132.03,2.265.016,3.4.008,1.065-.007,1.653-.518,1.655-1.418s-.6-1.438-1.649-1.447q-2.569-.022-5.138,0a1.531,1.531,0,0,0-1.73,1.739c-.015,1.077,0,2.155,0,3.232" transform="translate(-13.747 -308.527)" fill="#03a6e2"/>
    <path id="Trazado_182464" data-name="Trazado 182464" d="M136.662,375.083c2.6,0,5.2.013,7.8-.011.533,0,.708.135.706.69q-.031,7.093,0,14.187c0,.551-.165.695-.7.693q-7.8-.027-15.6,0c-.508,0-.654-.134-.652-.648q.029-7.135,0-14.27c0-.509.135-.657.649-.652,2.6.025,5.2.012,7.8.012m2.17,7.975c.231,1.175.436,2.227.646,3.277a1.689,1.689,0,0,0,.782,1.3,1.359,1.359,0,0,0,1.553-.114,1.552,1.552,0,0,0,.488-1.725c-.422-2.163-.873-4.321-1.3-6.483a1.535,1.535,0,0,0-1.218-1.4,1.477,1.477,0,0,0-1.576.822l-1.5,2.244c-.51-.76-.985-1.434-1.422-2.13a1.574,1.574,0,0,0-1.6-.941c-.834.128-1.148.748-1.294,1.515-.413,2.165-.854,4.325-1.275,6.488a1.4,1.4,0,0,0,1,1.794,1.386,1.386,0,0,0,1.754-1.188c.249-1.116.466-2.239.716-3.454.7.691.9,1.81,2.051,1.856,1.244.05,1.466-1.092,2.193-1.865" transform="translate(-105.457 -308.499)" fill="#e50185"/>
    <path id="Trazado_182465" data-name="Trazado 182465" d="M136.5,319.3c-2.6,0-5.2-.016-7.8.013-.554.006-.689-.164-.683-.7q.041-3.568,0-7.136c-.005-.525.117-.73.68-.7.994.045,1.992.04,2.987,0,.53-.02.658.185.642.674-.031.967.012,1.937-.018,2.9-.015.482.1.669.635.68,2.2.042,2.195.063,2.195-2.1,0-2.212,0-2.195,2.2-2.157.509.009.67.153.651.661-.036.995.011,1.992-.02,2.987-.015.475.152.6.613.609,2.208.059,2.2.073,2.21-2.161,0-.659-.213-1.528.12-1.922.395-.466,1.3-.13,1.975-.151s1.6-.23,2.008.118c.483.409.154,1.351.163,2.059.023,1.881-.01,3.762.019,5.643.008.539-.146.7-.7.7-2.628-.029-5.256-.013-7.884-.013" transform="translate(-105.297 -255.555)" fill="#e50185"/>
    <path id="Trazado_182466" data-name="Trazado 182466" d="M248.353,319.42c-2.6,0-5.2-.015-7.8.013-.512.005-.65-.126-.644-.64q.042-3.608,0-7.217c-.006-.514.133-.666.647-.644.966.042,1.937.04,2.9,0,.521-.021.725.1.695.667-.051.965.01,1.936-.024,2.9-.018.509.084.714.665.715,2.2.006,2.188.03,2.207-2.156.006-.682-.306-1.573.131-1.992s1.319-.058,2-.133c.56-.062.7.155.673.685-.041.994.013,1.991-.022,2.986-.017.485.156.63.617.6a11.586,11.586,0,0,1,1.575,0c.528.04.732-.118.708-.681-.043-1.021,0-2.046-.02-3.069-.009-.395.112-.532.516-.523,1.078.023,2.157.026,3.235,0,.413-.01.5.14.5.523-.015,2.489-.022,4.978,0,7.466.005.508-.238.5-.6.5-2.655-.009-5.31,0-7.965,0" transform="translate(-197.328 -255.689)" fill="#f7f7f7"/>
    <path id="Trazado_182467" data-name="Trazado 182467" d="M24.93,319.283c-2.6,0-5.2-.015-7.795.012-.555.006-.763-.105-.754-.714.036-2.376.032-4.754,0-7.131-.007-.56.181-.7.707-.682.994.036,1.99.029,2.985,0,.426-.011.583.109.57.555-.03.994.015,1.991-.019,2.984-.018.519.108.715.679.72,2.157.018,2.157.041,2.157-2.13,0-2.2,0-2.186,2.236-2.133.467.011.622.135.607.608-.032,1.022.007,2.045-.017,3.067-.01.429.137.56.567.582,2.279.12,2.267.132,2.285-2.094.005-.684-.3-1.56.128-2s1.31-.13,1.991-.138,1.566-.3,2,.112.128,1.307.135,1.989c.021,1.907-.013,3.815.02,5.721.01.547-.151.69-.689.684-2.6-.027-5.2-.012-7.795-.012" transform="translate(-13.473 -255.539)" fill="#03a6e2"/>
    <path id="Trazado_182468" data-name="Trazado 182468" d="M359.943,319.419c-2.571,0-5.141-.015-7.712.012-.561.006-.768-.127-.759-.728.033-2.349.029-4.7,0-7.048-.006-.557.121-.794.728-.764.965.047,1.935.04,2.9,0,.556-.022.721.185.7.718-.033.939.009,1.88-.017,2.819-.013.478.112.676.641.691,2.167.064,2.166.083,2.166-2.059v-.083c0-2.245,0-2.232,2.3-2.086.443.028.568.19.561.6-.018.994.011,1.99-.012,2.985-.01.45.122.619.6.639,2.2.092,2.2.108,2.2-2.1,0-2.115,0-2.115,2.094-2.115,2.144,0,2.144,0,2.144,2.156,0,1.824-.04,3.65.019,5.472.025.761-.23.915-.938.9-2.542-.042-5.086-.016-7.629-.016" transform="translate(-289.088 -255.667)" fill="#5a5858"/>
    <path id="Trazado_182469" data-name="Trazado 182469" d="M38.265,72.024c1.684,0,3.368.015,5.051-.01.469-.007.6.136.609.605.049,2.174.065,2.173-2.1,2.173-2.815,0-5.631-.016-8.446.013-.579.006-.742-.155-.741-.736.006-2.046-.017-2.046,2.063-2.046h3.561" transform="translate(-26.848 -59.232)" fill="#03a6e2"/>
    <path id="Trazado_182470" data-name="Trazado 182470" d="M149.76,71.992c1.685,0,3.371.014,5.056-.009.466-.006.6.137.617.607.064,2.184.079,2.183-2.1,2.183-2.818,0-5.636-.016-8.454.013-.582.006-.741-.157-.739-.738.009-2.056-.013-2.056,2.058-2.056h3.564" transform="translate(-118.554 -59.206)" fill="#e50185"/>
    <path id="Trazado_182471" data-name="Trazado 182471" d="M261.709,71.961c1.658,0,3.316.018,4.973-.011.5-.009.65.12.654.641.016,2.157.036,2.157-2.113,2.157-2.818,0-5.636-.016-8.454.013-.576.006-.743-.146-.741-.731.008-2.069-.015-2.069,2.034-2.069h3.647" transform="translate(-210.585 -59.179)" fill="#fbee00"/>
    <path id="Trazado_182472" data-name="Trazado 182472" d="M373.179,71.875c1.6,0,3.2.022,4.806-.012.584-.012.825.108.823.764-.007,2.072.021,2.072-2.072,2.072-2.818,0-5.635-.015-8.453.012-.587.006-.82-.109-.816-.764.013-2.073-.016-2.073,2.065-2.073h3.646" transform="translate(-302.245 -59.107)" fill="#5a5858"/>
    <path id="Trazado_182473" data-name="Trazado 182473" d="M386.572,180a19.516,19.516,0,0,1,2.533,3.88,2.559,2.559,0,0,1-.814,3.234,2.782,2.782,0,0,1-3.447-.007,2.587,2.587,0,0,1-.8-3.237,19.5,19.5,0,0,1,2.528-3.87" transform="translate(-315.662 -148.049)" fill="#f7f7f7"/>
    <path id="Trazado_182474" data-name="Trazado 182474" d="M279.712,19.166c0-1,.014-1.991-.007-2.986-.008-.382.1-.512.505-.535,2.334-.133,2.333-.146,2.333,2.18,0,1.41-.019,2.821.01,4.23.01.511-.09.718-.671.719-2.171,0-2.171.028-2.171-2.114V19.166" transform="translate(-230.059 -12.829)" fill="#fbee00"/>
    <path id="Trazado_182475" data-name="Trazado 182475" d="M170.953,19.411c0,.993-.017,1.986.008,2.979.011.435-.144.553-.57.571-2.268.1-2.268.11-2.268-2.177,0-1.434.022-2.869-.011-4.3-.012-.516.154-.64.656-.646,2.186-.024,2.186-.041,2.186,2.169q0,.7,0,1.407" transform="translate(-138.272 -13.021)" fill="#e50185"/>
    <path id="Trazado_182476" data-name="Trazado 182476" d="M59.065,19.407c0,.993-.012,1.986.006,2.979.007.389-.125.573-.524.524a.515.515,0,0,0-.083,0c-2.23.089-2.23.089-2.23-2.121,0-1.462.017-2.924-.01-4.385-.009-.476.15-.595.613-.606,2.229-.056,2.229-.07,2.229,2.122q0,.745,0,1.489" transform="translate(-46.244 -12.98)" fill="#03a6e2"/>
    <path id="Trazado_182477" data-name="Trazado 182477" d="M274.205,103.417c.976,0,1.75.02,2.521-.008.416-.015.558.092.572.543.07,2.285.085,2.284-2.217,2.284-.994,0-1.988-.013-2.981.007-.35.007-.526-.085-.468-.458a.679.679,0,0,0,0-.083c.021-.737-.234-1.883.124-2.126.7-.474,1.75-.086,2.449-.159" transform="translate(-223.363 -84.995)" fill="#f7f7f7"/>
    <path id="Trazado_182478" data-name="Trazado 182478" d="M162.721,103.662c.8,0,1.6.012,2.4-.006.349-.008.523.1.48.469a.494.494,0,0,0,0,.083c.119,2.306.119,2.306-2.193,2.306-.993,0-1.986-.013-2.978.006-.382.007-.55-.1-.531-.51a17.466,17.466,0,0,0,0-1.819c-.028-.47.194-.547.591-.535.744.021,1.489.006,2.233.006" transform="translate(-131.515 -85.257)" fill="#e50185"/>
    <path id="Trazado_182479" data-name="Trazado 182479" d="M51.11,103.682c.771,0,1.543.018,2.313-.007.4-.013.5.139.515.523.119,2.329.13,2.328-2.172,2.328-.991,0-1.983-.021-2.974.009-.442.013-.541-.145-.555-.565-.079-2.289-.091-2.288,2.212-2.288h.661" transform="translate(-39.655 -85.272)" fill="#03a6e2"/>
    <path id="Trazado_182480" data-name="Trazado 182480" d="M386.166,106.48c-.744,0-1.489-.023-2.232.008-.48.02-.655-.171-.6-.625a.56.56,0,0,0,0-.083c-.051-2.16-.051-2.16,2.116-2.16.965,0,1.93.028,2.893-.01.553-.022.689.185.7.712.025,2.158.042,2.158-2.131,2.158h-.744" transform="translate(-315.286 -85.218)" fill="#5a5858"/>
    <path id="Trazado_182481" data-name="Trazado 182481" d="M149.881,171.089a5.556,5.556,0,0,1-5.174-7.714,28.761,28.761,0,0,1,4.89-6.859c.247-.277.393-.168.588.049a26.091,26.091,0,0,1,4.794,6.721,5.525,5.525,0,0,1-5.1,7.8m0-2.832a2.717,2.717,0,0,0,2.5-3.876,20.048,20.048,0,0,0-2.211-3.473c-.237-.325-.375-.278-.595.015a25.519,25.519,0,0,0-2.234,3.46,2.746,2.746,0,0,0,2.538,3.874" transform="translate(-118.623 -128.6)" fill="#020101"/>
    <path id="Trazado_182482" data-name="Trazado 182482" d="M261.844,171.079a5.522,5.522,0,0,1-5.116-7.775,26.18,26.18,0,0,1,4.828-6.779c.222-.248.365-.246.585,0a29.165,29.165,0,0,1,4.843,6.774,5.555,5.555,0,0,1-5.141,7.779m0-10.534a18.609,18.609,0,0,0-2.573,3.94,2.561,2.561,0,0,0,.849,3.165,2.788,2.788,0,0,0,3.447,0,2.572,2.572,0,0,0,.83-3.158,18.823,18.823,0,0,0-2.554-3.947" transform="translate(-210.763 -128.59)" fill="#020101"/>
    <path id="Trazado_182483" data-name="Trazado 182483" d="M32.405,165.668a5.6,5.6,0,0,1,.688-2.626,28.417,28.417,0,0,1,4.658-6.422c.246-.274.4-.284.649-.005a29.606,29.606,0,0,1,4.695,6.5,5.149,5.149,0,0,1-.625,5.895,5.325,5.325,0,0,1-5.705,1.955,5.447,5.447,0,0,1-4.2-4.233,9.632,9.632,0,0,1-.155-1.062m5.668-5.063a18.782,18.782,0,0,0-2.573,3.941,2.556,2.556,0,0,0,.853,3.163,2.783,2.783,0,0,0,3.446,0,2.567,2.567,0,0,0,.829-3.157,18.53,18.53,0,0,0-2.556-3.944" transform="translate(-26.652 -128.649)" fill="#020101"/>
    <path id="Trazado_182484" data-name="Trazado 182484" d="M266.642,397.764a3.041,3.041,0,0,0-1.377-3.353,7.861,7.861,0,0,1-1.051-1.058,1.418,1.418,0,0,1,1.988-2.016,15.591,15.591,0,0,1,1.474,1.455c.328.366.542.323.847-.019.423-.473.88-.919,1.348-1.348a1.383,1.383,0,0,1,2.065,0,1.441,1.441,0,0,1-.047,2.017,1.776,1.776,0,0,1-.294.291,4.737,4.737,0,0,0-2.093,5.043,2.962,2.962,0,0,1,0,.662,1.434,1.434,0,0,1-1.386,1.464,1.482,1.482,0,0,1-1.469-1.4,1.565,1.565,0,0,1-.006-.166q0-.788,0-1.576" transform="translate(-217.007 -321.572)" fill="#020101"/>
    <path id="Trazado_182485" data-name="Trazado 182485" d="M378.818,394.815c.612-.611,1.243-1.244,1.875-1.874.43-.429.849-.871,1.3-1.281a1.35,1.35,0,1,1,1.887,1.93c-.529.564-1.074,1.116-1.64,1.642a.523.523,0,0,0-.078.829c.624.876,1.2,1.783,1.786,2.688a1.45,1.45,0,0,1-.228,2.059,1.4,1.4,0,0,1-2.055-.538c-.475-.678-.948-1.359-1.371-2.07-.31-.522-.552-.461-.941-.081a1.985,1.985,0,0,0-.778,1.628,1.237,1.237,0,0,1-1.283,1.326,1.36,1.36,0,0,1-1.358-1.3q-.036-3.605,0-7.211a1.361,1.361,0,0,1,1.331-1.324,1.306,1.306,0,0,1,1.332,1.381c.026.689.031,1.378.049,2.068,0,.016.041.031.174.127" transform="translate(-309.193 -321.798)" fill="#020101"/>
    <path id="Trazado_182486" data-name="Trazado 182486" d="M40.166,395.759c0-1.077-.012-2.155,0-3.232a1.531,1.531,0,0,1,1.73-1.739q2.569-.022,5.138,0c1.044.009,1.652.561,1.649,1.447s-.591,1.411-1.655,1.418c-1.133.008-2.266.022-3.4-.008-.475-.013-.622.143-.607.612.031.966.04,1.935,0,2.9-.025.565.121.778.724.751,1.1-.049,2.21-.021,3.314-.012,1.025.008,1.6.5,1.623,1.365a1.423,1.423,0,0,1-1.6,1.5c-1.768.02-3.536.023-5.3,0a1.478,1.478,0,0,1-1.612-1.6c-.029-1.132-.007-2.265-.007-3.4" transform="translate(-33.031 -321.418)" fill="#020101"/>
    <path id="Trazado_182487" data-name="Trazado 182487" d="M152.08,396.1c-.727.773-.949,1.915-2.193,1.865-1.156-.046-1.351-1.165-2.051-1.856-.25,1.215-.467,2.338-.716,3.454a1.386,1.386,0,0,1-1.754,1.188,1.4,1.4,0,0,1-1-1.794c.421-2.164.861-4.324,1.275-6.488.146-.767.46-1.387,1.294-1.515a1.574,1.574,0,0,1,1.6.941c.438.7.912,1.37,1.422,2.13l1.5-2.244a1.477,1.477,0,0,1,1.576-.822,1.535,1.535,0,0,1,1.218,1.4c.425,2.163.876,4.32,1.3,6.483a1.552,1.552,0,0,1-.488,1.725,1.359,1.359,0,0,1-1.553.114,1.689,1.689,0,0,1-.782-1.3c-.209-1.051-.414-2.1-.646-3.277" transform="translate(-118.704 -321.546)" fill="#020101"/>
    <path id="Trazado_182488" data-name="Trazado 182488" d="M163.03,188.33a2.746,2.746,0,0,1-2.538-3.874,25.517,25.517,0,0,1,2.234-3.46c.22-.293.358-.34.595-.015a20.049,20.049,0,0,1,2.211,3.473,2.717,2.717,0,0,1-2.5,3.876" transform="translate(-131.775 -148.673)" fill="#f7f7f7"/>
    <path id="Trazado_182489" data-name="Trazado 182489" d="M274.786,180.034a18.823,18.823,0,0,1,2.554,3.947,2.572,2.572,0,0,1-.83,3.158,2.787,2.787,0,0,1-3.447,0,2.561,2.561,0,0,1-.849-3.165,18.609,18.609,0,0,1,2.573-3.94" transform="translate(-223.702 -148.079)" fill="#f7f7f7"/>
    <path id="Trazado_182490" data-name="Trazado 182490" d="M51.318,180.042a18.53,18.53,0,0,1,2.556,3.944,2.567,2.567,0,0,1-.829,3.157,2.783,2.783,0,0,1-3.446,0,2.556,2.556,0,0,1-.853-3.163,18.781,18.781,0,0,1,2.573-3.941" transform="translate(-39.897 -148.086)" fill="#f7f7f7"/>
  </g>
</svg>
