<svg xmlns="http://www.w3.org/2000/svg" xmlns:xlink="http://www.w3.org/1999/xlink" width="152.098" height="240.756" viewBox="0 0 152.098 240.756">
  <defs>
    <clipPath id="clip-path">
      <rect id="Rectángulo_37902" data-name="Rectángulo 37902" width="49.549" height="68.901" fill="#fff"/>
    </clipPath>
  </defs>
  <g id="Grupo_120742" data-name="Grupo 120742" transform="translate(-1029.286 -854.444)">
    <path id="Trazado_182593" data-name="Trazado 182593" d="M266.39,749.862a101.111,101.111,0,0,1-34.8-6.137l34.8,26.128,34.8-26.128a101.111,101.111,0,0,1-34.8,6.137" transform="translate(845.332 325.348)" fill="#f57c00"/>
    <path id="Trazado_182596" data-name="Trazado 182596" d="M2321.489,169.622a76.049,76.049,0,1,1-76.049-76.049,76.049,76.049,0,0,1,76.049,76.049" transform="translate(-1140.105 760.871)" fill="#fff3bf"/>
    <circle id="Elipse_5058" data-name="Elipse 5058" cx="11" cy="11" r="11" transform="translate(1100.918 1046.863)" fill="#ffa726"/>
    <circle id="Elipse_5062" data-name="Elipse 5062" cx="7" cy="7" r="7" transform="translate(1104.918 1050.863)" fill="#ffd1a2"/>
    <path id="Trazado_182832" data-name="Trazado 182832" d="M8.058,9.977H3.284V15h-1.5V3.625H8.831V4.852H3.284v3.9H8.058Zm1.8.719a4.993,4.993,0,0,1,.488-2.234A3.643,3.643,0,0,1,11.7,6.93a3.7,3.7,0,0,1,1.988-.539,3.565,3.565,0,0,1,2.793,1.2,4.6,4.6,0,0,1,1.066,3.18v.1a5.036,5.036,0,0,1-.473,2.215,3.589,3.589,0,0,1-1.352,1.527,3.743,3.743,0,0,1-2.02.547,3.556,3.556,0,0,1-2.785-1.2A4.575,4.575,0,0,1,9.854,10.8Zm1.453.172a3.616,3.616,0,0,0,.652,2.258,2.211,2.211,0,0,0,3.5-.012A3.955,3.955,0,0,0,16.1,10.7a3.61,3.61,0,0,0-.66-2.254,2.1,2.1,0,0,0-1.754-.863,2.075,2.075,0,0,0-1.727.852A3.925,3.925,0,0,0,11.308,10.867ZM23.448,7.844a4.331,4.331,0,0,0-.711-.055A1.9,1.9,0,0,0,20.808,9v6H19.362V6.547h1.406l.023.977a2.251,2.251,0,0,1,2.016-1.133,1.477,1.477,0,0,1,.641.109Zm2.688-1.3.039.938a3.122,3.122,0,0,1,2.508-1.094A2.417,2.417,0,0,1,31.1,7.75a3.2,3.2,0,0,1,1.1-.984,3.242,3.242,0,0,1,1.6-.375q2.781,0,2.828,2.945V15H35.175V9.422a1.941,1.941,0,0,0-.414-1.355,1.823,1.823,0,0,0-1.391-.449,1.917,1.917,0,0,0-1.336.48,1.949,1.949,0,0,0-.617,1.293V15H29.964V9.461a1.613,1.613,0,0,0-1.8-1.844,1.934,1.934,0,0,0-1.945,1.211V15H24.769V6.547ZM44.019,15a3.036,3.036,0,0,1-.2-.891,3.225,3.225,0,0,1-2.406,1.047,2.984,2.984,0,0,1-2.051-.707,2.287,2.287,0,0,1-.8-1.793,2.39,2.39,0,0,1,1-2.051,4.733,4.733,0,0,1,2.824-.73h1.406V9.211A1.623,1.623,0,0,0,43.339,8,1.821,1.821,0,0,0,42,7.555a2.107,2.107,0,0,0-1.3.391,1.151,1.151,0,0,0-.523.945H38.729a2,2,0,0,1,.449-1.223A3.066,3.066,0,0,1,40.4,6.734a4.1,4.1,0,0,1,1.691-.344,3.342,3.342,0,0,1,2.289.73,2.635,2.635,0,0,1,.859,2.012v3.891a4.757,4.757,0,0,0,.3,1.852V15Zm-2.4-1.1a2.54,2.54,0,0,0,1.289-.352,2.127,2.127,0,0,0,.883-.914V10.9H42.659Q40,10.9,40,12.453a1.316,1.316,0,0,0,.453,1.063A1.742,1.742,0,0,0,41.62,13.9Zm9.273.078a2.082,2.082,0,0,0,1.352-.469,1.649,1.649,0,0,0,.641-1.172h1.367a2.621,2.621,0,0,1-.5,1.383,3.293,3.293,0,0,1-1.23,1.047,3.55,3.55,0,0,1-1.629.391A3.482,3.482,0,0,1,48.147,14a4.59,4.59,0,0,1-1.02-3.152v-.242a5.089,5.089,0,0,1,.453-2.2,3.451,3.451,0,0,1,1.3-1.492,3.7,3.7,0,0,1,2-.531,3.39,3.39,0,0,1,2.363.852,3.043,3.043,0,0,1,1,2.211H52.886a1.992,1.992,0,0,0-.621-1.348,1.932,1.932,0,0,0-1.379-.527,2.023,2.023,0,0,0-1.707.793,3.724,3.724,0,0,0-.605,2.293v.273a3.65,3.65,0,0,0,.6,2.25A2.033,2.033,0,0,0,50.894,13.977ZM57.448,15H56V6.547h1.445ZM55.886,4.3a.863.863,0,0,1,.215-.594.807.807,0,0,1,.637-.242.819.819,0,0,1,.641.242A.854.854,0,0,1,57.6,4.3a.826.826,0,0,1-.219.586.834.834,0,0,1-.641.234.821.821,0,0,1-.637-.234A.834.834,0,0,1,55.886,4.3ZM59.378,10.7a4.993,4.993,0,0,1,.488-2.234A3.643,3.643,0,0,1,61.226,6.93a3.7,3.7,0,0,1,1.988-.539,3.565,3.565,0,0,1,2.793,1.2,4.6,4.6,0,0,1,1.066,3.18v.1a5.036,5.036,0,0,1-.473,2.215,3.589,3.589,0,0,1-1.352,1.527,3.743,3.743,0,0,1-2.02.547,3.556,3.556,0,0,1-2.785-1.2A4.575,4.575,0,0,1,59.378,10.8Zm1.453.172a3.616,3.616,0,0,0,.652,2.258,2.211,2.211,0,0,0,3.5-.012,3.955,3.955,0,0,0,.648-2.418,3.61,3.61,0,0,0-.66-2.254,2.1,2.1,0,0,0-1.754-.863,2.075,2.075,0,0,0-1.727.852A3.925,3.925,0,0,0,60.831,10.867ZM63.87,3.016h1.75l-2.094,2.3-1.164,0Zm6.383,3.531L70.3,7.609a3.08,3.08,0,0,1,2.531-1.219q2.68,0,2.7,3.023V15H74.089V9.406a1.946,1.946,0,0,0-.418-1.352,1.675,1.675,0,0,0-1.277-.437,2.086,2.086,0,0,0-1.234.375,2.546,2.546,0,0,0-.828.984V15H68.886V6.547Z" transform="translate(1066.285 967)" fill="#12263f"/>
    <g id="Grupo_120417" data-name="Grupo 120417" transform="translate(1080.867 885.652)">
      <g id="Grupo_120402" data-name="Grupo 120402" clip-path="url(#clip-path)">
        <path id="Trazado_182577" data-name="Trazado 182577" d="M37.949,0a4.841,4.841,0,0,1,1.013.828Q40.713,2.6,42.483,4.347a1.791,1.791,0,0,1,.586,1.366c-.014,3.722-.006,7.444-.009,11.167,0,1.048-.37,1.413-1.416,1.419-.83,0-1.66.016-2.489-.007-.331-.009-.408.1-.407.417,0,1.389-.031,2.778-.031,4.167,0,.458.367.7.688.936a12.535,12.535,0,0,0,2.831,1.361,40.341,40.341,0,0,1,4.892,2.012,4.279,4.279,0,0,1,2.419,4.124c-.061,10.9-.035,21.8-.017,32.693a2.232,2.232,0,0,1-.741,1.778c-.868.811-1.7,1.663-2.524,2.517a1.852,1.852,0,0,1-1.427.6q-20.078-.015-40.157,0a1.787,1.787,0,0,1-1.378-.557q-1.36-1.4-2.758-2.759A1.716,1.716,0,0,1,0,64.271Q.014,47.487,0,30.7a3.828,3.828,0,0,1,2.168-3.379A25.8,25.8,0,0,1,6.6,25.433a18.769,18.769,0,0,0,3.3-1.469,1.576,1.576,0,0,0,.9-1.625,33.285,33.285,0,0,1-.018-3.563c.007-.375-.091-.5-.477-.484-.851.029-1.7.018-2.556.006-.873-.012-1.276-.408-1.278-1.284-.007-3.812,0-7.624-.007-11.436a1.522,1.522,0,0,1,.49-1.133C8.269,3.131,9.58,1.81,10.9.5a5.83,5.83,0,0,1,.674-.5ZM24.732,61.358q11,0,21.994.013c.528,0,.654-.133.653-.656q-.026-13.353,0-26.705c0-.531-.138-.652-.657-.651q-21.961.022-43.922,0c-.528,0-.654.133-.653.656q.026,13.353,0,26.705c0,.531.138.653.657.652q10.963-.027,21.927-.012m.05-30.141H46.575c.817,0,1.018-.335.664-1.1a2.061,2.061,0,0,0-.836-.852,15.592,15.592,0,0,0-2.8-1.287,38.43,38.43,0,0,1-4.538-1.845,4.724,4.724,0,0,1-2.213-1.985.776.776,0,0,0-.84-.474c-2.354.017-4.708.008-7.063.008q-7.7,0-15.4,0c-.272,0-.586-.108-.755.262a5.041,5.041,0,0,1-2.54,2.3,46.054,46.054,0,0,1-4.361,1.746,12.75,12.75,0,0,0-3.015,1.453,1.668,1.668,0,0,0-.669.9c-.2.706-.07.876.65.876H24.782m.006-24.758c-5.178,0-10.356.009-15.534-.014-.546,0-.652.16-.647.668.026,2.488.012,4.977.012,7.465,0,1.59,0,1.574,1.6,1.58.426,0,.569-.094.562-.547-.028-1.793-.011-3.587-.011-5.38,0-1.644,0-1.624,1.62-1.631.458,0,.547.145.542.566-.022,1.793-.009,3.587-.009,5.38,0,1.632,0,1.617,1.637,1.612.4,0,.532-.088.526-.515-.026-1.815-.011-3.632-.011-5.447,0-1.62,0-1.6,1.655-1.6.435,0,.511.14.507.534-.02,1.816-.009,3.632-.009,5.447,0,1.588,0,1.571,1.6,1.577.432,0,.565-.1.558-.55-.027-1.793-.011-3.586-.011-5.38,0-1.643,0-1.622,1.622-1.629.462,0,.544.152.54.569-.021,1.793-.009,3.587-.009,5.38,0,1.63,0,1.614,1.64,1.61.409,0,.529-.1.524-.518-.025-1.816-.011-3.632-.011-5.447,0-1.6,0-1.575,1.59-1.595.493-.006.58.154.574.6-.026,1.793-.011,3.587-.011,5.38,0,1.586,0,1.569,1.607,1.575.436,0,.562-.11.556-.553-.026-1.793-.011-3.587-.011-5.38,0-1.67,0-1.654,1.693-1.625.4.007.471.145.467.5-.016,1.816-.007,3.632-.007,5.448,0,1.628,0,1.611,1.643,1.607.414,0,.526-.1.52-.521-.024-1.793-.01-3.587-.01-5.38,0-1.685,0-1.665,1.66-1.659.444,0,.5.155.5.54-.018,1.816-.008,3.632-.008,5.447,0,1.584,0,1.566,1.61,1.572.441,0,.558-.119.552-.556-.025-1.793-.01-3.587-.01-5.38,0-1.638,0-1.616,1.628-1.624.473,0,.537.168.533.576-.019,1.793-.008,3.587-.008,5.38,0,1.607,0,1.586,1.578,1.606.477.006.59-.124.586-.592-.023-2.824-.028-5.65,0-8.474.006-.548-.163-.647-.669-.645-5.156.018-10.311.011-15.467.011m-.025,57.052q-10.965,0-21.929.007c-.218,0-.53-.152-.648.154a.692.692,0,0,0,.271.768c.615.59,1.233,1.179,1.8,1.811a1.49,1.49,0,0,0,1.233.5q18.095-.018,36.19-.011a8.4,8.4,0,0,0,3.055-.117c.882-.369,1.5-1.37,2.235-2.093a1.148,1.148,0,0,1,.1-.094.641.641,0,0,0,.272-.765c-.119-.3-.431-.152-.65-.152q-10.965-.013-21.929-.007m0-41.99c3.721,0,7.442-.015,11.162.016.578,0,.719-.157.678-.7a15.762,15.762,0,0,1,0-2.016c.022-.413-.094-.529-.515-.521-1.479.028-2.959.011-4.438.011-6.007,0-12.014.011-18.021-.017-.614,0-.758.167-.711.738a11.95,11.95,0,0,1,0,1.881c-.038.5.11.628.618.625,3.743-.024,7.486-.013,11.229-.013M10.142,4.257H39.4c-.739-.712-1.372-1.31-1.988-1.925a.763.763,0,0,0-.616-.18q-12.035,0-24.07,0a.823.823,0,0,0-.664.226c-.593.607-1.212,1.188-1.924,1.88" transform="translate(0)"/>
        <path id="Trazado_182578" data-name="Trazado 182578" d="M38.505,275.341q-10.964,0-21.927.012c-.52,0-.658-.121-.657-.652q.027-13.353,0-26.705c0-.522.125-.656.653-.656q21.961.023,43.922,0c.519,0,.658.12.657.651q-.027,13.353,0,26.705c0,.523-.125.657-.653.656q-11-.028-21.994-.013m-.046-4.259a6.712,6.712,0,0,0,6.293-8.659,29.644,29.644,0,0,0-5.333-8.711,1.084,1.084,0,0,0-1.8.033,31.176,31.176,0,0,0-5.209,8.4,6.722,6.722,0,0,0,6.047,8.933M21.383,249.506H19.7c-1.663,0-1.65,0-1.627,1.681,0,.38.106.487.484.481,1.455-.021,2.911-.009,4.367-.009,1.708,0,1.7,0,1.627-1.748-.013-.321-.094-.419-.416-.412-.918.02-1.836.007-2.754.007m-.011,6.459h1.545c1.668,0,1.647,0,1.642-1.671,0-.456-.174-.494-.545-.49-1.433.018-2.866.007-4.3.007-1.668,0-1.656,0-1.637,1.671,0,.365.078.5.473.492.94-.029,1.881-.009,2.821-.009m0,4.306H22.92c1.667,0,1.645,0,1.639-1.674,0-.461-.182-.49-.549-.486-1.433.016-2.866.007-4.3.007-1.667,0-1.654,0-1.634,1.674,0,.369.087.5.477.488.94-.028,1.881-.009,2.821-.009" transform="translate(-13.774 -213.983)" fill="#b1f9ff"/>
        <path id="Trazado_182579" data-name="Trazado 182579" d="M38.381,183.062H16.453c-.72,0-.849-.17-.65-.876a1.669,1.669,0,0,1,.669-.9,12.749,12.749,0,0,1,3.015-1.453,46.046,46.046,0,0,0,4.361-1.746,5.041,5.041,0,0,0,2.54-2.3c.168-.371.483-.262.754-.262q7.7-.007,15.4,0c2.354,0,4.708.009,7.063-.008a.776.776,0,0,1,.84.474,4.724,4.724,0,0,0,2.213,1.985,38.407,38.407,0,0,0,4.538,1.845,15.592,15.592,0,0,1,2.8,1.287,2.061,2.061,0,0,1,.836.852c.354.767.154,1.1-.664,1.1H38.381" transform="translate(-13.599 -151.845)" fill="#fff"/>
        <path id="Trazado_182580" data-name="Trazado 182580" d="M79.995,47.8c5.156,0,10.311.007,15.467-.011.505,0,.675.1.669.645-.031,2.824-.026,5.649,0,8.474,0,.468-.109.6-.586.593-1.578-.02-1.578,0-1.578-1.606,0-1.793-.011-3.587.008-5.38,0-.407-.06-.578-.533-.575-1.628.008-1.628-.014-1.628,1.624,0,1.793-.015,3.587.01,5.38.006.438-.111.558-.552.556-1.61-.006-1.61.011-1.61-1.572,0-1.816-.01-3.632.008-5.447,0-.385-.057-.538-.5-.54-1.661-.006-1.66-.026-1.66,1.659,0,1.793-.014,3.587.01,5.38.006.417-.106.52-.52.521-1.643,0-1.643.02-1.643-1.607,0-1.816-.009-3.632.007-5.448,0-.358-.066-.5-.468-.5C83.2,49.913,83.2,49.9,83.2,51.567c0,1.793-.015,3.587.011,5.38.006.443-.12.554-.556.553-1.607-.006-1.607.011-1.607-1.575,0-1.793-.015-3.587.011-5.38.006-.45-.08-.611-.573-.6-1.59.019-1.59,0-1.59,1.595,0,1.816-.014,3.632.011,5.448.006.422-.115.516-.523.518-1.64,0-1.64.02-1.64-1.61,0-1.793-.012-3.587.009-5.38,0-.417-.077-.571-.54-.569-1.622.007-1.622-.013-1.622,1.629,0,1.793-.016,3.587.011,5.38.007.448-.127.552-.558.55-1.6-.006-1.605.011-1.605-1.577,0-1.816-.011-3.632.009-5.447,0-.394-.071-.533-.507-.534-1.655,0-1.655-.024-1.655,1.6,0,1.816-.015,3.632.011,5.447.006.427-.122.514-.526.515-1.637,0-1.637.02-1.637-1.612,0-1.793-.013-3.587.009-5.38.005-.422-.085-.568-.542-.566-1.62.007-1.62-.013-1.62,1.631,0,1.793-.016,3.587.011,5.38.007.453-.135.548-.562.547-1.6-.005-1.6.01-1.6-1.58,0-2.488.014-4.977-.012-7.465-.005-.507.1-.67.647-.668,5.178.023,10.356.014,15.534.014" transform="translate(-55.207 -41.342)" fill="#f57c00"/>
        <path id="Trazado_182581" data-name="Trazado 182581" d="M38.527,470.726q10.965,0,21.929.007c.219,0,.53-.151.65.152a.641.641,0,0,1-.272.765,1.149,1.149,0,0,0-.1.094c-.734.724-1.353,1.724-2.235,2.093a8.4,8.4,0,0,1-3.055.117q-18.1,0-36.19.011a1.49,1.49,0,0,1-1.233-.5c-.57-.632-1.189-1.221-1.8-1.811a.691.691,0,0,1-.271-.768c.118-.306.43-.154.648-.154q10.965-.013,21.929-.007" transform="translate(-13.764 -407.215)" fill="#fff"/>
        <path id="Trazado_182582" data-name="Trazado 182582" d="M107.591,138.852c-3.743,0-7.487-.011-11.229.013-.508,0-.656-.123-.618-.625a11.966,11.966,0,0,0,0-1.881c-.047-.57.1-.741.711-.738,6.007.028,12.014.017,18.021.017,1.479,0,2.959.017,4.438-.011.421-.008.538.108.515.522a15.739,15.739,0,0,0,0,2.016c.041.546-.1.707-.678.7-3.721-.03-7.441-.016-11.162-.016" transform="translate(-82.824 -117.331)" fill="#b1f9ff"/>
        <path id="Trazado_182583" data-name="Trazado 182583" d="M75.2,18.055c.712-.691,1.331-1.273,1.924-1.88a.823.823,0,0,1,.664-.226q12.035,0,24.07,0a.763.763,0,0,1,.616.18c.616.615,1.249,1.213,1.988,1.925Z" transform="translate(-65.056 -13.798)" fill="#ffa726"/>
        <path id="Trazado_182584" data-name="Trazado 182584" d="M141.708,308.995a6.722,6.722,0,0,1-6.046-8.933,31.179,31.179,0,0,1,5.209-8.4,1.084,1.084,0,0,1,1.8-.033A29.647,29.647,0,0,1,148,300.336a6.712,6.712,0,0,1-6.293,8.659m-4.293-6.6a4.584,4.584,0,0,0,3.824,4.391,4.509,4.509,0,0,0,4.735-5.75,25.54,25.54,0,0,0-3.983-6.805c-.194-.271-.294-.158-.434.034a31.609,31.609,0,0,0-3.689,5.987,4.7,4.7,0,0,0-.453,2.142" transform="translate(-117.023 -251.895)"/>
        <path id="Trazado_182585" data-name="Trazado 182585" d="M35.178,263.349c.918,0,1.837.013,2.754-.007.322-.007.4.091.416.412.071,1.749.081,1.748-1.627,1.748-1.456,0-2.911-.013-4.367.009-.379.006-.479-.1-.484-.481-.022-1.681-.035-1.681,1.627-1.681h1.68" transform="translate(-27.569 -227.826)"/>
        <path id="Trazado_182586" data-name="Trazado 182586" d="M35.178,297.427c-.941,0-1.882-.02-2.821.009-.4.012-.469-.127-.473-.492-.02-1.671-.032-1.671,1.637-1.671,1.433,0,2.867.01,4.3-.007.372,0,.544.034.545.49.005,1.671.027,1.671-1.642,1.671H35.178" transform="translate(-27.58 -255.445)"/>
        <path id="Trazado_182587" data-name="Trazado 182587" d="M35.178,329.358c-.941,0-1.882-.019-2.821.009-.39.012-.472-.119-.477-.488-.021-1.674-.033-1.674,1.634-1.674,1.433,0,2.867.01,4.3-.007.366,0,.547.025.549.486.006,1.674.028,1.674-1.639,1.674H35.178" transform="translate(-27.576 -283.07)"/>
        <path id="Trazado_182588" data-name="Trazado 182588" d="M151.167,321.018a4.7,4.7,0,0,1,.453-2.142,31.609,31.609,0,0,1,3.689-5.987c.14-.192.24-.305.434-.034a25.541,25.541,0,0,1,3.983,6.805,4.509,4.509,0,0,1-4.735,5.75,4.584,4.584,0,0,1-3.824-4.391" transform="translate(-130.775 -270.522)" fill="#ff00d8"/>
      </g>
    </g>
  </g>
</svg>
