<svg id="Grupo_120393" data-name="Grupo 120393" xmlns="http://www.w3.org/2000/svg" xmlns:xlink="http://www.w3.org/1999/xlink" width="84.995" height="85.001" viewBox="0 0 84.995 85.001">
  <defs>
    <clipPath id="clip-path">
      <rect id="Rectángulo_37897" data-name="Rectángulo 37897" width="84.995" height="85.001" fill="none"/>
    </clipPath>
  </defs>
  <g id="Grupo_120392" data-name="Grupo 120392" clip-path="url(#clip-path)">
    <path id="Trazado_182491" data-name="Trazado 182491" d="M332.4,342.65a2.779,2.779,0,0,1-1.359-2.849c.076-2.125.014-4.255.024-6.383a2.015,2.015,0,0,1,2.212-2.211q3.524-.021,7.049,0a2.01,2.01,0,0,1,2.179,2.171c.02,2.349-.01,4.7.013,7.047a2.345,2.345,0,0,1-1.484,2.224Zm1.155-5.728c0,.885.014,1.77-.006,2.655-.009.395.057.6.531.593q2.7-.038,5.394,0c.451.006.558-.158.553-.578q-.028-2.654,0-5.309c0-.4-.067-.6-.537-.6q-2.7.035-5.394,0c-.458-.006-.556.172-.546.582.023.884.007,1.77.007,2.655" transform="translate(-257.529 -257.649)" fill="#030303"/>
    <path id="Trazado_182492" data-name="Trazado 182492" d="M0,1.519A2.592,2.592,0,0,1,2.735,0C4.887.081,7.043.019,9.2.027a2.016,2.016,0,0,1,2.265,2.232q.014,3.48,0,6.959a2.027,2.027,0,0,1-2.255,2.251c-2.155.012-4.311-.05-6.463.023A2.628,2.628,0,0,1,0,9.984ZM2.509,5.742c0,.857.022,1.715-.008,2.572-.017.473.074.692.625.681,1.742-.035,3.485-.025,5.228,0,.441.005.639-.081.631-.583-.029-1.769-.02-3.539,0-5.309,0-.4-.061-.6-.533-.591q-2.7.038-5.394,0c-.453-.006-.563.162-.551.58.025.884.008,1.77.008,2.655" transform="translate(0 -0.001)" fill="#030303"/>
    <path id="Trazado_182493" data-name="Trazado 182493" d="M26.179,157.679V154.45a1.454,1.454,0,0,0,1.184-1.707c-.048-.882-.011-1.768-.01-2.652,0-1.194.053-1.245,1.282-1.245H67.683c.276,0,.551.017.827.026q0,15.177.009,30.355l-5.371,4.927c-.768.7-.768.706-1.463-.091-4.106-4.709-8.2-9.43-12.323-14.122a4.18,4.18,0,0,0-6.631.018q-5.809,6.653-11.609,13.314c-1.209,1.386-2.422,2.77-3.77,4.311v-1.077q0-13.561.012-27.122a1.49,1.49,0,0,0-1.186-1.709M62.311,167a4.634,4.634,0,1,0,.059-9.267A4.633,4.633,0,0,0,62.311,167" transform="translate(-20.366 -115.793)" fill="#fff3bf"/>
    <path id="Trazado_182494" data-name="Trazado 182494" d="M63.869,140.143c-.276-.009-.551-.026-.827-.026H23.994c-1.229,0-1.281.05-1.282,1.245,0,.884-.038,1.77.01,2.652a1.454,1.454,0,0,1-1.184,1.707c-1.09-.3-1.315-.6-1.318-1.757,0-1.051-.016-2.1,0-3.153a3.1,3.1,0,0,1,3.211-3.182q21.743-.01,43.486,0a3.092,3.092,0,0,1,3.238,3.239q.014,21.695,0,43.389a3.128,3.128,0,0,1-3.294,3.281c-2.158.02-4.316.012-6.473,0-.974,0-1.3-.29-1.544-1.258.26-.994.533-1.22,1.559-1.226,2.02-.011,4.04-.007,6.06-.012,1.061,0,1.2-.135,1.2-1.189q0-6.265,0-12.53c0-.2.092-.435-.081-.614-.214-.023-.3.143-.415.248q-3.692,3.341-7.379,6.687c-1.536,1.393-2.864,1.329-4.209-.214q-6.246-7.159-12.49-14.321c-1.171-1.343-2.132-1.361-3.293-.034q-4.179,4.778-8.348,9.566T23.1,182.208a2.47,2.47,0,0,0-.276,2.423c.176.682.943.411,1.461.411q14.776.018,29.552.01c1.194,0,1.4.15,1.75,1.224-.319,1.022-.615,1.262-1.646,1.263q-15.188,0-30.375,0a3.138,3.138,0,0,1-3.343-3.4q-.007-16.758,0-33.517c0-1.076.248-1.38,1.317-1.674a1.49,1.49,0,0,1,1.186,1.709q-.031,13.561-.012,27.121v1.077c1.348-1.541,2.561-2.924,3.77-4.311q5.8-6.657,11.609-13.314a4.18,4.18,0,0,1,6.631-.018c4.125,4.692,8.217,9.413,12.323,14.122.695.8.7.8,1.463.091l5.371-4.927c1.093-.971,2.171-1.961,3.288-2.9a1.4,1.4,0,0,0,.517-1.211q-.021-12.525-.01-25.051c0-.138,0-.276,0-.415a.708.708,0,0,0-.818-.8c-.995.017-1.99.02-2.985.029" transform="translate(-15.725 -107.062)" fill="#030303"/>
    <path id="Trazado_182495" data-name="Trazado 182495" d="M64.077,271.99c-.351-1.074-.555-1.224-1.75-1.224q-14.776,0-29.552-.01c-.518,0-1.284.271-1.461-.411a2.47,2.47,0,0,1,.276-2.423q4.18-4.777,8.346-9.568t8.348-9.566c1.161-1.327,2.122-1.309,3.293.034q6.244,7.162,12.49,14.321c1.346,1.542,2.673,1.607,4.209.214q3.688-3.346,7.379-6.687c.115-.1.2-.27.415-.248.173.179.08.41.081.614q.01,6.265,0,12.53c0,1.054-.135,1.186-1.2,1.189-2.02.005-4.04,0-6.06.012-1.026.006-1.3.231-1.559,1.226l-3.264,0" transform="translate(-24.217 -192.775)" fill="#ffa726"/>
    <path id="Trazado_182496" data-name="Trazado 182496" d="M267.563,59.868c1.994-.08,3.1,1.063,2.945,3.252-.163,2.315-.341,4.629-.491,6.945a2.739,2.739,0,0,1-1.724,2.68,2.687,2.687,0,0,1-3.12-.9c-.642-.686-1.348-1.312-1.981-2.006-.344-.378-.54-.38-.9-.005-1.482,1.527-3,3.019-4.508,4.522a1.221,1.221,0,0,1-1.574.293,1.2,1.2,0,0,1-.6-1.412,1.667,1.667,0,0,1,.567-.8c1.427-1.427,2.832-2.877,4.3-4.264.478-.453.412-.683-.025-1.081-.756-.687-1.462-1.43-2.176-2.162a2.629,2.629,0,0,1,1.663-4.532c2.48-.195,4.962-.352,7.629-.537m-7.776,3.063,7.254,7.251c.1.1.2.221.347.137.169-.1.124-.292.136-.45.167-2.286.311-4.574.506-6.857.051-.6-.176-.7-.692-.647-.907.088-1.818.128-2.727.2-1.532.115-3.062.235-4.824.372" transform="translate(-198.816 -46.57)" fill="#030303"/>
    <path id="Trazado_182497" data-name="Trazado 182497" d="M336.8,11.679c-1.162,0-2.324.011-3.485,0a1.973,1.973,0,0,1-2.176-2.144q-.019-3.567,0-7.134A1.949,1.949,0,0,1,333.167.257q3.691-.073,7.384,0a1.969,1.969,0,0,1,2.026,2.155q.03,3.567,0,7.134a1.975,1.975,0,0,1-2.124,2.127c-1.217.019-2.434,0-3.651,0m3.291-5.721c0-.856-.022-1.712.009-2.567.018-.481-.1-.688-.634-.678q-2.609.046-5.218,0c-.54-.01-.636.2-.63.678q.034,2.567,0,5.134c-.007.477.083.684.627.674,1.739-.035,3.479-.032,5.218,0,.531.01.657-.181.637-.672-.035-.854-.01-1.711-.01-2.567" transform="translate(-257.598 -0.172)" fill="#030303"/>
    <path id="Trazado_182498" data-name="Trazado 182498" d="M297.993,20.494a6.409,6.409,0,0,1,1.15.012,1.223,1.223,0,0,1-.134,2.429c-.658.036-1.32.034-1.979,0a1.171,1.171,0,0,1-1.233-1.169,1.227,1.227,0,0,1,1.206-1.3c.327-.031.66-.005.99-.005v.026" transform="translate(-230.11 -15.915)" fill="#030303"/>
    <path id="Trazado_182499" data-name="Trazado 182499" d="M69.43,22.8a9.466,9.466,0,0,1-1.071-.007,1.126,1.126,0,0,1-1.083-1.14,1.1,1.1,0,0,1,.943-1.257,6.975,6.975,0,0,1,2.46-.007A1.221,1.221,0,0,1,70.5,22.8c-.355.027-.714,0-1.072,0V22.8" transform="translate(-52.333 -15.777)" fill="#030303"/>
    <path id="Trazado_182500" data-name="Trazado 182500" d="M259.928,22.807c-.357,0-.717.026-1.071-.006a1.221,1.221,0,0,1-.126-2.415,7.38,7.38,0,0,1,2.38,0A1.221,1.221,0,0,1,261,22.8c-.354.035-.714.006-1.071.006" transform="translate(-200.507 -15.784)" fill="#030303"/>
    <path id="Trazado_182501" data-name="Trazado 182501" d="M107.491,22.792a8.734,8.734,0,0,1-1.071-.008,1.113,1.113,0,0,1-1.047-1.084,1.1,1.1,0,0,1,.89-1.293,6.642,6.642,0,0,1,2.538-.013,1.1,1.1,0,0,1,.93,1.265,1.11,1.11,0,0,1-1.087,1.13,11.415,11.415,0,0,1-1.154.007v0" transform="translate(-81.967 -15.775)" fill="#030303"/>
    <path id="Trazado_182502" data-name="Trazado 182502" d="M221.785,22.785a9.715,9.715,0,0,1-1.07-.008,1.1,1.1,0,0,1-1.053-1.074,1.089,1.089,0,0,1,.875-1.3,6.234,6.234,0,0,1,2.614.006,1.089,1.089,0,0,1,.858,1.312,1.109,1.109,0,0,1-1.071,1.059,11.153,11.153,0,0,1-1.153.006" transform="translate(-170.875 -15.766)" fill="#030303"/>
    <path id="Trazado_182503" data-name="Trazado 182503" d="M145.629,22.8a9.836,9.836,0,0,1-1.071-.007,1.118,1.118,0,0,1-1.086-1.133A1.1,1.1,0,0,1,144.4,20.4a6.983,6.983,0,0,1,2.459-.008A1.22,1.22,0,0,1,146.7,22.8c-.355.029-.714.005-1.071.005v0" transform="translate(-111.609 -15.779)" fill="#030303"/>
    <path id="Trazado_182504" data-name="Trazado 182504" d="M183.81,20.506a5.927,5.927,0,0,1,1.068.012,1.142,1.142,0,0,1,1.041,1.266,1.113,1.113,0,0,1-1.137,1.166,19.093,19.093,0,0,1-2.06,0,1.124,1.124,0,0,1-1.162-1.144,1.181,1.181,0,0,1,1.1-1.3,9.026,9.026,0,0,1,1.153-.009s0,.007,0,.011" transform="translate(-141.238 -15.931)" fill="#030303"/>
    <path id="Trazado_182505" data-name="Trazado 182505" d="M22.647,69.714c0,.3.017.607,0,.908a1.206,1.206,0,0,1-1.2,1.22,1.169,1.169,0,0,1-1.25-1.082,11.059,11.059,0,0,1,0-2.226,1.164,1.164,0,0,1,1.234-1.1,1.214,1.214,0,0,1,1.217,1.2c.024.356,0,.715,0,1.073" transform="translate(-15.664 -52.463)" fill="#030303"/>
    <path id="Trazado_182506" data-name="Trazado 182506" d="M351.316,69.616c0-.33-.016-.662,0-.991a1.232,1.232,0,0,1,2.455-.1,11.96,11.96,0,0,1-.006,2.226,1.169,1.169,0,0,1-1.252,1.08,1.2,1.2,0,0,1-1.2-1.221c-.021-.329,0-.66,0-.991" transform="translate(-273.295 -52.449)" fill="#030303"/>
    <path id="Trazado_182507" data-name="Trazado 182507" d="M22.657,107.783c0,.3.017.607,0,.908a1.2,1.2,0,0,1-1.2,1.216,1.162,1.162,0,0,1-1.25-1.077,11.935,11.935,0,0,1-.006-2.225,1.232,1.232,0,0,1,2.455.1c.023.356,0,.715,0,1.073" transform="translate(-15.674 -82.079)" fill="#030303"/>
    <path id="Trazado_182508" data-name="Trazado 182508" d="M353.764,183.935a9.362,9.362,0,0,1-.006.989,1.229,1.229,0,0,1-1.264,1.159,1.181,1.181,0,0,1-1.2-1.2c-.03-.659-.029-1.321,0-1.98a1.154,1.154,0,0,1,1.127-1.192,1.2,1.2,0,0,1,1.33,1.075,8.754,8.754,0,0,1,.009,1.153h.007" transform="translate(-273.265 -141.35)" fill="#030303"/>
    <path id="Trazado_182509" data-name="Trazado 182509" d="M351.315,107.72c0-.33-.018-.662,0-.99a1.212,1.212,0,0,1,1.21-1.206,1.158,1.158,0,0,1,1.24,1.087,10.748,10.748,0,0,1,0,2.224,1.166,1.166,0,0,1-1.245,1.085,1.2,1.2,0,0,1-1.205-1.209c-.022-.329,0-.66,0-.99" transform="translate(-273.295 -82.091)" fill="#030303"/>
    <path id="Trazado_182510" data-name="Trazado 182510" d="M353.762,145.813a8.8,8.8,0,0,1-.008,1.072,1.213,1.213,0,0,1-1.31,1.1,1.148,1.148,0,0,1-1.15-1.169c-.033-.659-.03-1.321,0-1.98a1.211,1.211,0,0,1,1.18-1.234,1.231,1.231,0,0,1,1.286,1.137,9.284,9.284,0,0,1,.006,1.072" transform="translate(-273.266 -111.715)" fill="#030303"/>
    <path id="Trazado_182511" data-name="Trazado 182511" d="M351.312,260.055c0-.33-.02-.661,0-.99a1.155,1.155,0,0,1,1.138-1.179,1.173,1.173,0,0,1,1.317,1.079,13.157,13.157,0,0,1,0,2.224,1.169,1.169,0,0,1-1.338,1.054,1.154,1.154,0,0,1-1.115-1.2c-.02-.329,0-.66,0-.99" transform="translate(-273.292 -200.615)" fill="#030303"/>
    <path id="Trazado_182512" data-name="Trazado 182512" d="M351.313,298.079c0-.3-.017-.606,0-.907a1.234,1.234,0,0,1,2.464-.07,14.019,14.019,0,0,1-.006,2.142,1.174,1.174,0,0,1-1.316,1.082,1.148,1.148,0,0,1-1.14-1.174c-.026-.356,0-.714-.005-1.072" transform="translate(-273.293 -230.239)" fill="#030303"/>
    <path id="Trazado_182513" data-name="Trazado 182513" d="M259.9,353.848c-.3,0-.606.013-.908,0a1.24,1.24,0,1,1-.041-2.479c.631-.028,1.266-.029,1.9,0a1.213,1.213,0,0,1,1.242,1.258,1.227,1.227,0,0,1-1.283,1.22c-.3.016-.605,0-.908,0" transform="translate(-200.487 -273.324)" fill="#030303"/>
    <path id="Trazado_182514" data-name="Trazado 182514" d="M298.013,353.831a9.522,9.522,0,0,1-1.072-.007,1.166,1.166,0,0,1-1.134-1.189,1.184,1.184,0,0,1,1.134-1.271,17.362,17.362,0,0,1,2.062,0,1.213,1.213,0,0,1,1.183,1.234A1.225,1.225,0,0,1,299,353.829c-.328.027-.66,0-.99,0v0" transform="translate(-230.117 -273.313)" fill="#030303"/>
    <path id="Trazado_182515" data-name="Trazado 182515" d="M351.311,221.967c0-.33-.021-.662,0-.99a1.16,1.16,0,0,1,1.141-1.177,1.177,1.177,0,0,1,1.314,1.085,13.965,13.965,0,0,1,.007,2.142,1.234,1.234,0,0,1-2.464-.07c-.021-.329,0-.66,0-.99" transform="translate(-273.291 -170.985)" fill="#030303"/>
    <path id="Trazado_182516" data-name="Trazado 182516" d="M342.352,345.64c0-.885.016-1.77-.007-2.655-.011-.41.087-.588.546-.582q2.7.036,5.394,0c.47-.006.541.2.537.6-.015,1.77-.017,3.54,0,5.309,0,.42-.1.584-.553.578q-2.7-.034-5.394,0c-.474.007-.54-.2-.531-.593.02-.884.006-1.77.006-2.655" transform="translate(-266.322 -266.367)" fill="#26ccda"/>
    <path id="Trazado_182517" data-name="Trazado 182517" d="M11.261,14.519c0-.885.018-1.77-.008-2.655-.012-.418.1-.586.551-.58q2.7.034,5.394,0c.472-.007.536.195.533.591-.015,1.77-.024,3.54,0,5.309.008.5-.189.588-.631.583-1.743-.02-3.486-.03-5.228,0-.551.011-.641-.209-.625-.681.03-.856.009-1.714.009-2.572" transform="translate(-8.752 -8.778)" fill="#26ccda"/>
    <path id="Trazado_182518" data-name="Trazado 182518" d="M216.8,148.865c1-.009,1.99-.012,2.985-.029a.708.708,0,0,1,.818.8c0,.138,0,.276,0,.415q0,12.525.01,25.051a1.4,1.4,0,0,1-.517,1.211c-1.117.943-2.195,1.933-3.288,2.9q0-15.178-.009-30.355" transform="translate(-168.657 -115.784)" fill="#fff3bf"/>
    <path id="Trazado_182519" data-name="Trazado 182519" d="M172.759,198.136a4.633,4.633,0,0,1,.059-9.267,4.634,4.634,0,1,1-.059,9.267m.054-2.492a2.141,2.141,0,1,0-.045-4.282,2.141,2.141,0,1,0,.045,4.282" transform="translate(-130.814 -146.928)" fill="#030303"/>
    <path id="Trazado_182520" data-name="Trazado 182520" d="M274.562,71.649c1.761-.136,3.292-.257,4.824-.372.909-.068,1.82-.107,2.727-.2.516-.05.743.046.692.647-.194,2.284-.339,4.571-.506,6.857-.012.159.033.353-.136.45-.146.084-.251-.04-.347-.137l-7.254-7.251" transform="translate(-213.591 -55.288)" fill="#f57c00"/>
    <path id="Trazado_182521" data-name="Trazado 182521" d="M348.81,14.689c0,.856-.025,1.712.01,2.567.02.491-.106.682-.637.672-1.739-.031-3.479-.034-5.218,0-.544.011-.634-.2-.627-.674q.036-2.567,0-5.134c-.006-.476.09-.688.63-.678q2.608.048,5.218,0c.535-.01.651.2.634.678-.031.855-.009,1.711-.009,2.567" transform="translate(-266.316 -8.902)" fill="#26ccda"/>
    <path id="Trazado_182522" data-name="Trazado 182522" d="M181.517,204.377a2.141,2.141,0,1,1-.045-4.282,2.141,2.141,0,1,1,.045,4.282" transform="translate(-139.518 -155.661)" fill="#fdd835"/>
  </g>
</svg>
