<svg id="Grupo_120539" data-name="Grupo 120539" xmlns="http://www.w3.org/2000/svg" xmlns:xlink="http://www.w3.org/1999/xlink" width="105.915" height="131.999" viewBox="0 0 105.915 131.999">
  <defs>
    <clipPath id="clip-path">
      <rect id="Rectángulo_37608" data-name="Rectángulo 37608" width="105.915" height="131.999" fill="none"/>
    </clipPath>
  </defs>
  <g id="Grupo_120670" data-name="Grupo 120670" clip-path="url(#clip-path)">
    <path id="Trazado_182167" data-name="Trazado 182167" d="M20.472,132c-1.85-.736-3.865-.9-5.7-1.72-9.1-4.087-14.08-11.04-14.7-21.021-.138-2.226-.04-4.467-.04-6.7q0-45.244-.014-90.489C.015,7.079,2.05,3.387,6.5,1.1A10.5,10.5,0,0,1,11.351,0Q23.6,0,35.842.007a10.821,10.821,0,0,1,7.407,2.808,1.269,1.269,0,0,0,1.464.291,10.9,10.9,0,0,1,7.684.257Q63.617,7.819,74.822,12.31A11.085,11.085,0,0,1,82.21,22.52a1.7,1.7,0,0,0,.862,1.431c3.045,2.083,6.091,4.166,9.114,6.281a11.24,11.24,0,0,1,4,14.61,1.09,1.09,0,0,0,.31,1.424c2.115,2.315,4.229,4.632,6.3,6.983a11.278,11.278,0,0,1-.914,16.424Q95.917,75.08,89.91,80.447c-1.195,1.073-1.839,1.115-3.2.25-.718-1.519-.626-2,.623-3.134.921-.838,1.827-1.693,2.784-2.49.515-.428.541-.709.071-1.219q-3.709-4.025-7.343-8.119c-.454-.51-.651-.449-1.018.087q-4.141,6.053-8.344,12.063a.862.862,0,0,0,.078,1.3c1.408,1.5,2.778,3.045,4.159,4.574,1.221,1.351,1.219,1.353,2.55.153,1.3-1.168,1.837-1.22,3.289-.311a2.273,2.273,0,0,1-.647,3.16q-21.683,19.47-43.334,38.976a23.027,23.027,0,0,1-12.935,6.03c-.09.011-.164.152-.245.233Zm31.948-23.231c2.424-1.827,4.546-4,6.822-6,2.241-1.966,2.221-1.988-.043-4.1-1.2,1.724-2.431,3.414-3.576,5.159a40.906,40.906,0,0,0-3.225,4.9l-.36.192c.028.027.052.073.083.078.176.026.289-.04.3-.233m-28.747-83.5c-6.23,0-12.46.014-18.69-.017-.81,0-1.095.172-1.088,1.046q.063,7.927,0,15.854c-.008.923.282,1.15,1.165,1.131,2.576-.055,5.155-.008,7.733-.025a2.024,2.024,0,0,1,1.887.878c.882,1.358-.074,2.969-1.845,3q-3.93.072-7.862-.006c-.867-.019-1.064.267-1.059,1.088q.051,7.862,0,15.725c-.008.927.288,1.128,1.165,1.126q18.5-.04,36.993.005c1,0,1.2-.319,1.19-1.244-.042-5.156-.056-10.312.009-15.467.014-1.09-.382-1.236-1.321-1.231-6.574.034-13.148.019-19.721.017a3.736,3.736,0,0,1-1.649-.19,1.821,1.821,0,0,1-1.169-1.694,1.769,1.769,0,0,1,1.146-1.837,4.272,4.272,0,0,1,1.52-.158c6.66-.009,13.32-.026,19.979.016.96.006,1.239-.237,1.23-1.214-.049-5.2-.058-10.4.006-15.6.013-1.083-.369-1.233-1.31-1.227-6.1.037-12.2.019-18.3.019M23.7,90.8c-6.227,0-12.453.01-18.679-.013-.763,0-1.135.087-1.126,1.016.052,5.84-.073,11.682.068,17.519a19.648,19.648,0,0,0,39.277-.919c.082-5.5-.006-10.993.037-16.489.007-.913-.268-1.139-1.155-1.134-6.14.037-12.281.02-18.421.02M47.161,61.709c0,2.877.019,5.754-.014,8.631a1.171,1.171,0,0,0,.839,1.343c3.08,1.175,6.141,2.4,9.191,3.653.577.237.8.172,1.032-.421q3.014-7.649,6.1-15.271c.244-.6.081-.81-.463-1.016-1.521-.576-3.031-1.186-4.535-1.807-1.359-.562-1.878-1.6-1.393-2.714.453-1.04,1.517-1.374,2.854-.861,1.439.553,2.88,1.1,4.293,1.717.669.291,1.009.308,1.322-.5q2.933-7.543,5.984-15.039c.269-.663.121-.874-.491-1.117Q59.995,33.6,48.136,28.832c-.911-.368-.991-.06-.988.725q.028,8.7-.007,17.392a1.108,1.108,0,0,0,.85,1.208c1.52.576,3.035,1.172,4.529,1.815a1.89,1.89,0,0,1,1.234,2.576,1.948,1.948,0,0,1-2.687,1.011,27.652,27.652,0,0,1-2.737-1.109c-.891-.432-1.228-.391-1.2.759.078,2.832.026,5.668.026,8.5m-23.6,25.214c6.181,0,12.362-.017,18.542.019.88.005,1.175-.207,1.168-1.132q-.065-7.79,0-15.58c.007-.922-.19-1.255-1.194-1.252q-18.478.052-36.956,0c-.957,0-1.232.243-1.223,1.213.048,5.15.06,10.3-.006,15.452-.014,1.133.371,1.31,1.386,1.3,6.095-.046,12.19-.023,18.285-.023M23.6,21.4c6.187,0,12.374-.019,18.561.021.905.006,1.155-.247,1.138-1.144-.056-2.921.018-5.844-.032-8.764a7.4,7.4,0,0,0-7.777-7.64q-11.923-.011-23.846,0A7.39,7.39,0,0,0,3.908,11.54c-.029,2.921.034,5.844-.03,8.764-.02.937.288,1.119,1.161,1.114,6.187-.037,12.374-.02,18.561-.02m23.472-4.672h.071c0,2.148.031,4.3-.016,6.443a1.332,1.332,0,0,0,.975,1.52q12.553,4.944,25.063,9.994c.817.33,1.08.127,1.365-.619,1.022-2.681,2.127-5.331,3.165-8.006,1.705-4.4-.015-8.442-4.376-10.2C65.97,12.907,58.6,9.991,51.244,7.061a7.933,7.933,0,0,0-2.869-.645c-2.1-.021-2.128.01-1.637,1.971a9.211,9.211,0,0,1,.32,2.028c.041,2.1.015,4.208.015,6.312M93.5,39.753a7.226,7.226,0,0,0-3.229-6.11c-2.7-1.9-5.443-3.735-8.127-5.656-.717-.513-.926-.373-1.223.389q-2.754,7.054-5.606,14.071a.992.992,0,0,0,.432,1.457q5.214,3.539,10.364,7.171c.594.418.913.525,1.383-.188,1.509-2.29,3.1-4.524,4.656-6.786a7.174,7.174,0,0,0,1.35-4.347m.108,9.1c-2.952,4.271-5.814,8.429-8.7,12.568-.31.444-.135.666.146.976,2.684,2.955,5.37,5.908,8.026,8.887.409.459.658.506,1.119.078,1.887-1.752,3.873-3.4,5.7-5.215a7.118,7.118,0,0,0,.682-9.412c-2.154-2.713-4.583-5.207-6.968-7.882M73.684,47.214c-.435.065-.412.45-.51.693-1.96,4.884-3.883,9.784-5.864,14.659a.931.931,0,0,0,.443,1.349c2.2,1.488,4.4,2.986,6.556,4.534.581.417.809.285,1.172-.245q4.358-6.366,8.779-12.688c.389-.555.334-.8-.223-1.175-3.3-2.242-6.561-4.528-9.838-6.8-.174-.12-.357-.228-.515-.329M47.263,75.594v26.681c.731-1.834,1.329-3.335,1.928-4.837q3.423-8.577,6.837-17.159c.162-.408.686-.923-.143-1.253-2.846-1.13-5.69-2.265-8.622-3.432m25.361-3.408c-.269-.226-.5-.458-.771-.643-1.792-1.247-3.621-2.444-5.374-3.744-.792-.588-1.051-.426-1.383.432-1.51,3.9-3.095,7.78-4.622,11.678-.449,1.144-1.529,2.417-1.139,3.411.381.972,1.893,1.473,2.844,2.257.684.564,1.006.346,1.447-.3,2.8-4.1,5.637-8.179,8.461-12.265.168-.243.323-.5.537-.826m-8.264,26c.144-.12.311-.247.467-.388,3.542-3.187,7.072-6.388,10.635-9.551.563-.5.4-.776-.017-1.223-1.316-1.413-2.652-2.815-3.867-4.314-.711-.878-1-.625-1.518.148C67.8,86.2,65.493,89.5,63.2,92.817c-1.7,2.461-1.707,2.462.361,4.7.223.241.376.579.8.671m-12.784,4.024.245.086q3.642-5.265,7.284-10.531c1.658-2.4,1.654-2.4-.79-4.011a1.848,1.848,0,0,1-.214-.141c-.4-.357-.588-.272-.793.247-1.893,4.79-3.817,9.569-5.732,14.35" transform="translate(0 0.001)" fill="#040303"/>
    <path id="Trazado_182168" data-name="Trazado 182168" d="M222.877,207.992c-1.452-.909-1.992-.858-3.289.311-1.331,1.2-1.329,1.2-2.55-.153-1.381-1.529-2.75-3.07-4.159-4.574a.861.861,0,0,1-.078-1.3q4.2-6.01,8.344-12.063c.367-.536.564-.6,1.018-.087q3.639,4.089,7.343,8.119c.47.51.444.791-.071,1.219-.956.8-1.863,1.652-2.784,2.49-1.249,1.136-1.341,1.614-.623,3.133l-3.152,2.9" transform="translate(-139.314 -124.392)" fill="#f57c00"/>
    <path id="Trazado_182169" data-name="Trazado 182169" d="M31.085,73.306c6.1,0,12.2.018,18.3-.019.942-.006,1.324.144,1.311,1.227-.064,5.2-.055,10.4-.006,15.6.009.977-.27,1.22-1.229,1.214-6.66-.042-13.32-.025-19.979-.016a4.269,4.269,0,0,0-1.519.158A1.769,1.769,0,0,0,26.819,93.3,1.821,1.821,0,0,0,27.988,95a3.736,3.736,0,0,0,1.649.19c6.574,0,13.148.018,19.721-.017.939,0,1.334.141,1.321,1.231-.064,5.155-.05,10.312-.009,15.467.008.925-.186,1.247-1.19,1.244q-18.5-.054-36.993-.005c-.876,0-1.172-.2-1.165-1.126q.066-7.862,0-15.725c-.006-.821.192-1.107,1.059-1.088q3.93.084,7.862.006c1.772-.032,2.727-1.643,1.845-3a2.024,2.024,0,0,0-1.887-.878c-2.578.018-5.157-.029-7.734.025-.883.019-1.172-.209-1.165-1.131q.065-7.927,0-15.854c-.007-.875.277-1.051,1.088-1.046,6.23.031,12.46.017,18.69.017" transform="translate(-7.411 -48.036)" fill="#ffa726"/>
    <path id="Trazado_182170" data-name="Trazado 182170" d="M31.112,263.513c6.14,0,12.281.018,18.421-.02.887-.005,1.162.22,1.155,1.133-.042,5.5.045,10.994-.037,16.489a19.648,19.648,0,0,1-39.277.919c-.142-5.836-.016-11.679-.068-17.519-.009-.929.363-1.019,1.126-1.016,6.227.023,12.453.013,18.679.013M39.829,281.4a9.3,9.3,0,0,0-18.587-.388,9.3,9.3,0,1,0,18.587.388" transform="translate(-7.41 -172.71)" fill="#fdfdfd"/>
    <path id="Trazado_182171" data-name="Trazado 182171" d="M136.827,116.268c0-2.834.053-5.67-.025-8.5-.032-1.151.3-1.191,1.2-.759a27.539,27.539,0,0,0,2.737,1.109,1.948,1.948,0,0,0,2.686-1.011,1.89,1.89,0,0,0-1.234-2.575c-1.494-.643-3.008-1.239-4.529-1.815a1.108,1.108,0,0,1-.849-1.208q.043-8.7.007-17.392c0-.785.077-1.092.988-.725q11.853,4.783,23.741,9.479c.612.243.76.454.491,1.117q-3.043,7.5-5.984,15.039c-.312.8-.653.787-1.322.5-1.413-.614-2.854-1.165-4.293-1.717-1.337-.514-2.4-.179-2.854.861-.484,1.113.034,2.152,1.394,2.714,1.5.622,3.013,1.231,4.535,1.807.544.206.706.415.463,1.017q-3.086,7.62-6.1,15.271c-.234.593-.454.658-1.031.421-3.05-1.252-6.111-2.478-9.191-3.653a1.171,1.171,0,0,1-.84-1.343c.032-2.877.014-5.754.014-8.631" transform="translate(-89.666 -54.559)" fill="#fdd835"/>
    <path id="Trazado_182172" data-name="Trazado 182172" d="M30.963,218.149c-6.095,0-12.19-.023-18.285.023-1.015.008-1.4-.169-1.386-1.3.066-5.15.054-10.3.006-15.452-.009-.97.266-1.216,1.223-1.213q18.478.048,36.956,0c1,0,1.2.33,1.194,1.252q-.06,7.79,0,15.581c.008.925-.288,1.137-1.168,1.132-6.181-.035-12.362-.019-18.542-.019" transform="translate(-7.401 -131.225)" fill="#9b5003"/>
    <path id="Trazado_182173" data-name="Trazado 182173" d="M30.977,28.755c-6.187,0-12.374-.017-18.561.02-.872.005-1.181-.177-1.16-1.114.063-2.92,0-5.843.029-8.764a7.39,7.39,0,0,1,7.737-7.668q11.923-.013,23.846,0a7.4,7.4,0,0,1,7.777,7.64c.05,2.921-.024,5.844.032,8.764.017.9-.232,1.15-1.138,1.144-6.187-.04-12.374-.021-18.561-.021" transform="translate(-7.377 -7.355)" fill="#ffd1a2"/>
    <path id="Trazado_182174" data-name="Trazado 182174" d="M135.488,28.931c0-2.1.026-4.209-.015-6.312a9.212,9.212,0,0,0-.32-2.027c-.49-1.962-.468-1.992,1.637-1.971a7.926,7.926,0,0,1,2.869.645c7.36,2.93,14.726,5.846,22.076,8.8,4.361,1.755,6.082,5.8,4.376,10.2-1.038,2.675-2.142,5.325-3.165,8.006-.285.746-.547.949-1.365.619Q149.07,41.841,136.518,36.9a1.332,1.332,0,0,1-.975-1.52c.047-2.147.016-4.3.016-6.444h-.072" transform="translate(-88.416 -12.203)" fill="#fff3bf"/>
    <path id="Trazado_182175" data-name="Trazado 182175" d="M236.5,92.42a7.175,7.175,0,0,1-1.35,4.347c-1.553,2.262-3.147,4.5-4.656,6.786-.47.713-.79.606-1.383.188q-5.154-3.625-10.364-7.171a.991.991,0,0,1-.432-1.457q2.854-7.015,5.606-14.071c.3-.762.506-.9,1.223-.389,2.684,1.92,5.427,3.757,8.127,5.655a7.227,7.227,0,0,1,3.229,6.11" transform="translate(-142.999 -52.666)" fill="#b1f9ff"/>
    <path id="Trazado_182176" data-name="Trazado 182176" d="M254.833,141.789c2.385,2.676,4.814,5.17,6.968,7.882a7.118,7.118,0,0,1-.682,9.412c-1.825,1.813-3.811,3.464-5.7,5.216-.461.428-.71.381-1.119-.078-2.656-2.98-5.342-5.933-8.026-8.887-.281-.309-.456-.532-.146-.976,2.889-4.14,5.752-8.3,8.7-12.568" transform="translate(-161.221 -92.937)" fill="#ffa726"/>
    <path id="Trazado_182177" data-name="Trazado 182177" d="M201.491,137.038c.158.1.341.209.515.329,3.277,2.269,6.543,4.555,9.838,6.8.556.379.611.619.223,1.175q-4.424,6.32-8.779,12.689c-.363.53-.591.662-1.172.245-2.159-1.549-4.354-3.047-6.556-4.534a.931.931,0,0,1-.443-1.349c1.981-4.876,3.9-9.775,5.864-14.659.1-.243.075-.628.51-.693" transform="translate(-127.808 -89.823)" fill="#26ccda"/>
    <path id="Trazado_182178" data-name="Trazado 182178" d="M137.176,219.408c2.932,1.167,5.776,2.3,8.622,3.432.829.329.3.845.143,1.253q-3.4,8.586-6.837,17.159c-.6,1.5-1.2,3-1.928,4.837Z" transform="translate(-89.914 -143.813)" fill="#d9ba2e"/>
    <path id="Trazado_182179" data-name="Trazado 182179" d="M185.346,200.5c-.214.33-.369.583-.537.826-2.824,4.086-5.662,8.162-8.461,12.265-.441.646-.762.864-1.447.3-.952-.785-2.463-1.286-2.844-2.257-.39-.994.69-2.267,1.138-3.411,1.527-3.9,3.112-7.774,4.622-11.678.332-.858.591-1.02,1.383-.432,1.752,1.3,3.581,2.5,5.374,3.744.267.186.5.417.771.643" transform="translate(-112.722 -128.317)" fill="#1fa4af"/>
    <path id="Trazado_182180" data-name="Trazado 182180" d="M182.239,254.478c-.423-.092-.576-.43-.8-.671-2.068-2.234-2.063-2.235-.361-4.7,2.293-3.315,4.6-6.619,6.86-9.96.522-.773.807-1.026,1.518-.149,1.214,1.5,2.55,2.9,3.867,4.314.416.447.58.724.017,1.223-3.563,3.163-7.093,6.364-10.635,9.551-.156.14-.323.268-.467.388" transform="translate(-117.879 -156.294)" fill="#d06a01"/>
    <path id="Trazado_182181" data-name="Trazado 182181" d="M149.692,268.467c1.915-4.781,3.839-9.56,5.732-14.35.205-.519.389-.6.793-.247a1.838,1.838,0,0,0,.214.141c2.444,1.608,2.448,1.61.79,4.011q-3.637,5.268-7.284,10.531l-.245-.086" transform="translate(-98.117 -166.26)" fill="#106f77"/>
    <path id="Trazado_182182" data-name="Trazado 182182" d="M152.081,296.447a41.041,41.041,0,0,1,3.225-4.9c1.145-1.746,2.376-3.435,3.576-5.159,2.264,2.111,2.284,2.134.043,4.1-2.276,2-4.4,4.169-6.822,6Z" transform="translate(-99.683 -187.718)" fill="#9b5003"/>
    <path id="Trazado_182183" data-name="Trazado 182183" d="M151.42,315.62c-.01.193-.123.259-.3.233-.031,0-.055-.051-.083-.078l.36-.193.022.038" transform="translate(-99 -206.852)" fill="#9af5d0"/>
    <path id="Trazado_182184" data-name="Trazado 182184" d="M58.726,297.473a9.3,9.3,0,1,1-8.888-9.461,9.3,9.3,0,0,1,8.888,9.461m-3.912-.188a5.318,5.318,0,0,0-5.36-5.381,5.39,5.39,0,0,0-5.407,5.369,5.465,5.465,0,0,0,5.394,5.416,5.4,5.4,0,0,0,5.372-5.4" transform="translate(-26.307 -188.778)" fill="#040303"/>
    <path id="Trazado_182185" data-name="Trazado 182185" d="M62.257,304.7a5.4,5.4,0,0,1-5.372,5.4,5.464,5.464,0,0,1-5.394-5.416,5.39,5.39,0,0,1,5.407-5.369,5.318,5.318,0,0,1,5.36,5.381" transform="translate(-33.75 -196.189)" fill="#fdfdfd"/>
  </g>
</svg>
